<?xml version="1.0" encoding="utf-8"?>
<!-- Generator: Adobe Illustrator 27.5.0, SVG Export Plug-In . SVG Version: 6.00 Build 0)  -->
<svg version="1.1" xmlns="http://www.w3.org/2000/svg" xmlns:xlink="http://www.w3.org/1999/xlink" x="0px" y="0px"
	 viewBox="0 0 750 500" style="enable-background:new 0 0 750 500;" xml:space="preserve">
<g id="BACKGROUND">
	<rect style="fill:#FFFFFF;" width="750" height="500"/>
</g>
<g id="OBJECTS">
	<g>
		<g>
			<g>
				<path style="fill:#BCDFEB;" d="M658.45,438.277H90.431c-16.436-9.455-26.074-29.17-26.172-48.132
					c-0.098-18.961,10.505-37.622,26.843-47.245c22.665-13.349,54.826-10.535,71.32-31.025c13.426-16.677,9.768-40.633,9.311-62.038
					c-0.427-20.004,2.902-40.829,14.297-57.277c11.395-16.447,32.21-27.391,51.69-22.823c8.955,2.1,17.102,7.215,26.224,8.391
					c19.061,2.457,36.057-12.93,45.304-29.778c9.247-16.848,13.86-36.148,24.811-51.941c10.951-15.794,31.93-27.551,49.308-19.343
					c19.385,9.156,23.216,36.993,41.77,47.732c13.711,7.936,31.417,3.93,45.231-3.824c13.814-7.754,25.557-18.886,39.636-26.15
					c14.078-7.264,32.299-9.978,45.098-0.643c14.379,10.487,16.025,31.047,15.3,48.83c-0.724,17.782-1.865,37.595,9.667,51.151
					c15.311,18,47.477,17.745,57.493,39.148c9.486,20.272-8.496,42.225-12.274,64.286c-4.195,24.493,9.521,47.995,21.061,70.003
					C657.891,389.607,669.914,416.229,658.45,438.277z"/>
				<g>
					<path style="fill:#429C9B;" d="M336.58,212.456c-2.727-2.604-4.032-6.842-2.579-10.32c1.153-2.76,3.914-5.172,3.352-8.111
						c-0.35-1.831-1.944-3.16-3.58-4.053c-1.636-0.894-3.443-1.535-4.838-2.771c-2.634-2.335-3.116-6.723-1.053-9.575
						c1.301-1.798,3.336-2.882,5.147-4.165c1.811-1.283,3.559-3.032,3.743-5.244c0.371-4.47-5.456-6.972-6.734-11.271
						c-0.941-3.164,0.828-6.506,3.004-8.988c2.175-2.482,4.857-4.609,6.335-7.56c1.156-2.307,1.475-4.925,1.96-7.46
						c0.485-2.535,1.212-5.147,2.972-7.034c1.76-1.887,4.829-2.777,6.99-1.366c3.233,2.111,2.342,7.291,4.749,10.309
						c1.828,2.292,5.045,2.77,7.919,3.347c2.874,0.578,6.106,1.793,7.002,4.584c0.785,2.443-0.593,5.027-2.108,7.099
						c-1.515,2.071-3.297,4.191-3.446,6.753c-0.198,3.403,2.512,6.191,4.992,8.529c2.48,2.338,5.135,5.218,4.785,8.609
						c-0.357,3.451-3.785,6.098-3.802,9.568c-0.008,1.579,0.707,3.055,1.251,4.537c2.122,5.779,1.667,12.451-1.22,17.889
						c-2.941,5.538-8.406,10.379-14.903,10.169C349.725,215.709,342.083,217.71,336.58,212.456z"/>
					
						<path style="fill:none;stroke:#57BABD;stroke-width:1.3891;stroke-linecap:round;stroke-linejoin:round;stroke-miterlimit:10;" d="
						M352.702,209.141c2.554-7.484,1.989-15.684,0.467-23.443s-3.964-15.333-5.116-23.156c-1.153-7.823-0.92-16.143,2.667-23.189"/>
					
						<path style="fill:none;stroke:#57BABD;stroke-width:1.3891;stroke-linecap:round;stroke-linejoin:round;stroke-miterlimit:10;" d="
						M347.322,154.475c4.459-1.901,8.321-5.178,10.923-9.268"/>
					
						<path style="fill:none;stroke:#57BABD;stroke-width:1.3891;stroke-linecap:round;stroke-linejoin:round;stroke-miterlimit:10;" d="
						M336.486,179.279c4.501,3.824,10.562,5.755,16.445,5.237"/>
					
						<path style="fill:none;stroke:#57BABD;stroke-width:1.3891;stroke-linecap:round;stroke-linejoin:round;stroke-miterlimit:10;" d="
						M350.595,171.867c4.272-1.256,7.897-4.545,9.559-8.676"/>
					
						<path style="fill:none;stroke:#57BABD;stroke-width:1.3891;stroke-linecap:round;stroke-linejoin:round;stroke-miterlimit:10;" d="
						M353.84,202.002c3.897-1.968,7.303-4.899,9.83-8.459"/>
					
						<path style="fill:none;stroke:#57BABD;stroke-width:1.3891;stroke-linecap:round;stroke-linejoin:round;stroke-miterlimit:10;" d="
						M336.837,155.8c2.263,3.855,6.693,6.334,11.162,6.249"/>
				</g>
				<g>
					<path style="fill:#429C9B;" d="M211.603,163.528c4.166,6.762,10.071,14.988,15.779,20.511c5.708,5.522,13.15,9.676,21.091,9.83
						c8.139,0.158,15.749-3.803,23.755-5.274c13.011-2.391,26.67,2.06,37.231,10.026c10.561,7.966,18.302,19.161,24.2,31.002
						c4.689,9.412,8.382,19.684,7.878,30.188c-0.666,13.879-8.465,26.005-16.841,36.585c-4.302,5.433-8.28,9.869-14.827,12.591
						c-6.276,2.609-13.523,2.99-19.962,0.732c-9.831-3.448-17.285-12.873-18.374-23.235c-1.032-9.816,3.173-19.317,5.338-28.947
						c1.62-7.209,1.532-16.036-4.385-20.461c-3.274-2.448-7.595-2.913-11.681-2.994c-13.046-0.258-26.716,2.412-38.745-2.644
						c-12.156-5.111-20.243-17.775-21.617-30.89C199.07,187.431,203.787,174.148,211.603,163.528z"/>
					
						<path style="fill:none;stroke:#57BABD;stroke-width:3.6609;stroke-linecap:round;stroke-linejoin:round;stroke-miterlimit:10;" d="
						M297.28,293.697c5.803-10.345,11.686-20.899,14.083-32.515c2.397-11.617,0.794-24.679-7.025-33.598
						c-6.145-7.01-15.385-10.664-24.609-12.01c-11.514-1.68-23.225-0.14-34.767,1.339c-5.959,0.764-12.283,1.46-17.745-1.039
						c-5.27-2.412-8.93-7.555-10.667-13.085c-1.737-5.529-1.763-11.448-1.362-17.23"/>
					
						<path style="fill:none;stroke:#57BABD;stroke-width:3.6609;stroke-linecap:round;stroke-linejoin:round;stroke-miterlimit:10;" d="
						M206.662,200.452c2.306,2.879,6.219,4.376,9.858,3.774"/>
					
						<path style="fill:none;stroke:#57BABD;stroke-width:3.6609;stroke-linecap:round;stroke-linejoin:round;stroke-miterlimit:10;" d="
						M230.99,216.751c2.186-2.062,3.669-4.857,4.15-7.823c0.481-2.966-0.041-6.086-1.463-8.734"/>
					
						<path style="fill:none;stroke:#57BABD;stroke-width:3.6609;stroke-linecap:round;stroke-linejoin:round;stroke-miterlimit:10;" d="
						M255.087,217.751c-0.003,5.013-2.822,9.931-7.145,12.468"/>
					
						<path style="fill:none;stroke:#57BABD;stroke-width:3.6609;stroke-linecap:round;stroke-linejoin:round;stroke-miterlimit:10;" d="
						M275.89,214.689c1.328-5.307,0.48-11.124-2.308-15.83"/>
					
						<path style="fill:none;stroke:#57BABD;stroke-width:3.6609;stroke-linecap:round;stroke-linejoin:round;stroke-miterlimit:10;" d="
						M301.99,227.465c-0.069,2.825-1.071,5.619-2.813,7.844c-1.742,2.225-4.213,3.869-6.939,4.614"/>
					
						<path style="fill:none;stroke:#57BABD;stroke-width:3.6609;stroke-linecap:round;stroke-linejoin:round;stroke-miterlimit:10;" d="
						M312.665,258.791c8.286,0.523,16.663-4.33,20.329-11.779"/>
					
						<path style="fill:none;stroke:#57BABD;stroke-width:3.6609;stroke-linecap:round;stroke-linejoin:round;stroke-miterlimit:10;" d="
						M292.033,273.06c0.163,2.745,1.448,5.407,3.497,7.24c2.049,1.834,4.836,2.818,7.582,2.676"/>
				</g>
				<g>
					<g>
						<path style="fill:#61A9B8;" d="M332.094,258.666c-0.311,0-0.625-0.093-0.899-0.286c-0.705-0.497-0.872-1.472-0.375-2.176
							c4.779-6.767,7.689-14.053,8.418-21.071c0.818-7.892-1.185-15.669-5.494-21.335c-3.815-5.017-9.171-8.356-14.842-11.891
							c-3.041-1.895-6.185-3.855-9.062-6.096c-9.511-7.407-15.652-17.782-16.849-28.467c-1.326-11.841,3.94-23.899,13.103-30.007
							c0.717-0.479,1.687-0.284,2.165,0.433c0.479,0.718,0.284,1.687-0.433,2.166c-8.216,5.477-12.93,16.352-11.731,27.061
							c1.103,9.854,6.813,19.458,15.664,26.351c2.748,2.14,5.822,4.056,8.794,5.91c5.66,3.529,11.513,7.178,15.676,12.65
							c4.785,6.292,7.014,14.874,6.115,23.548c-0.783,7.549-3.886,15.347-8.973,22.549
							C333.066,258.436,332.584,258.666,332.094,258.666z"/>
					</g>
					<g>
						<path style="fill:#61A9B8;" d="M335.564,115.345c-7.046-2.637-15.438-1.288-21.303,3.423
							c-5.865,4.712-8.991,12.615-7.936,20.064c2.294,1.372,5.686,1.564,8.273,0.891
							C325.744,136.822,333.64,126.701,335.564,115.345z"/>
					</g>
					<g>
						<g>
							<path style="fill:#61A9B8;" d="M278.042,130.04c-2.869,5.521-2.601,12.546,0.68,17.832c3.282,5.287,9.458,8.643,15.679,8.522
								c1.356-1.746,1.853-4.512,1.559-6.703C294.692,140.25,287.173,132.755,278.042,130.04z"/>
						</g>
						<g>
							<path style="fill:#61A9B8;" d="M325.68,154.762c-3.347-5.245-9.565-8.525-15.784-8.325
								c-6.219,0.199-12.214,3.87-15.219,9.318c0.835,2.048,2.981,3.86,5.026,4.701C308.513,164.079,318.764,161.313,325.68,154.762
								z"/>
						</g>
					</g>
					<g>
						<g>
							<path style="fill:#61A9B8;" d="M275.05,167.234c-0.169,5.532,2.757,11.059,7.427,14.029c4.67,2.971,10.915,3.278,15.854,0.78
								c0.413-1.923-0.256-4.331-1.337-5.974C292.335,168.992,283.416,165.887,275.05,167.234z"/>
						</g>
						<g>
							<path style="fill:#61A9B8;" d="M322.771,168.665c-4.707-2.912-10.956-3.141-15.863-0.581
								c-4.908,2.56-8.296,7.815-8.601,13.341c1.459,1.319,3.879,1.943,5.842,1.828
								C312.608,182.757,319.756,176.584,322.771,168.665z"/>
						</g>
					</g>
					<g>
						<g>
							<path style="fill:#61A9B8;" d="M288.391,195.43c2.288,4.911,7.279,8.454,12.67,8.994c5.391,0.541,10.985-1.941,14.203-6.299
								c-0.486-1.863-2.131-3.673-3.799-4.633C304.276,189.356,295.111,190.569,288.391,195.43z"/>
						</g>
						<g>
							<path style="fill:#61A9B8;" d="M330.738,175.669c-5.397-0.473-10.96,2.078-14.123,6.476
								c-3.163,4.398-3.811,10.484-1.645,15.45c1.856,0.51,4.246-0.009,5.912-0.974C328.059,192.463,331.59,183.919,330.738,175.669
								z"/>
						</g>
					</g>
					<g>
						<g>
							<path style="fill:#61A9B8;" d="M305.724,214.463c3.34,4.266,9.003,6.588,14.376,5.895c5.373-0.693,10.262-4.376,12.41-9.349
								c-0.895-1.705-2.907-3.096-4.749-3.654C319.822,204.952,311.169,208.207,305.724,214.463z"/>
						</g>
						<g>
							<path style="fill:#61A9B8;" d="M342.503,185.634c-5.364,0.76-10.206,4.503-12.292,9.503c-2.086,5-1.34,11.075,1.893,15.422
								c1.924,0.077,4.134-0.969,5.538-2.287C343.691,202.599,345.198,193.478,342.503,185.634z"/>
						</g>
					</g>
				</g>
				<g>
					<path style="fill:#61A9B8;" d="M285.951,323.065c-4.819,0.987-10,1.251-14.5-0.734c-4.5-1.985-8.06-6.709-7.415-11.586
						c-4.015,1.53-8.308,2.545-12.592,2.212c-4.284-0.333-8.57-2.137-11.288-5.465c-2.718-3.327-3.585-8.268-1.564-12.06
						c-5.206-0.014-10.314-2.894-13.021-7.341c-2.707-4.447-2.919-10.307-0.54-14.938c-3.096-2.402-6.024-5.14-7.951-8.552
						c-1.927-3.412-2.756-7.595-1.522-11.315c1.233-3.719,4.806-6.746,8.723-6.666c3.756,0.077,7.621,2.772,10.995,1.121
						c1.468-0.718,2.453-2.124,3.68-3.203c3.053-2.686,7.853-3.155,11.369-1.111c2.569,1.493,4.357,4.091,6.938,5.563
						c4.034,2.3,9.085,1.416,13.611,2.453c7.775,1.783,13.461,10.062,12.333,17.958c5.827-2.95,12.998-3.268,18.93-0.535
						c5.932,2.733,10.414,8.558,11.214,15.04c0.645,5.229-1.02,10.533-3.671,15.086c-1.749,3.004-4.024,5.492-6.107,8.242
						c-1.571,2.074-1.767,3.951-2.717,6.248C298.508,319.166,291.54,321.921,285.951,323.065z"/>
					
						<path style="fill:none;stroke:#72BEE6;stroke-width:2.44;stroke-linecap:round;stroke-linejoin:round;stroke-miterlimit:10;" d="
						M295.41,301.817c-24.674-8.358-41.456-32.032-65.602-41.813"/>
					
						<path style="fill:none;stroke:#72BEE6;stroke-width:2.44;stroke-linecap:round;stroke-linejoin:round;stroke-miterlimit:10;" d="
						M286.845,297.636c2.585-5.978,3.493-12.671,2.596-19.122"/>
					
						<path style="fill:none;stroke:#72BEE6;stroke-width:2.44;stroke-linecap:round;stroke-linejoin:round;stroke-miterlimit:10;" d="
						M251.191,299.032c5.963,0.33,12.018-2.322,15.82-6.928c1.125-1.363,2.091-2.985,2.102-4.753"/>
					
						<path style="fill:none;stroke:#72BEE6;stroke-width:2.44;stroke-linecap:round;stroke-linejoin:round;stroke-miterlimit:10;" d="
						M256.128,275.592c2.766-5.968,3.69-12.775,2.614-19.264"/>
					
						<path style="fill:none;stroke:#72BEE6;stroke-width:2.44;stroke-linecap:round;stroke-linejoin:round;stroke-miterlimit:10;" d="
						M230.906,272.287c4.902,1.204,10.359-0.138,14.143-3.479"/>
				</g>
				<g>
					<g>
						<path style="fill:#61A9B8;" d="M483.853,201.75c3.247-2.522,6.233-5.667,7.421-9.604c1.188-3.936,0.125-8.765-3.321-11.008
							c3.155-1.716,6.135-3.89,8.253-6.79c2.119-2.901,3.305-6.602,2.671-10.138c-0.634-3.536-3.299-6.773-6.805-7.553
							c2.823-3.312,3.773-8.121,2.422-12.258c-1.35-4.137-4.955-7.459-9.188-8.468c0.159-3.272,0.014-6.62-1.104-9.699
							c-1.118-3.079-3.322-5.88-6.354-7.121c-3.032-1.24-6.897-0.619-8.976,1.912c-1.994,2.426-2.386,6.345-5.269,7.59
							c-1.254,0.541-2.683,0.402-4.035,0.593c-3.366,0.477-6.274,3.269-6.889,6.612c-0.449,2.443,0.227,4.991-0.242,7.43
							c-0.734,3.812-4.043,6.537-5.846,9.975c-3.097,5.905-0.935,14.018,4.692,17.597c-5.042,2.094-9.145,6.474-10.636,11.725
							c-1.491,5.252-0.232,11.266,3.448,15.299c2.968,3.253,7.241,5.082,11.573,5.876c2.858,0.524,5.675,0.433,8.553,0.607
							c2.172,0.131,3.469,1.027,5.444,1.674C474.548,207.601,480.087,204.676,483.853,201.75z"/>
						
							<path style="fill:none;stroke:#72BEE6;stroke-width:2.0398;stroke-linecap:round;stroke-linejoin:round;stroke-miterlimit:10;" d="
							M465.22,196.197c8.116-20.209,2.216-43.739,9.141-64.386"/>
						
							<path style="fill:none;stroke:#72BEE6;stroke-width:2.0398;stroke-linecap:round;stroke-linejoin:round;stroke-miterlimit:10;" d="
							M467.224,188.487c-5.201-1.611-9.943-4.674-13.55-8.753"/>
						
							<path style="fill:none;stroke:#72BEE6;stroke-width:2.0398;stroke-linecap:round;stroke-linejoin:round;stroke-miterlimit:10;" d="
							M487.504,166.613c-3.035,3.965-8.011,6.366-13.003,6.274c-1.477-0.027-3.033-0.296-4.16-1.251"/>
						
							<path style="fill:none;stroke:#72BEE6;stroke-width:2.0398;stroke-linecap:round;stroke-linejoin:round;stroke-miterlimit:10;" d="
							M469.939,156.997c-5.293-1.49-10.116-4.606-13.65-8.819"/>
						
							<path style="fill:none;stroke:#72BEE6;stroke-width:2.0398;stroke-linecap:round;stroke-linejoin:round;stroke-miterlimit:10;" d="
							M481.56,139.19c-1.902,3.767-5.722,6.501-9.901,7.085"/>
					</g>
					<g>
						<path style="fill:#429C9B;" d="M507.56,208.301c3.01-0.75,5.671-3.247,6.05-6.326c0.301-2.444-0.689-5.293,0.91-7.164
							c0.997-1.166,2.678-1.466,4.211-1.438c1.534,0.028,3.087,0.306,4.588-0.009c2.835-0.596,4.968-3.536,4.655-6.415
							c-0.197-1.816-1.211-3.42-1.982-5.075s-1.308-3.618-0.538-5.274c1.557-3.347,6.742-2.76,9.408-5.312
							c1.962-1.878,2.06-4.988,1.516-7.649c-0.543-2.661-1.594-5.275-1.448-7.987c0.114-2.121,0.953-4.122,1.64-6.132
							c0.687-2.009,1.232-4.174,0.743-6.24c-0.489-2.066-2.32-3.953-4.44-3.826c-3.171,0.191-4.646,4.258-7.597,5.434
							c-2.241,0.893-4.736-0.076-7.026-0.835c-2.29-0.758-5.096-1.207-6.874,0.422c-1.557,1.427-1.626,3.836-1.387,5.934
							c0.239,2.098,0.648,4.34-0.289,6.232c-1.245,2.513-4.319,3.402-7.045,4.062c-2.726,0.661-5.798,1.637-6.93,4.203
							c-1.152,2.612,0.22,5.902-1.182,8.389c-0.638,1.132-1.751,1.896-2.744,2.733c-3.872,3.266-6.267,8.222-6.42,13.285
							c-0.155,5.158,1.779,10.846,6.508,13.344C496.837,205.269,501.485,209.814,507.56,208.301z"/>
						
							<path style="fill:none;stroke:#57BABD;stroke-width:1.6785;stroke-linecap:round;stroke-linejoin:round;stroke-miterlimit:10;" d="
							M497.386,199.36c1.225-6.391,4.971-12.022,9.222-16.949c4.251-4.927,9.083-9.346,13.096-14.468
							c4.013-5.122,7.238-11.165,7.545-17.664"/>
						
							<path style="fill:none;stroke:#57BABD;stroke-width:1.6785;stroke-linecap:round;stroke-linejoin:round;stroke-miterlimit:10;" d="
							M523.514,162.474c-2.413-3.177-3.838-7.093-4.031-11.077"/>
						
							<path style="fill:none;stroke:#57BABD;stroke-width:1.6785;stroke-linecap:round;stroke-linejoin:round;stroke-miterlimit:10;" d="
							M521.151,184.623c-4.776,0.899-9.896-0.191-13.891-2.96"/>
						
							<path style="fill:none;stroke:#57BABD;stroke-width:1.6785;stroke-linecap:round;stroke-linejoin:round;stroke-miterlimit:10;" d="
							M514.085,173.573c-2.542-2.639-3.792-6.468-3.297-10.098"/>
						
							<path style="fill:none;stroke:#57BABD;stroke-width:1.6785;stroke-linecap:round;stroke-linejoin:round;stroke-miterlimit:10;" d="
							M499.483,193.792c-1.984-2.995-3.224-6.479-3.579-10.054"/>
						
							<path style="fill:none;stroke:#57BABD;stroke-width:1.6785;stroke-linecap:round;stroke-linejoin:round;stroke-miterlimit:10;" d="
							M530.47,167.695c-3.189,1.833-7.366,1.8-10.526-0.082"/>
					</g>
					<g>
						<path style="fill:#61A9B8;" d="M592.023,140.534c-2.946,7.376-7.355,16.492-12.033,22.91s-11.299,11.785-19.096,13.297
							c-7.991,1.549-16.167-1.049-24.307-1.127c-13.228-0.127-25.923,6.598-34.964,16.254c-9.041,9.657-14.75,22.012-18.533,34.688
							c-3.007,10.076-4.887,20.829-2.591,31.091c3.034,13.56,12.794,24.172,22.858,33.16c5.169,4.616,9.848,8.305,16.764,9.865
							c6.63,1.496,13.836,0.63,19.792-2.698c9.095-5.081,14.824-15.644,14.123-26.038c-0.665-9.848-6.435-18.488-10.217-27.605
							c-2.831-6.825-4.256-15.537,0.815-20.91c2.806-2.973,6.983-4.171,10.996-4.951c12.809-2.488,26.735-2.199,37.719-9.241
							c11.102-7.117,16.9-20.98,16.007-34.136C608.465,161.938,601.543,149.659,592.023,140.534z"/>
						
							<path style="fill:none;stroke:#57BABD;stroke-width:3.6609;stroke-linecap:round;stroke-linejoin:round;stroke-miterlimit:10;" d="
							M529.907,283.454c-7.489-9.198-15.093-18.588-19.444-29.623c-4.351-11.034-5.009-24.178,1.167-34.304
							c4.854-7.959,13.331-13.141,22.189-16.047c11.056-3.627,22.858-4.116,34.482-4.636c6.001-0.268,12.351-0.665,17.305-4.063
							c4.779-3.279,7.504-8.973,8.268-14.718c0.765-5.745-0.224-11.581-1.609-17.209"/>
						
							<path style="fill:none;stroke:#57BABD;stroke-width:3.6609;stroke-linecap:round;stroke-linejoin:round;stroke-miterlimit:10;" d="
							M603.216,176.067c-1.779,3.231-5.377,5.377-9.066,5.407"/>
						
							<path style="fill:none;stroke:#57BABD;stroke-width:3.6609;stroke-linecap:round;stroke-linejoin:round;stroke-miterlimit:10;" d="
							M582.038,196.292c-2.507-1.657-4.446-4.157-5.429-6.997c-0.982-2.84-1.002-6.004-0.055-8.855"/>
						
							<path style="fill:none;stroke:#57BABD;stroke-width:3.6609;stroke-linecap:round;stroke-linejoin:round;stroke-miterlimit:10;" d="
							M558.468,201.404c0.862,4.938,4.481,9.301,9.175,11.06"/>
						
							<path style="fill:none;stroke:#57BABD;stroke-width:3.6609;stroke-linecap:round;stroke-linejoin:round;stroke-miterlimit:10;" d="
							M537.449,201.95c-2.217-5.001-2.378-10.877-0.438-15.991"/>
						
							<path style="fill:none;stroke:#57BABD;stroke-width:3.6609;stroke-linecap:round;stroke-linejoin:round;stroke-miterlimit:10;" d="
							M513.922,219.008c0.552,2.771,2.018,5.352,4.115,7.246c2.097,1.894,4.814,3.09,7.627,3.357"/>
						
							<path style="fill:none;stroke:#72BEE6;stroke-width:3.6609;stroke-linecap:round;stroke-linejoin:round;stroke-miterlimit:10;" d="
							M508.771,251.699c-8.074,1.935-17.158-1.412-22.046-8.123"/>
						
							<path style="fill:none;stroke:#72BEE6;stroke-width:3.6609;stroke-linecap:round;stroke-linejoin:round;stroke-miterlimit:10;" d="
							M531.541,262.224c0.31,2.732-0.501,5.575-2.205,7.732c-1.704,2.158-4.282,3.604-7.012,3.935"/>
					</g>
					<g>
						<g>
							<path style="fill:#429C9B;" d="M516.191,304.258c-0.053,0-0.106-0.003-0.158-0.01c-0.734-0.086-1.259-0.751-1.172-1.484
								c0.885-7.502,3.374-14.245,7.2-19.502c4.395-6.039,10.73-10.229,17.381-11.495c5.787-1.104,11.604-0.074,17.229,0.921
								c2.955,0.522,6.011,1.063,8.987,1.273c9.584,0.679,18.722-2.168,25.068-7.811c6.898-6.135,10.124-15.761,8.027-23.955
								c-0.183-0.716,0.249-1.444,0.965-1.627c0.711-0.184,1.444,0.249,1.627,0.964c2.338,9.138-1.215,19.835-8.842,26.616
								c-6.881,6.122-16.74,9.213-27.035,8.481c-3.115-0.221-6.241-0.773-9.264-1.308c-5.636-0.995-10.959-1.936-16.263-0.928
								c-5.99,1.141-11.719,4.947-15.719,10.442c-3.556,4.887-5.875,11.194-6.706,18.24
								C517.437,303.757,516.859,304.258,516.191,304.258z"/>
						</g>
						<g>
							<path style="fill:#429C9B;" d="M595.172,210.646c5.998,2.356,10.57,8.022,11.607,14.382
								c1.037,6.36-1.498,13.184-6.437,17.324c-2.247-0.44-4.517-2.26-5.779-4.171C589.126,229.949,589.893,218.98,595.172,210.646z
								"/>
						</g>
						<g>
							<g>
								<path style="fill:#429C9B;" d="M623.392,252.951c-1.335,5.16-5.529,9.48-10.646,10.968
									c-5.118,1.487-10.974,0.088-14.867-3.552c0.137-1.889,1.404-3.935,2.846-5.162
									C606.939,249.917,616.021,249.45,623.392,252.951z"/>
							</g>
							<g>
								<path style="fill:#429C9B;" d="M578.891,241.412c5.136-1.423,10.974,0.049,14.821,3.738
									c3.847,3.689,5.563,9.46,4.356,14.651c-1.704,0.826-4.11,0.751-5.894,0.115
									C584.488,257.178,579.544,249.545,578.891,241.412z"/>
							</g>
						</g>
						<g>
							<g>
								<path style="fill:#429C9B;" d="M603.994,278.353c-3.061,3.62-8.089,5.464-12.765,4.682
									c-4.676-0.783-8.829-4.164-10.544-8.584c0.838-1.461,2.644-2.612,4.273-3.039
									C591.979,269.573,599.438,272.704,603.994,278.353z"/>
							</g>
							<g>
								<path style="fill:#429C9B;" d="M572.781,251.933c4.666,0.841,8.777,4.274,10.436,8.715c1.66,4.441,0.808,9.729-2.163,13.423
									c-1.685,0.004-3.584-0.984-4.768-2.182C571.183,266.729,570.166,258.703,572.781,251.933z"/>
							</g>
						</g>
						<g>
							<g>
								<path style="fill:#429C9B;" d="M579.348,288.67c-4.27,1.817-9.478,1.215-13.221-1.528
									c-3.743-2.743-5.885-7.528-5.438-12.147c1.376-0.908,3.461-1.119,5.074-0.775
									C572.71,275.704,577.853,281.725,579.348,288.67z"/>
							</g>
							<g>
								<path style="fill:#429C9B;" d="M563.695,251.831c3.708,2.79,5.791,7.601,5.286,12.214c-0.505,4.613-3.578,8.86-7.801,10.783
									c-1.475-0.738-2.7-2.438-3.208-4.007C555.783,264.061,558.427,256.598,563.695,251.831z"/>
							</g>
						</g>
						<g>
							<g>
								<path style="fill:#429C9B;" d="M557.408,290.865c-4.57,0.804-9.507-0.96-12.532-4.479c-3.025-3.519-4.03-8.664-2.549-13.062
									c1.546-0.573,3.624-0.307,5.117,0.393C553.876,276.734,557.523,283.762,557.408,290.865z"/>
							</g>
							<g>
								<path style="fill:#429C9B;" d="M550.495,251.44c2.981,3.556,3.921,8.714,2.386,13.093
									c-1.535,4.379-5.489,7.821-10.038,8.738c-1.269-1.052-2.078-2.986-2.218-4.629
									C540.021,261.564,544.285,254.891,550.495,251.44z"/>
							</g>
						</g>
					</g>
				</g>
				
					<path style="fill:none;stroke:#FFFFFF;stroke-width:9.8181;stroke-linecap:round;stroke-linejoin:round;stroke-miterlimit:10;stroke-dasharray:6.9454,18.0581;" d="
					M280.521,305.509L280.521,305.509c-21.901,0-39.655-17.754-39.655-39.655v-1.693c0-21.901,17.754-39.655,39.655-39.655h47.456"
					/>
				
					<path style="fill:none;stroke:#FFFFFF;stroke-width:9.8181;stroke-linecap:round;stroke-linejoin:round;stroke-miterlimit:10;stroke-dasharray:6.9454,18.0581;" d="
					M538.873,286.725L538.873,286.725c21.901,0,39.655-17.754,39.655-39.655v-1.693c0-21.901-17.754-39.655-39.655-39.655h-47.456"
					/>
				<g>
					<path style="fill:#00C4F0;" d="M518.563,265.787c0,1.718-0.042,3.437-0.127,5.141c-2.676,55.073-48.172,98.893-103.921,98.893
						c-57.468,0-104.048-46.58-104.048-104.034c0-21.128,6.296-40.791,17.128-57.2c4.986-7.592,10.959-14.48,17.733-20.494
						c18.381-16.395,42.622-26.354,69.187-26.354c20.536,0,39.692,5.958,55.82,16.226
						C499.337,196.431,518.563,228.856,518.563,265.787z"/>
					<path style="fill:#101439;" d="M400.867,322.002c-1.493,3.099-3.254,6.071-5.282,8.845c-2.859,3.93-6.268,7.55-8.099,12.043
						c-1.831,4.493-1.634,10.296,2.028,13.466c-5.254-0.394-9.296-4.93-11.522-9.719c-2.211-4.775-3.226-10.085-5.704-14.733
						c-5.818-10.831-19.241-17.424-21.269-29.551c-0.873-5.183,0.578-10.648-1-15.663c-1.563-4.944-5.817-8.55-10.212-11.31
						c-4.395-2.761-9.184-5-12.958-8.564c-5.888-5.564-8.62-13.916-8.522-22.015c0.098-8.099,2.775-15.973,6.395-23.212
						c1.38-2.761,2.915-5.508,3.324-8.564c0.197-1.465,0.056-3.042-0.451-4.437c4.986-7.592,10.959-14.48,17.733-20.494
						c0.606,1.535,2.338,2.761,4.071,2.986c2.465,0.324,4.888-0.592,7.339-0.986c2.451-0.394,5.366-0.028,6.719,2.056
						c1.479,2.31,0.197,5.465-1.719,7.437c-1.915,1.972-4.423,3.366-6.042,5.592c-1.62,2.225-1.916,5.859,0.395,7.353
						c2.775,1.803,6.324-1.014,7.902-3.93c1.578-2.916,2.873-6.536,6.029-7.564c3.225-1.056,6.536,1.268,8.972,3.634
						c4.226,4.127,7.859,8.86,10.747,14.015c1.183,2.099,2.268,4.437,1.93,6.831c-0.338,2.381-2.718,4.592-5.028,3.888
						c-3.493-1.07-4.254-7.479-7.86-6.817c-2.324,0.437-2.817,3.592-4.535,5.226c-1.394,1.324-3.465,1.535-5.254,2.197
						c-4.662,1.704-7.451,6.465-9.057,11.155c-1.62,4.69-2.493,9.705-5.085,13.93c-0.563,0.93-1.281,1.845-2.296,2.226
						c-1.014,0.38-2.381-0.028-2.691-1.071c-0.267-0.873,0.296-1.789,0.324-2.718c0.07-2.648-3.662-3.296-6.31-3.014
						c-2.845,0.31-5.803,0.648-8.197,2.211c-2.395,1.549-4.014,4.719-2.859,7.339c1.282,2.915,5,3.662,7.592,5.535
						c3.648,2.634,4.902,7.465,7.676,11.015c7.845,9.986,25.72,7.733,32.452,18.508c1.352,2.169,2.296,4.916,4.62,5.986
						c2.888,1.324,6.183-0.62,9.353-0.62c4.479,0,8.155,4.141,8.944,8.55C404.261,313.452,402.796,317.959,400.867,322.002z"/>
					<path style="fill:#101439;" d="M518.563,265.787c0,1.718-0.042,3.437-0.127,5.141c-2.211-1.155-3.944-3.606-4.69-6.099
						c-1.099-3.704-0.845-7.719-1.986-11.423c-1.141-3.69-4.521-7.268-8.324-6.536c2.888,2,1.789,6.479,0.282,9.648
						c-1.521,3.183-2.958,7.437-0.366,9.803c-2.831,3.155-3.648,7.564-4.944,11.606c-1.507,4.704-3.775,9.113-6.029,13.508
						c-3,5.831-6,11.663-9.001,17.508c-2.183,4.226-4.408,8.522-7.747,11.902c-3.352,3.381-8.057,5.747-12.775,5.141
						c-4.958-11.17-1.761-24.1-2.676-36.284c-0.409-5.423-2.071-11.381-6.775-14.099c-5.902-3.409-13.62-0.141-20.086-2.296
						c-7.451-2.479-10.86-12.015-8.381-19.466c2.465-7.437,9.367-12.705,16.733-15.381c8.733-3.169,18.536-3.282,27.326-0.31
						c2.31,0.775,4.691,1.775,7.099,1.38c2.394-0.409,4.62-2.958,3.62-5.183c-0.578-1.282-1.972-1.972-3.254-2.549
						c-6.015-2.747-12.029-5.479-18.058-8.212c-1.563-0.718-3.24-1.451-4.944-1.197c-2.803,0.394-4.521,3.141-6.395,5.268
						c-2.423,2.747-5.662,4.775-9.198,5.733c-1.423,0.38-3.268,0.451-4.057-0.817c-0.578-0.958-0.225-2.183,0.155-3.24
						c2.352-6.324,5.662-12.282,9.775-17.621c2.521-3.268,5.507-7.339,3.789-11.085c-0.803-1.718-2.493-2.93-3.197-4.704
						c-1.437-3.606,1.746-7.268,4.648-9.86c1.409-1.268,2.888-2.563,4.705-3.155c1.803-0.592,4.057-0.282,5.198,1.226
						c1.113,1.451,0.944,3.563,2,5.042c1.634,2.31,5.493,1.789,7.352-0.338c1.845-2.127,2.183-5.155,2.155-7.986
						c-0.014-0.958-0.042-1.93-0.056-2.887C499.337,196.431,518.563,228.856,518.563,265.787z"/>
					<path style="fill:#101439;" d="M385.764,177.639c2.366-1.156,5.636-1.142,7.214,0.967c0.879,1.176,1.029,2.854,0.371,4.166
						c-0.529,1.055-1.499,1.826-2.095,2.845c-0.715,1.221-0.831,2.775-0.304,4.088c0.614,1.531,2.01,2.675,2.487,4.254
						c0.525,1.742-0.152,3.757,0.693,5.368c0.753,1.436,2.58,2.079,4.175,1.793c1.596-0.286,2.963-1.335,4.018-2.565
						c1.056-1.23,1.857-2.653,2.78-3.986c2.003-2.894,4.599-5.374,7.581-7.244c1.124-0.705,2.4-1.442,2.785-2.712
						c0.198-0.654,0.122-1.355,0.044-2.034c-0.197-1.721-0.395-3.442-0.592-5.162c-0.108-0.945-0.264-1.983-0.983-2.605
						c-0.807-0.698-2.007-0.609-3.027-0.921c-1.594-0.487-2.688-1.935-4.123-2.782c-1.661-0.98-3.676-1.103-5.604-1.121
						c-4.621-0.044-9.247,0.371-13.786,1.237c-2.903,0.554-6.009,1.445-7.757,3.828c-1.167,1.591-1.558,3.644-2.704,5.249
						c-1.007,1.41-2.517,2.368-3.717,3.616c-1.201,1.249-2.116,3.066-1.501,4.685c0.792,2.087,3.596,2.677,4.76,4.582
						c0.476,0.779,0.638,1.723,1.148,2.48c0.774,1.148,2.222,1.664,3.603,1.764c1.381,0.101,2.849-0.174,3.906-1.069
						c1.057-0.895,1.569-2.5,0.939-3.732c-0.89-1.74-3.282-1.887-4.956-2.896c-2.24-1.35-2.802-4.278-1.835-6.57
						C380.228,180.923,383.618,178.687,385.764,177.639z"/>
				</g>
				<rect x="278.047" y="259.797" style="fill:#101439;" width="272.937" height="179.21"/>
				<rect x="278.047" y="259.797" style="fill:#FFFFFF;" width="272.937" height="17.712"/>
				<g>
					<path style="fill:#7A69FF;" d="M546.736,268.653c0,2.765-2.241,5.006-5.006,5.006s-5.006-2.241-5.006-5.006
						c0-2.765,2.241-5.006,5.006-5.006S546.736,265.888,546.736,268.653z"/>
					<path style="fill:#FC5E4E;" d="M530.577,268.653c0,2.765-2.241,5.006-5.006,5.006c-2.765,0-5.006-2.241-5.006-5.006
						c0-2.765,2.241-5.006,5.006-5.006C528.335,263.647,530.577,265.888,530.577,268.653z"/>
					<path style="fill:#FFAC42;" d="M514.417,268.653c0,2.765-2.241,5.006-5.006,5.006c-2.765,0-5.006-2.241-5.006-5.006
						c0-2.765,2.241-5.006,5.006-5.006C512.176,263.647,514.417,265.888,514.417,268.653z"/>
				</g>
				<g>
					<path style="fill:#0E1C3D;" d="M518.807,433.976c-2.872,8.481-5.865,16.924-8.858,25.366l-3.642-7.952
						c4.879,2.654,9.693,5.461,14.507,8.268c2.413,1.39,4.794,2.855,7.193,4.278c2.397,1.427,4.761,2.934,7.143,4.396
						c0.988,0.606,1.296,1.899,0.69,2.886c-0.492,0.801-1.437,1.154-2.303,0.936c-2.71-0.686-5.439-1.328-8.133-2.05
						c-2.693-0.725-5.404-1.409-8.083-2.168c-5.37-1.49-10.74-2.981-16.045-4.624c-3.039-0.941-4.754-4.145-3.865-7.188l0.224-0.764
						c2.515-8.597,5.03-17.193,7.666-25.751c1.154-3.746,5.127-5.848,8.873-4.694c3.746,1.154,5.848,5.127,4.694,8.873
						C518.852,433.841,518.824,433.924,518.807,433.976z"/>
					
						<polyline style="fill:none;stroke:#384B78;stroke-width:0.4169;stroke-linecap:round;stroke-linejoin:round;stroke-miterlimit:10;stroke-dasharray:0.8339;" points="
						512.881,448.297 510.572,454.813 528.454,464.695 					"/>
					<path style="fill:#0E1C3D;" d="M532.605,428.101c4.257,7.228,8.406,14.522,12.554,21.816l0.349,0.615
						c1.665,2.928,0.642,6.652-2.286,8.317c-0.649,0.369-1.36,0.608-2.056,0.722c-6.666,1.062-13.371,1.963-20.076,2.863
						c-3.349,0.464-6.718,0.85-10.076,1.28c-3.359,0.426-6.738,0.767-10.106,1.155c-1.147,0.132-2.184-0.691-2.316-1.838
						c-0.112-0.969,0.461-1.86,1.332-2.193c3.168-1.207,6.325-2.461,9.502-3.63c3.178-1.166,6.346-2.375,9.532-3.505
						c6.367-2.289,12.733-4.578,19.139-6.706l-3.993,9.653c-4.577-7.033-9.155-14.066-13.624-21.165
						c-2.089-3.318-1.092-7.7,2.226-9.789c3.318-2.089,7.7-1.092,9.789,2.226C532.528,427.972,532.575,428.05,532.605,428.101z"/>
					<path style="fill:#0E1C3D;" d="M528.701,439.091h-18.715c-3.178,0-5.73-2.623-5.642-5.8l0.244-8.798h29.51l0.244,8.798
						C534.431,436.468,531.879,439.091,528.701,439.091z"/>
					<path style="fill:#FC5E4E;" d="M534.903,388.69c-8.675-5.228-15.56-4.647-15.56-4.647s-6.885-0.581-15.559,4.647
						c-2.108,1.27-2.877,4.103-1.798,6.407l2.888,6.168l-1.082,27.466l31.127,2.183l-1.101-29.657l2.884-6.16
						C537.779,392.793,537.01,389.96,534.903,388.69z"/>
					<path style="fill:#E37457;" d="M519.525,388.124h-0.362c-2.038,0-3.689-1.652-3.689-3.689v-7.683h7.741v7.683
						C523.214,386.473,521.562,388.124,519.525,388.124z"/>
					<path style="fill:#FF8262;" d="M511.172,395.205l-9.572,20.263l-0.163-2.895l10.812,23.485
						c0.478,1.039,0.024,2.268-1.015,2.746c-0.966,0.445-2.102,0.074-2.641-0.815l-13.311-22.165
						c-0.465-0.774-0.545-1.671-0.297-2.47l0.134-0.425l6.734-21.374c0.832-2.642,3.649-4.108,6.29-3.276
						c2.642,0.832,4.108,3.649,3.276,6.29C511.355,394.78,511.263,395.009,511.172,395.205z"/>
					<path style="fill:#FC5E4E;" d="M501.975,390.733l-4.502,13.314l8.054,3.804l6.286-13.241l1.104-3.435l-1.063-1.718
						l-1.881-1.636l-1.963-0.736l-2.127,0.695C505.883,387.78,502.526,388.41,501.975,390.733z"/>
					<path style="fill:#FF8262;" d="M536.749,391.556l6.735,21.374l0.13,0.413c0.271,0.861,0.134,1.763-0.294,2.482l-13.311,22.165
						c-0.589,0.98-1.86,1.298-2.841,0.709c-0.912-0.547-1.246-1.695-0.815-2.641l10.812-23.485l-0.164,2.895l-9.571-20.263
						c-1.183-2.504-0.112-5.494,2.393-6.677c2.504-1.183,5.494-0.112,6.677,2.392C536.595,391.121,536.683,391.351,536.749,391.556z
						"/>
					<path style="fill:#FC5E4E;" d="M536.628,390.733l4.502,13.314l-8.054,3.804l-6.286-13.241l-1.104-3.435l1.063-1.718
						l1.881-1.636l1.963-0.736l2.127,0.695C532.72,387.78,536.078,388.41,536.628,390.733z"/>
					<g>
						<path style="fill:#666666;" d="M533.916,438.293h-28.517c-0.714,0-1.237,0.727-0.999,1.392l2.492,6.933
							c0.197,0.549,0.703,0.908,1.282,0.908h22.966c0.578,0,1.084-0.359,1.282-0.908l2.492-6.933
							C535.153,439.02,534.63,438.293,533.916,438.293z"/>
						<path style="fill:#666666;" d="M532.323,447.03h-25.19l-2.556-12.779c-0.251-1.257,0.71-2.43,1.992-2.43h26.318
							c1.282,0,2.243,1.173,1.992,2.43L532.323,447.03z"/>
						<path style="fill:#B3B3B3;" d="M531.345,447.526H508.11c-0.518,0-0.964-0.366-1.066-0.874l-2.364-11.818
							c-0.25-1.248,0.705-2.413,1.978-2.413h26.138c1.273,0,2.228,1.165,1.978,2.413l-2.364,11.818
							C532.31,447.16,531.864,447.526,531.345,447.526z"/>
						<path style="fill:#666666;" d="M520.31,440.874c-0.446-1.116,0.006-2.361,1.007-2.957c-0.6-0.309-1.32-0.376-1.996-0.106
							c-1.237,0.494-1.838,1.897-1.344,3.133c0.494,1.236,1.897,1.838,3.133,1.344c0.121-0.048,0.23-0.112,0.338-0.176
							C520.95,441.856,520.535,441.435,520.31,440.874z"/>
					</g>
					<path style="fill:#FF8262;" d="M508.421,457.427c-0.018,0.007-0.037,0.014-0.056,0.021c-2.833,1.097-5.658,2.229-8.477,3.386
						c-0.828,0.341-1.378,1.192-1.292,2.13c0.105,1.154,1.125,2.004,2.279,1.899c3.034-0.275,6.063-0.577,9.083-0.912
						c0.07-0.008,0.14-0.016,0.21-0.023C509.617,461.758,508.389,459.661,508.421,457.427z"/>
					<polygon style="fill:#3468CD;" points="506.86,464.738 502.485,465.44 500.229,471.421 497.818,460.665 505.35,458.325 					
						"/>
					<g>
						<path style="fill:#FF8262;" d="M535.973,468.625c-2.299-1.412-4.68-2.751-7.001-4.109c-0.931,2.076-1.495,3.826-2.403,5.895
							c2.622,0.648,5.2,1.465,7.844,2.058c0.852,0.19,1.77-0.166,2.252-0.951C537.272,470.528,536.963,469.233,535.973,468.625z"/>
						<polygon style="fill:#3468CD;" points="528.958,471.721 533.249,472.827 534.938,478.993 538.341,468.508 531.059,465.476 
													"/>
					</g>
					<path style="fill:#FF8262;" d="M519.315,365.226c0,0-8.301-0.335-6.367,10.998c0,0,1.532,7.8,6.367,7.8
						c4.835,0,6.367-7.8,6.367-7.8C527.616,364.891,519.315,365.226,519.315,365.226z"/>
					<g>
						
							<line style="fill:none;stroke:#913F36;stroke-width:0.4169;stroke-miterlimit:10;" x1="505.937" y1="406.168" x2="509.273" y2="398.276"/>
						<path style="fill:none;stroke:#913F36;stroke-width:0.4169;stroke-miterlimit:10;" d="M507.861,387.906
							c0.891,0.189,1.703,0.728,2.222,1.477c0.519,0.748,0.74,1.698,0.604,2.598"/>
						
							<line style="fill:none;stroke:#913F36;stroke-width:0.4169;stroke-miterlimit:10;" x1="532.289" y1="406.168" x2="528.954" y2="398.276"/>
						<path style="fill:none;stroke:#913F36;stroke-width:0.4169;stroke-miterlimit:10;" d="M530.365,387.906
							c-0.891,0.189-1.703,0.728-2.222,1.477c-0.519,0.748-0.74,1.698-0.604,2.598"/>
						<path style="fill:none;stroke:#913F36;stroke-width:0.4169;stroke-miterlimit:10;" d="M512.254,425.601
							c4.229-5.265,6.459-12.096,6.153-18.842"/>
						<path style="fill:none;stroke:#913F36;stroke-width:0.4169;stroke-miterlimit:10;" d="M522.012,426.207
							c-1.386-2.087-2.138-4.589-2.133-7.095"/>
						<path style="fill:none;stroke:#913F36;stroke-width:0.4258;stroke-miterlimit:10;" d="M514.63,386.018
							c0.899,1.871,2.867,3.127,4.874,3.108c2.007-0.018,3.953-1.31,4.82-3.198"/>
					</g>
					<path style="fill:none;stroke:#384B78;stroke-width:0.4258;stroke-miterlimit:10;" d="M541.437,458.442
						c1.321-0.457,2.562-1.276,3.278-2.477c0.716-1.201,0.819-2.813,0.041-3.974"/>
					
						<polyline style="fill:none;stroke:#384B78;stroke-width:0.4169;stroke-linecap:round;stroke-linejoin:round;stroke-miterlimit:10;stroke-dasharray:0.8339;" points="
						510.572,457.987 531.377,450.148 530.3,448.297 					"/>
					<path style="fill:none;stroke:#384B78;stroke-width:0.4258;stroke-miterlimit:10;" d="M498.48,455.369
						c-0.377,1.002-0.427,2.124-0.14,3.155c0.092,0.332,0.22,0.655,0.378,0.961"/>
					<path style="fill:#FFAC42;" d="M525.93,375.75c-1.318-1.124-1.623-3.489-1.667-5.221c-1.226,0.723-3.243,1.169-4.694,1.271
						c-1.42,0.1-4.003-0.513-5.118-1.399c-0.048,1.878-0.128,3.758-1.985,4.615c-0.779-2.725-0.021-5.972,1.944-8.015
						c0.651-0.677,1.429-1.245,2.311-1.566c0.908-0.331,1.892-0.39,2.858-0.382c1.219,0.01,2.488,0.138,3.527,0.776
						c0.896,0.55,1.54,1.433,2.03,2.363C526.394,370.579,526.65,373.15,525.93,375.75z"/>
					<g>
						<path style="fill:#FF8262;" d="M524.893,378.338c0.16,0.27,0.552,0.329,0.834,0.191c0.281-0.138,0.464-0.423,0.577-0.715
							c0.113-0.292,0.171-0.604,0.285-0.896c0.178-0.456,0.49-0.86,0.604-1.336c0.102-0.428,0.024-0.904-0.244-1.253
							c-0.267-0.349-0.73-0.551-1.162-0.471c-0.432,0.081-0.802,0.461-0.833,0.9L524.893,378.338z"/>
					</g>
					<g>
						<path style="fill:#FF8262;" d="M513.736,378.338c-0.16,0.27-0.552,0.329-0.834,0.191c-0.281-0.138-0.464-0.423-0.577-0.715
							c-0.113-0.292-0.171-0.604-0.285-0.896c-0.178-0.456-0.49-0.86-0.604-1.336c-0.102-0.428-0.024-0.904,0.243-1.253
							c0.267-0.349,0.729-0.551,1.162-0.471c0.432,0.081,0.802,0.461,0.833,0.9L513.736,378.338z"/>
					</g>
				</g>
				<g>
					<g>
						<path style="fill:#00C4F0;" d="M351.505,359.234c-1.317,0-2.652-0.336-3.874-1.043c-3.706-2.143-4.972-6.885-2.828-10.589
							c14.578-25.202,41.704-40.858,70.79-40.858c29.086,0,56.21,15.654,70.79,40.857c2.144,3.704,0.878,8.445-2.828,10.589
							c-3.705,2.144-8.447,0.879-10.589-2.828c-11.818-20.427-33.803-33.117-57.373-33.117c-23.571,0-45.555,12.69-57.373,33.119
							C356.784,357.845,354.18,359.234,351.505,359.234z"/>
					</g>
					<g>
						<path style="fill:#00C4F0;" d="M374.754,374.134c-1.068,0-2.151-0.272-3.142-0.845c-3.005-1.739-4.032-5.584-2.294-8.588
							c9.531-16.475,27.262-26.708,46.274-26.708c19.011,0,36.742,10.233,46.272,26.706c1.739,3.004,0.713,6.849-2.293,8.587
							c-3.007,1.738-6.85,0.713-8.587-2.293c-7.292-12.602-20.852-20.431-35.392-20.431c-14.54,0-28.103,7.83-35.392,20.432
							C379.035,373.009,376.924,374.134,374.754,374.134z"/>
					</g>
					<g>
						<path style="fill:#00C4F0;" d="M436.12,382.837c-1.216,0-2.399-0.63-3.052-1.759c-3.6-6.223-10.296-10.088-17.475-10.088
							c-7.179,0-13.876,3.865-17.477,10.088c-0.976,1.686-3.131,2.257-4.814,1.285c-1.684-0.974-2.26-3.129-1.285-4.814
							c4.856-8.393,13.889-13.605,23.575-13.605c9.685,0,18.718,5.213,23.574,13.605c0.974,1.684,0.399,3.84-1.285,4.814
							C437.326,382.684,436.719,382.837,436.12,382.837z"/>
					</g>
					<g>
						<circle style="fill:#00C4F0;" cx="415.593" cy="391.976" r="10.203"/>
					</g>
				</g>
				<g>
					<path style="fill:#0E1C3D;" d="M145.353,311.691c-1.734-3.406-2.178-6.964-1.212-10.279c0.826-2.832,1.163-6.136,1.132-9.085
						c-0.01-0.919-0.393-1.623-1-2.313c-0.436-0.496-1.05-0.796-1.66-1.05c-1.718-0.714-3.546-1.165-5.399-1.331
						c-2.325-0.208-4.736-0.103-6.724-1.325c-1.679,2.64-2.015,5.846-1.756,8.847c0.171,1.976,0.69,3.945,0.472,5.916
						c-0.182,1.645-0.868,3.194-1.156,4.824c-0.387,2.193-0.021,4.512,1.022,6.479c3.795-0.417,7.692-0.633,11.509-0.54
						C141.381,311.852,144.553,311.718,145.353,311.691z"/>
					<path style="fill:#FF8262;" d="M150.196,311.457l10.429,14.186l-2.923-1.14l18.73-0.656c1.116-0.039,2.052,0.834,2.091,1.949
						c0.036,1.015-0.684,1.881-1.654,2.059l-18.431,3.396c-0.948,0.175-1.874-0.134-2.522-0.752l-0.402-0.388l-12.666-12.231
						c-1.946-1.879-2-4.979-0.121-6.925c1.879-1.946,4.979-2,6.925-0.121C149.847,311.023,150.038,311.246,150.196,311.457z"/>
					<path style="fill:#FFAC42;" d="M150.9,311.983l8.875,12.167h9.557l0.6,5.554l-10.781,1.672
						c-1.34,0.208-2.699-0.228-3.668-1.176l-8.385-8.201l0.468-10.408L150.9,311.983z"/>
					<path style="fill:#FF8262;" d="M152.025,355.419c0.448,3.175,0.88,6.353,1.246,9.542c0.367,3.189,0.775,6.371,1.084,9.57
						l0.987,9.588l0.882,9.605l0.069,0.546c0.025,6.772,0.037,13.546-0.021,20.324c-0.026,3.389-0.019,6.776-0.084,10.168
						l-0.151,10.173c-0.02,1.342-1.124,2.415-2.467,2.395c-1.188-0.018-2.165-0.886-2.359-2.016l-1.735-10.025
						c-0.593-3.341-1.114-6.687-1.668-10.031c-1.114-6.687-2.158-13.379-3.189-20.073l0.069,0.545l-2.412-9.339l-2.308-9.357
						c-0.789-3.116-1.48-6.249-2.211-9.375c-0.732-3.126-1.399-6.262-2.049-9.403c-0.928-4.481,1.953-8.866,6.434-9.794
						c4.481-0.928,8.866,1.953,9.794,6.434C151.969,355.064,152.001,355.253,152.025,355.419z"/>
					<path style="fill:#FF8262;" d="M137.115,355.093c-0.181,3.238-0.392,6.475-0.645,9.71c-0.268,3.235-0.484,6.472-0.794,9.706
						c-0.588,6.469-1.19,12.938-1.883,19.405l-0.102,0.957c-0.027,0.255-0.096,0.509-0.189,0.735l-3.809,9.122l-3.869,9.103
						c-1.306,3.029-2.573,6.071-3.912,9.089l-3.986,9.065c-0.541,1.23-1.976,1.788-3.206,1.248c-1.077-0.473-1.638-1.633-1.399-2.74
						l2.089-9.68c0.685-3.23,1.444-6.436,2.162-9.656l2.207-9.642l2.265-9.622l-0.291,1.692c-0.339-6.494-0.586-12.987-0.82-19.478
						c-0.134-3.246-0.172-6.49-0.263-9.735c-0.076-3.245-0.11-6.488-0.113-9.731c-0.005-4.576,3.701-8.289,8.276-8.294
						c4.576-0.005,8.289,3.701,8.294,8.276C137.128,354.772,137.123,354.947,137.115,355.093z"/>
					<path style="fill:#FFAC42;" d="M141.386,312.562c0,0,0.387-2.29,2.924-3.011c2.537-0.721,4.066,0.074,4.066,0.074
						s1.342,0.478,2.524,2.358l-7.243,6.957l-2.412-2.549l-0.125-2.162L141.386,312.562z"/>
					<path style="fill:#0E1C3D;" d="M156.756,394.44c-0.538-11.176-4.292-37.091-4.844-40.865c-0.015-0.11-0.03-0.219-0.048-0.328
						c-0.013-0.089-0.022-0.151-0.022-0.151l-0.009,0c-0.131-0.736-0.313-1.462-0.573-2.157c-1.271-3.403-2.325-5.992-3.926-8.727
						h-22.091c-1.721,2.675-3.099,5.612-4.01,8.727c-0.299,1.02-0.538,2.066-0.675,3.125l-0.013,0.001
						c-1.961,6.71,0.865,39.092,0.865,39.092l-7.187,31.974l6.05,2.27l13.107-30.358c0.498-1.153,0.805-2.378,0.91-3.63
						l2.532-30.056l7.637,33.105l5.584,33.209l6.248-0.507l0.477-33.991C156.771,394.926,156.768,394.687,156.756,394.44z"/>
					<path style="fill:#FFAC42;" d="M128.402,327.587c-0.233-3.049-0.347-6.146-1.153-9.096c-0.904-3.309-2.737-5.73-1.302-8.4
						c1.435-2.67,6.297-4.919,9.915-5.185l3.606,0.435c0,0,6.875,2.941,10.099,5.842c0.421,0.379,0.734,0.864,0.916,1.402
						c0.292,0.865,0.605,2.326,0.384,4.183c0.185,1.076,0.334,2.159,0.441,3.246c0.11,1.122,0.178,2.263-0.03,3.372
						c-0.208,1.109-0.716,2.195-1.589,2.909c-0.406,0.332-0.899,0.565-1.412,0.677c-1.052,4.638-1.152,11.607-0.381,16.22
						l-5.238,1.613c-2.077,0.64-4.238,0.965-6.411,0.965l0,0c-2.174,0-4.335-0.326-6.413-0.965l-5.234-1.612
						C126.4,338.744,128.768,332.395,128.402,327.587z"/>
					<path style="fill:#E37457;" d="M132.689,305.58c0.199,0.272,1.92,2.546,5.272,3.669c1.114-0.607,1.875-1.794,1.875-3.161
						l0.716-9.203h-7.193L132.689,305.58z"/>
					<path style="fill:#FF8262;" d="M137.971,283.782c0,0,9.112-0.004,6.497,12.332c0,0-2.02,8.482-7.319,8.271
						c-5.299-0.211-6.637-8.827-6.637-8.827C128.888,283.053,137.971,283.782,137.971,283.782z"/>
					<polygon style="fill:#0E1C3D;" points="156.583,431.721 156.422,436.254 160.596,439.007 150.645,439.007 149.928,432.013 
											"/>
					<polygon style="fill:#0E1C3D;" points="119.368,430.612 117.511,434.575 120.273,438.744 111.117,434.845 113.19,428.001 					
						"/>
					<path style="fill:none;stroke:#384B78;stroke-width:0.4626;stroke-miterlimit:10;" d="M149.263,349.591
						c-1.893-0.688-3.488-2.156-4.33-3.985"/>
					<path style="fill:none;stroke:#384B78;stroke-width:0.4626;stroke-miterlimit:10;" d="M127.914,345.869
						c-0.71,1.694-2.478,2.889-4.315,2.916"/>
					<g>
						<path style="fill:none;stroke:#384B78;stroke-width:0.4623;stroke-linecap:round;stroke-miterlimit:10;" d="M134.977,357.652
							c0.311-3.209,0.471-6.434,0.479-9.658"/>
						<path style="fill:none;stroke:#384B78;stroke-width:0.4623;stroke-linecap:round;stroke-miterlimit:10;" d="M137.853,348.325
							c0.15,1.216,0.142,2.301,0.183,3.453c0.041,1.153-0.076,2.355-0.664,3.347c-0.228,0.384-0.532,0.736-0.93,0.939
							c-0.398,0.203-0.898,0.236-1.284,0.011"/>
					</g>
					
						<polyline style="fill:none;stroke:#384B78;stroke-width:0.4529;stroke-linecap:round;stroke-linejoin:round;stroke-miterlimit:10;stroke-dasharray:0.9059;" points="
						137.584,362.531 145.389,395.982 150.718,428.752 					"/>
					
						<polyline style="fill:none;stroke:#384B78;stroke-width:0.4529;stroke-linecap:round;stroke-linejoin:round;stroke-miterlimit:10;stroke-dasharray:0.9059;" points="
						136.365,362.531 132.93,394.827 120.273,425.975 					"/>
					<path style="fill:none;stroke:#C28332;stroke-width:0.4529;stroke-miterlimit:10;" d="M129.087,332.126
						c0.395-2.108,0.499-4.269,0.317-6.405"/>
					<g>
						<path style="fill:#23385C;" d="M156.335,342.15v8.972c0,3.449,2.798,6.247,6.247,6.247h7.646c0.589,0,1.117,0.368,1.338,0.92
							c0.037,0.074,0.074,0.16,0.111,0.245c0.221,0.54,0.11,1.178-0.307,1.596l-5.4,5.4c-2.442,2.442-2.442,6.407,0,8.849
							l6.345,6.345c2.442,2.442,6.394,2.442,8.837,0l5.413-5.4c0.417-0.43,1.043-0.54,1.596-0.307
							c0.086,0.037,0.16,0.074,0.245,0.11c0.552,0.221,0.921,0.749,0.921,1.338v7.634c0,3.461,2.798,6.259,6.247,6.259h8.972
							c3.461,0,6.259-2.798,6.259-6.259v-7.634c0-0.589,0.356-1.117,0.908-1.338c0.086-0.037,0.16-0.074,0.246-0.11
							c0.552-0.233,1.178-0.123,1.608,0.307l5.4,5.4c2.442,2.442,6.394,2.442,8.837,0l6.345-6.345c2.442-2.443,2.442-6.407,0-8.849
							l-5.4-5.4c-0.417-0.417-0.528-1.055-0.295-1.596c0.025-0.086,0.061-0.172,0.098-0.245c0.221-0.552,0.748-0.92,1.338-0.92
							h7.646c3.449,0,6.247-2.798,6.247-6.247v-8.972c0-3.461-2.798-6.259-6.247-6.259h-7.646c-0.589,0-1.117-0.368-1.338-0.908
							c-0.037-0.086-0.074-0.172-0.098-0.245c-0.233-0.552-0.123-1.178,0.295-1.608l5.4-5.4c2.442-2.442,2.442-6.394,0-8.837
							l-6.345-6.345c-2.442-2.442-6.394-2.442-8.837,0l-5.4,5.4c-0.43,0.417-1.056,0.528-1.608,0.294
							c-0.086-0.037-0.16-0.061-0.246-0.098c-0.552-0.233-0.908-0.749-0.908-1.338v-7.646c0-3.449-2.798-6.247-6.259-6.247h-8.972
							c-3.449,0-6.247,2.798-6.247,6.247v7.646c0,0.589-0.368,1.105-0.921,1.338c-0.086,0.037-0.16,0.061-0.245,0.098
							c-0.552,0.233-1.178,0.123-1.596-0.294l-5.413-5.4c-2.442-2.442-6.394-2.442-8.837,0l-6.345,6.345
							c-2.442,2.442-2.442,6.394,0,8.837l5.4,5.4c0.417,0.43,0.528,1.056,0.307,1.608c-0.037,0.074-0.074,0.16-0.111,0.245
							c-0.221,0.54-0.748,0.908-1.338,0.908h-7.646C159.134,335.89,156.335,338.689,156.335,342.15z M179.495,346.629
							c0-11.353,9.205-20.558,20.57-20.558c11.353,0,20.558,9.205,20.558,20.558c0,11.365-9.205,20.57-20.558,20.57
							C188.7,367.199,179.495,357.995,179.495,346.629z"/>
						
							<ellipse transform="matrix(0.386 -0.9225 0.9225 0.386 -196.9296 397.4088)" style="fill:#23385C;" cx="200.059" cy="346.633" rx="13.912" ry="13.912"/>
					</g>
					<g>
						<path style="fill:#23385C;" d="M208.31,406.252v6.096c0,2.343,1.901,4.244,4.244,4.244h5.195c0.4,0,0.759,0.25,0.909,0.625
							c0.025,0.05,0.05,0.108,0.075,0.167c0.15,0.367,0.075,0.801-0.208,1.084l-3.669,3.669c-1.659,1.659-1.659,4.353,0,6.012
							l4.311,4.311c1.659,1.659,4.344,1.659,6.004,0l3.677-3.669c0.284-0.292,0.709-0.367,1.084-0.208
							c0.058,0.025,0.108,0.05,0.167,0.075c0.375,0.15,0.625,0.509,0.625,0.909v5.187c0,2.352,1.901,4.253,4.244,4.253h6.096
							c2.352,0,4.253-1.901,4.253-4.253v-5.187c0-0.4,0.242-0.759,0.617-0.909c0.058-0.025,0.108-0.05,0.167-0.075
							c0.375-0.158,0.8-0.083,1.092,0.208l3.669,3.669c1.659,1.659,4.344,1.659,6.004,0l4.311-4.311
							c1.659-1.659,1.659-4.353,0-6.012l-3.669-3.669c-0.283-0.283-0.358-0.717-0.2-1.084c0.017-0.058,0.042-0.117,0.067-0.167
							c0.15-0.375,0.509-0.625,0.909-0.625h5.195c2.343,0,4.244-1.901,4.244-4.244v-6.096c0-2.352-1.901-4.253-4.244-4.253h-5.195
							c-0.4,0-0.759-0.25-0.909-0.617c-0.025-0.058-0.05-0.117-0.067-0.167c-0.158-0.375-0.083-0.801,0.2-1.092l3.669-3.669
							c1.659-1.659,1.659-4.344,0-6.004l-4.311-4.311c-1.659-1.659-4.344-1.659-6.004,0l-3.669,3.669
							c-0.292,0.284-0.717,0.359-1.092,0.2c-0.059-0.025-0.108-0.042-0.167-0.067c-0.375-0.158-0.617-0.509-0.617-0.909v-5.195
							c0-2.343-1.901-4.245-4.253-4.245h-6.096c-2.343,0-4.244,1.901-4.244,4.245v5.195c0,0.4-0.25,0.751-0.625,0.909
							c-0.059,0.025-0.109,0.042-0.167,0.067c-0.375,0.159-0.801,0.083-1.084-0.2l-3.677-3.669c-1.659-1.659-4.345-1.659-6.004,0
							l-4.311,4.311c-1.659,1.659-1.659,4.345,0,6.004l3.669,3.669c0.283,0.292,0.359,0.717,0.208,1.092
							c-0.025,0.05-0.05,0.108-0.075,0.167c-0.15,0.367-0.509,0.617-0.909,0.617h-5.195
							C210.211,401.999,208.31,403.901,208.31,406.252z M224.045,409.296c0-7.713,6.254-13.967,13.976-13.967
							c7.713,0,13.967,6.254,13.967,13.967c0,7.722-6.254,13.976-13.967,13.976C230.299,423.271,224.045,417.017,224.045,409.296z"
							/>
						<path style="fill:#23385C;" d="M228.564,408.471c0,5.22,4.232,9.452,9.452,9.452c5.22,0,9.452-4.232,9.452-9.452
							c0-5.22-4.232-9.452-9.452-9.452C232.796,399.019,228.564,403.251,228.564,408.471z"/>
					</g>
					<g>
						<path style="fill:#23385C;" d="M240.866,363.444v3.614c0,1.389,1.127,2.516,2.516,2.516h3.08c0.237,0,0.45,0.148,0.539,0.371
							c0.015,0.03,0.03,0.064,0.044,0.099c0.089,0.217,0.044,0.475-0.124,0.643l-2.175,2.175c-0.984,0.984-0.984,2.581,0,3.565
							l2.556,2.556c0.984,0.984,2.576,0.984,3.56,0l2.18-2.175c0.168-0.173,0.42-0.218,0.643-0.124
							c0.035,0.015,0.064,0.03,0.099,0.044c0.223,0.089,0.371,0.302,0.371,0.539v3.075c0,1.394,1.127,2.521,2.516,2.521h3.614
							c1.394,0,2.521-1.127,2.521-2.521v-3.075c0-0.237,0.143-0.45,0.366-0.539c0.035-0.015,0.064-0.03,0.099-0.044
							c0.222-0.094,0.474-0.049,0.648,0.124l2.175,2.175c0.984,0.984,2.576,0.984,3.559,0l2.556-2.556
							c0.984-0.984,0.984-2.581,0-3.565l-2.175-2.175c-0.168-0.168-0.213-0.425-0.119-0.643c0.01-0.035,0.025-0.069,0.04-0.099
							c0.089-0.223,0.302-0.371,0.539-0.371h3.08c1.389,0,2.516-1.127,2.516-2.516v-3.614c0-1.394-1.127-2.521-2.516-2.521h-3.08
							c-0.237,0-0.45-0.148-0.539-0.366c-0.015-0.035-0.03-0.069-0.04-0.099c-0.094-0.222-0.049-0.475,0.119-0.648l2.175-2.175
							c0.984-0.984,0.984-2.576,0-3.56l-2.556-2.556c-0.984-0.984-2.576-0.984-3.559,0l-2.175,2.175
							c-0.173,0.168-0.425,0.212-0.648,0.119c-0.035-0.015-0.064-0.025-0.099-0.04c-0.222-0.094-0.366-0.301-0.366-0.539v-3.08
							c0-1.389-1.127-2.516-2.521-2.516h-3.614c-1.389,0-2.516,1.127-2.516,2.516v3.08c0,0.237-0.148,0.445-0.371,0.539
							c-0.035,0.015-0.064,0.025-0.099,0.04c-0.222,0.094-0.475,0.049-0.643-0.119l-2.18-2.175c-0.984-0.984-2.576-0.984-3.56,0
							l-2.556,2.556c-0.984,0.984-0.984,2.576,0,3.56l2.175,2.175c0.168,0.173,0.213,0.425,0.124,0.648
							c-0.015,0.03-0.03,0.064-0.044,0.099c-0.089,0.217-0.302,0.366-0.539,0.366h-3.08
							C241.993,360.922,240.866,362.049,240.866,363.444z M250.195,365.248c0-4.573,3.708-8.281,8.286-8.281
							c4.573,0,8.281,3.708,8.281,8.281c0,4.578-3.708,8.286-8.281,8.286C253.903,373.534,250.195,369.826,250.195,365.248z"/>
						<path style="fill:#23385C;" d="M252.874,365.25c0,3.095,2.509,5.604,5.604,5.604c3.095,0,5.604-2.509,5.604-5.604
							c0-3.095-2.509-5.604-5.604-5.604C255.383,359.645,252.874,362.154,252.874,365.25z"/>
					</g>
					<path style="fill:none;stroke:#C28332;stroke-width:0.4529;stroke-miterlimit:10;" d="M135.107,310.784
						c-0.463-1.374-1.607-2.498-2.989-2.937"/>
					<path style="fill:#FF8262;" d="M134.393,310.419l8.057,15.038l-0.926-0.945l19.788,15.186c0.885,0.679,1.051,1.946,0.373,2.831
						c-0.631,0.822-1.779,1.019-2.647,0.498l-21.342-12.91c-0.236-0.142-0.436-0.322-0.597-0.525l-0.329-0.42l-10.544-13.412
						c-1.672-2.127-1.303-5.206,0.823-6.878c2.127-1.672,5.206-1.303,6.878,0.823C134.1,309.926,134.263,310.181,134.393,310.419z"
						/>
					<path style="fill:#FFAC42;" d="M129.619,307.565c-0.131-0.007-0.261-0.008-0.391-0.001c-0.853,0.046-1.679,0.415-2.322,0.971
						c-0.93,0.806-1.557,2.022-1.818,3.215c-0.402,1.837,0.293,3.522,1.543,4.86l8.575-5.227l-0.708-1.142
						c-0.737-1.189-1.87-2.079-3.2-2.514c-0.289-0.029-0.577-0.058-0.866-0.087C130.165,307.615,129.892,307.579,129.619,307.565z"
						/>
					<path style="fill:#FF8262;" d="M164.607,338.073c0.007,0.491-2.349,1.218-2.349,1.218s1.192,0.5,2.698,0.582
						c1.506,0.082,3.059,0.349,3.016,0.786c-0.038,0.389-2.915,0.322-2.915,0.322s3.302,0.747,3.248,1.181
						c-0.048,0.388-3.671,0.111-3.671,0.111s3.522,0.89,3.304,1.446c-0.182,0.464-4.207-0.338-3.748-0.132
						c0.459,0.206,1.899,0.678,1.764,1.02c-0.086,0.217-1.785-0.136-1.785-0.136s-3.843-0.851-4.581-1.162
						c-0.803-0.338-1.267-0.775-1.267-0.775l0.233-2.94c0.56-0.558,1.147-0.83,2.216-1.349
						C161.841,337.724,164.6,337.582,164.607,338.073z"/>
					<path style="fill:none;stroke:#C28332;stroke-width:0.4529;stroke-miterlimit:10;" d="M145.397,326.568
						c0,0,1.252,0.429,2.539,0.403"/>
					<polygon style="fill:#FFAC42;" points="125.938,315.748 137.096,330.054 154.096,340.112 156.769,336.171 142.237,324.8 
						135.207,311.384 					"/>
					<polyline style="fill:none;stroke:#C28332;stroke-width:0.4529;stroke-miterlimit:10;" points="132.689,324.405 
						137.096,330.054 143.981,334.128 					"/>
					<polyline style="fill:none;stroke:#C28332;stroke-width:0.4529;stroke-miterlimit:10;" points="140.389,321.273 142.237,324.8 
						144.2,326.336 					"/>
					<path style="fill:#0E1C3D;" d="M130.512,295.558c3.128-0.313,3.464-3.872,4.376-5.66c1.628,0.446,3.315,0.68,5.004,0.694
						c0.988,0.008,2.03-0.047,2.905,0.411c1.301,0.681,1.82,2.268,2.015,3.723c0.844-2.573,0.581-5.423-0.835-7.73
						c-1.417-2.307-3.974-3.906-6.678-4.051c-2.704-0.146-5.466,1.215-6.903,3.509C128.958,288.749,128.974,293.33,130.512,295.558z
						"/>
					<g>
						<path style="fill:#FF8262;" d="M131.598,297.007c-0.187,0.289-0.62,0.337-0.922,0.173c-0.302-0.164-0.49-0.484-0.601-0.809
							c-0.111-0.325-0.161-0.669-0.273-0.994c-0.175-0.508-0.5-0.964-0.603-1.491c-0.093-0.473,0.014-0.991,0.322-1.363
							c0.308-0.371,0.824-0.572,1.294-0.465c0.47,0.107,0.859,0.54,0.874,1.022L131.598,297.007z"/>
					</g>
				</g>
				<g>
					<path style="fill:#FF8262;" d="M631.627,318.994l-17.829-9.26l-0.344-0.179c-0.317-0.165-0.585-0.403-0.783-0.673
						l-12.251-16.806c-0.589-0.807-0.411-1.939,0.396-2.528c0.749-0.546,1.776-0.433,2.391,0.23l14.157,15.235l-1.127-0.851
						l18.897,6.822c2.276,0.822,3.455,3.332,2.633,5.608c-0.822,2.276-3.333,3.455-5.608,2.633
						C631.982,319.163,631.79,319.077,631.627,318.994z"/>
					<g>
						<path style="fill:#23385C;" d="M552.233,414.727v4.518c0,1.737,1.409,3.146,3.146,3.146h3.851
							c0.297,0,0.562,0.185,0.674,0.464c0.019,0.037,0.037,0.08,0.056,0.124c0.111,0.272,0.055,0.594-0.155,0.804l-2.72,2.72
							c-1.23,1.23-1.23,3.227,0,4.457l3.196,3.195c1.23,1.23,3.22,1.23,4.451,0l2.726-2.72c0.21-0.216,0.525-0.272,0.803-0.155
							c0.043,0.019,0.08,0.037,0.124,0.056c0.278,0.111,0.464,0.377,0.464,0.674v3.845c0,1.743,1.409,3.152,3.146,3.152h4.519
							c1.743,0,3.152-1.409,3.152-3.152v-3.845c0-0.297,0.179-0.563,0.457-0.674c0.043-0.019,0.08-0.037,0.124-0.056
							c0.278-0.117,0.593-0.062,0.81,0.155l2.72,2.72c1.23,1.23,3.22,1.23,4.451,0l3.196-3.195c1.23-1.23,1.23-3.227,0-4.457
							l-2.72-2.72c-0.21-0.21-0.266-0.532-0.148-0.804c0.012-0.043,0.031-0.087,0.049-0.124c0.111-0.278,0.377-0.464,0.674-0.464
							h3.851c1.737,0,3.146-1.409,3.146-3.146v-4.518c0-1.743-1.409-3.153-3.146-3.153h-3.851c-0.297,0-0.563-0.185-0.674-0.457
							c-0.019-0.043-0.037-0.086-0.049-0.124c-0.118-0.278-0.062-0.593,0.148-0.81l2.72-2.72c1.23-1.23,1.23-3.221,0-4.451
							l-3.196-3.196c-1.23-1.23-3.22-1.23-4.451,0l-2.72,2.72c-0.216,0.21-0.532,0.266-0.81,0.148
							c-0.043-0.019-0.08-0.031-0.124-0.049c-0.278-0.117-0.457-0.377-0.457-0.674v-3.851c0-1.737-1.409-3.146-3.152-3.146h-4.519
							c-1.737,0-3.146,1.409-3.146,3.146v3.851c0,0.297-0.186,0.556-0.464,0.674c-0.043,0.018-0.08,0.031-0.124,0.049
							c-0.278,0.117-0.593,0.062-0.803-0.148l-2.726-2.72c-1.23-1.23-3.22-1.23-4.451,0l-3.196,3.196c-1.23,1.23-1.23,3.22,0,4.451
							l2.72,2.72c0.21,0.216,0.266,0.532,0.155,0.81c-0.019,0.037-0.037,0.08-0.056,0.124c-0.111,0.272-0.377,0.457-0.674,0.457
							h-3.851C553.642,411.574,552.233,412.984,552.233,414.727z M563.897,416.983c0-5.718,4.636-10.354,10.36-10.354
							c5.718,0,10.354,4.636,10.354,10.354c0,5.724-4.636,10.36-10.354,10.36C568.533,427.343,563.897,422.707,563.897,416.983z"/>
						<path style="fill:#23385C;" d="M567.247,416.985c0,3.87,3.137,7.007,7.007,7.007c3.87,0,7.007-3.137,7.007-7.007
							c0-3.87-3.137-7.007-7.007-7.007C570.384,409.978,567.247,413.115,567.247,416.985z"/>
					</g>
					<g>
						<path style="fill:#23385C;" d="M565.91,296.968v4.906c0,1.886,1.53,3.416,3.416,3.416h4.181c0.322,0,0.611,0.201,0.731,0.503
							c0.02,0.04,0.04,0.087,0.06,0.134c0.121,0.295,0.06,0.644-0.168,0.872l-2.953,2.953c-1.336,1.336-1.336,3.503,0,4.839
							l3.47,3.47c1.335,1.336,3.496,1.336,4.832,0l2.96-2.953c0.228-0.235,0.57-0.295,0.872-0.168c0.047,0.02,0.087,0.04,0.134,0.06
							c0.302,0.121,0.503,0.409,0.503,0.732v4.174c0,1.893,1.53,3.423,3.416,3.423h4.906c1.893,0,3.423-1.53,3.423-3.423v-4.174
							c0-0.322,0.195-0.611,0.497-0.732c0.047-0.02,0.087-0.04,0.134-0.06c0.302-0.128,0.644-0.067,0.879,0.168l2.953,2.953
							c1.336,1.336,3.497,1.336,4.832,0l3.47-3.47c1.336-1.336,1.336-3.503,0-4.839l-2.953-2.953
							c-0.228-0.228-0.289-0.577-0.161-0.872c0.013-0.047,0.034-0.094,0.054-0.134c0.121-0.302,0.409-0.503,0.732-0.503h4.181
							c1.886,0,3.416-1.53,3.416-3.416v-4.906c0-1.893-1.53-3.423-3.416-3.423h-4.181c-0.322,0-0.611-0.201-0.732-0.497
							c-0.02-0.047-0.04-0.094-0.054-0.134c-0.128-0.302-0.067-0.644,0.161-0.879l2.953-2.953c1.336-1.336,1.336-3.497,0-4.832
							l-3.47-3.47c-1.336-1.335-3.497-1.335-4.832,0l-2.953,2.953c-0.235,0.228-0.577,0.289-0.879,0.161
							c-0.047-0.02-0.087-0.034-0.134-0.054c-0.302-0.128-0.497-0.409-0.497-0.731v-4.181c0-1.886-1.53-3.416-3.423-3.416h-4.906
							c-1.886,0-3.416,1.53-3.416,3.416v4.181c0,0.322-0.201,0.604-0.503,0.731c-0.047,0.02-0.087,0.034-0.134,0.054
							c-0.302,0.127-0.644,0.067-0.872-0.161l-2.96-2.953c-1.335-1.335-3.496-1.335-4.832,0l-3.47,3.47
							c-1.336,1.335-1.336,3.497,0,4.832l2.953,2.953c0.228,0.235,0.289,0.577,0.168,0.879c-0.02,0.04-0.04,0.087-0.06,0.134
							c-0.121,0.295-0.409,0.497-0.731,0.497h-4.181C567.44,293.545,565.91,295.075,565.91,296.968z M578.574,299.418
							c0-6.208,5.033-11.241,11.248-11.241c6.208,0,11.241,5.033,11.241,11.241c0,6.214-5.033,11.248-11.241,11.248
							C583.608,310.665,578.574,305.632,578.574,299.418z"/>
						<path style="fill:#23385C;" d="M582.212,299.42c0,4.201,3.406,7.607,7.608,7.607c4.201,0,7.607-3.406,7.607-7.607
							c0-4.202-3.406-7.608-7.607-7.608C585.618,291.812,582.212,295.218,582.212,299.42z"/>
					</g>
					<g>
						<path style="fill:#23385C;" d="M564.821,357.995v8.532c0,3.28,2.661,5.941,5.941,5.941h7.272c0.56,0,1.062,0.35,1.272,0.875
							c0.035,0.07,0.07,0.152,0.105,0.233c0.21,0.514,0.105,1.121-0.292,1.517l-5.136,5.136c-2.323,2.323-2.323,6.093,0,8.415
							l6.034,6.034c2.323,2.323,6.081,2.323,8.404,0l5.147-5.136c0.397-0.408,0.992-0.514,1.517-0.292
							c0.082,0.035,0.152,0.07,0.233,0.105c0.525,0.21,0.875,0.712,0.875,1.272v7.26c0,3.292,2.661,5.953,5.941,5.953h8.532
							c3.291,0,5.953-2.661,5.953-5.953v-7.26c0-0.56,0.339-1.062,0.864-1.272c0.082-0.035,0.152-0.07,0.234-0.105
							c0.525-0.222,1.12-0.117,1.529,0.292l5.135,5.136c2.323,2.323,6.081,2.323,8.404,0l6.034-6.034
							c2.323-2.323,2.323-6.093,0-8.415l-5.135-5.136c-0.397-0.397-0.502-1.004-0.28-1.517c0.023-0.082,0.058-0.164,0.093-0.233
							c0.21-0.525,0.712-0.875,1.272-0.875h7.272c3.28,0,5.941-2.661,5.941-5.941v-8.532c0-3.291-2.661-5.953-5.941-5.953h-7.272
							c-0.56,0-1.062-0.35-1.272-0.864c-0.035-0.082-0.07-0.163-0.093-0.233c-0.222-0.525-0.117-1.121,0.28-1.529l5.135-5.135
							c2.323-2.323,2.323-6.081,0-8.404l-6.034-6.034c-2.323-2.323-6.081-2.323-8.404,0l-5.135,5.136
							c-0.409,0.397-1.004,0.502-1.529,0.28c-0.082-0.035-0.152-0.058-0.234-0.093c-0.525-0.222-0.864-0.712-0.864-1.272v-7.271
							c0-3.28-2.661-5.941-5.953-5.941h-8.532c-3.28,0-5.941,2.661-5.941,5.941v7.271c0,0.56-0.35,1.051-0.875,1.272
							c-0.082,0.035-0.152,0.058-0.233,0.093c-0.525,0.222-1.121,0.117-1.517-0.28l-5.147-5.136c-2.323-2.323-6.081-2.323-8.404,0
							l-6.034,6.034c-2.323,2.323-2.323,6.081,0,8.404l5.136,5.135c0.397,0.409,0.502,1.004,0.292,1.529
							c-0.035,0.07-0.07,0.152-0.105,0.233c-0.21,0.514-0.712,0.864-1.272,0.864h-7.272
							C567.482,352.042,564.821,354.703,564.821,357.995z M586.845,362.255c0-10.796,8.754-19.55,19.562-19.55
							c10.796,0,19.55,8.754,19.55,19.55c0,10.808-8.754,19.562-19.55,19.562C595.599,381.817,586.845,373.063,586.845,362.255z"/>
						
							<ellipse transform="matrix(0.9872 -0.1595 0.1595 0.9872 -50.0236 101.3752)" style="fill:#23385C;" cx="606.402" cy="362.259" rx="13.231" ry="13.231"/>
					</g>
					<path style="fill:#0E1C3D;" d="M625.887,427.011h5.503c0.492-4.43,0.981-8.859,1.43-13.29
						c0.777-7.261,1.444-14.526,2.162-21.789c2.088-5.491,4.084-11.01,6.125-16.516c0.811-2.265,1.619-4.53,2.423-6.797
						c-0.184,1.467-0.364,2.934-0.526,4.405c-0.664,5.851-1.322,11.703-1.902,17.569l-0.071,0.713
						c-0.006,0.066-0.007,0.134-0.002,0.202c0.55,7.551,1.075,15.102,1.69,22.651l0.909,11.325l0.131,1.527h5.452l0.097-1.598
						l0.626-11.344c0.411-7.308,0.739-14.615,1.086-21.923c1.404-5.672,2.732-11.356,4.054-17.041
						c0.677-2.866,1.281-5.745,1.926-8.617c0.621-2.827,1.21-5.659,1.775-8.495c0.159-0.474,0.258-0.98,0.258-1.515l-0.001-9.775
						h-25.592l-0.26,10.377c-1.372,4.861-2.685,9.74-3.987,14.622c-1.482,5.815-3.013,11.615-4.442,17.446l-0.163,0.662
						c-0.057,0.237-0.083,0.486-0.074,0.741c0.268,7.643,0.467,15.283,0.79,22.928C625.473,417.989,625.678,422.5,625.887,427.011z"
						/>
					<path style="fill:#0E1C3D;" d="M640.263,296.365c0.049,0.243,0.151,0.531,0.395,0.576c0.235,0.043,0.432-0.172,0.564-0.371
						c1.027-1.541,1.353-3.505,0.971-5.309c-0.104-0.492-0.427-2.161-1.199-1.372c-0.308,0.315-0.416,0.929-0.531,1.34
						c-0.142,0.508-0.248,1.026-0.317,1.548C639.99,293.97,640.026,295.187,640.263,296.365z"/>
					<path style="fill:#7A69FF;" d="M659.998,312.049c-6.119-3.688-11.304-4.386-13.674-4.496v-0.002c0,0-0.234-0.02-0.658-0.018
						c-0.469-0.003-0.728,0.018-0.728,0.018v0.01c-1.824,0.109-5.304,0.64-9.536,2.882c-0.71-0.469-2.082-1.154-4.449-1.623
						c-0.017-0.24-0.155-0.463-0.39-0.567l-0.236-0.104c-0.348-0.153-0.753,0.015-0.89,0.369l-3.424,8.804
						c-0.135,0.346,0.039,0.736,0.387,0.866c0.334,0.125,0.707-0.035,0.847-0.363c0.823,1.262,2.544,3.293,5.75,4.827l0.661,1.561
						l-1.06,28.649l26.782-2.059l-0.427-26.606l2.784-5.947C662.782,316.021,662.038,313.279,659.998,312.049z"/>
					<path style="fill:#E37457;" d="M650.034,300.88v7.159c0,0-1.759,2.558-5.44,3.511c-1.219-0.565-2.058-1.8-2.058-3.237v-7.433
						H650.034z"/>
					<path style="fill:#FF8262;" d="M649.322,286.882c0,0-8.509-2.212-9.057,9.943c0,0-0.169,8.411,4.831,9.498
						c5,1.087,8.338-6.635,8.338-6.635C657.982,288.402,649.322,286.882,649.322,286.882z"/>
					<path style="fill:none;stroke:#384B78;stroke-width:0.4035;stroke-miterlimit:10;" d="M633.236,356.733
						c1.457-0.451,2.679-1.603,3.215-3.03"/>
					<path style="fill:none;stroke:#384B78;stroke-width:0.4035;stroke-miterlimit:10;" d="M643.777,359.011
						c0.736-1.91,1.057-3.978,0.935-6.021"/>
					<path style="fill:none;stroke:#384B78;stroke-width:0.4035;stroke-miterlimit:10;" d="M644.375,357.535
						c0.506,0.266,1.176,0.174,1.591-0.218c0.336-0.318,0.49-0.779,0.6-1.228c0.285-1.16,0.362-2.37,0.223-3.557"/>
					<g>
						
							<polyline style="fill:none;stroke:#384B78;stroke-width:0.4169;stroke-linecap:round;stroke-linejoin:round;stroke-miterlimit:10;stroke-dasharray:0.8339;" points="
							642.152,368.929 633.529,391.253 630.322,424.079 						"/>
						
							<line style="fill:none;stroke:#2E6B10;stroke-width:0.4035;stroke-linecap:round;stroke-linejoin:round;" x1="630.284" y1="424.475" x2="630.244" y2="424.876"/>
					</g>
					
						<polyline style="fill:none;stroke:#384B78;stroke-width:0.4169;stroke-linecap:round;stroke-linejoin:round;stroke-miterlimit:10;stroke-dasharray:0.8339;" points="
						657.577,359.863 649.778,392.05 648.229,424.597 					"/>
					<path style="fill:none;stroke:#584CB8;stroke-width:0.4529;stroke-miterlimit:10;" d="M636.371,344.064
						c4.033-4.012,6.835-9.245,7.941-14.825"/>
					<path style="fill:none;stroke:#584CB8;stroke-width:0.4529;stroke-miterlimit:10;" d="M644.521,343.242
						c1.19-1.865,1.952-4.002,2.213-6.199"/>
					<path style="fill:#FF8262;" d="M609.953,334.276c-0.039,0.49,2.265,1.369,2.265,1.369s-1.222,0.421-2.731,0.404
						c-1.508-0.017-3.075,0.149-3.061,0.587c0.012,0.391,2.887,0.512,2.887,0.512s-3.344,0.529-3.319,0.966
						c0.023,0.39,3.656,0.351,3.656,0.351s-3.573,0.658-3.392,1.227c0.151,0.475,4.22-0.062,3.748,0.114
						c-0.472,0.176-1.939,0.553-1.827,0.902c0.072,0.222,1.79-0.019,1.79-0.019s3.891-0.598,4.647-0.86
						c0.824-0.285,1.315-0.69,1.315-0.69l-0.041-2.949c-0.523-0.594-1.091-0.903-2.123-1.491
						C612.737,334.108,609.993,333.786,609.953,334.276z"/>
					<path style="fill:none;stroke:#384B78;stroke-width:0.4035;stroke-miterlimit:10;" d="M653.616,352.355
						c0.096,1.895,1.346,3.685,3.092,4.428"/>
					<path style="fill:#FF8262;" d="M660.385,319.606l-18.836,15.438l-0.246,0.201c-0.357,0.292-0.781,0.471-1.206,0.536
						l-25.014,3.787c-0.987,0.149-1.909-0.53-2.059-1.517c-0.14-0.926,0.456-1.796,1.344-2.024l24.526-6.207l-1.452,0.737
						l17.039-17.401c1.692-1.728,4.464-1.757,6.191-0.065c1.727,1.692,1.757,4.463,0.065,6.191
						C660.626,319.397,660.506,319.507,660.385,319.606z"/>
					<g>
						<path style="fill:#7A69FF;" d="M656.616,323.789l0.203-0.173c0.3-0.255,0.327-0.708,0.059-0.996l-0.022-0.024
							c1.946-0.863,4.49-2.431,5.422-4.611c1.052-2.462-0.662-4.61-0.662-4.61l-0.2-0.215c-1.591-1.711-4.124-2.294-6.24-1.295
							l-0.04,0.019l-4.581,3.947l-0.347-0.372c-0.262-0.282-0.705-0.295-0.984-0.03c-0.27,0.256-0.289,0.678-0.043,0.957
							l6.466,7.335C655.897,324.003,656.328,324.034,656.616,323.789z"/>
						<path style="fill:none;stroke:#584CB8;stroke-width:0.4529;stroke-miterlimit:10;" d="M651.086,315.948
							c0.983-1.719,2.541-3.105,4.365-3.883"/>
					</g>
					<polygon style="fill:#FF8262;" points="625.887,427.011 626.058,432.235 631.003,432.235 631.39,427.011 					"/>
					<polygon style="fill:#0E1C3D;" points="625.33,431.395 625.627,436.227 620.464,439.007 631.041,439.007 631.651,431.464 					
						"/>
					<polygon style="fill:#FF8262;" points="643.761,427.011 644.159,432.438 648.783,432.438 649.213,427.011 					"/>
					<polygon style="fill:#0E1C3D;" points="643.616,431.715 643.9,436.343 638.955,439.007 649.086,439.007 649.671,431.781 					
						"/>
					<path style="fill:#0E1C3D;" d="M650.032,293.026c-1.751-0.538-3.583-0.947-5.404-0.755c-1.232,0.13-2.552,0.517-3.652-0.052
						c-0.988-0.51-1.481-1.668-1.588-2.775c-0.169-1.752,0.503-3.601,1.865-4.717c1.362-1.115,3.404-1.392,4.946-0.543
						c1.048,0.577,1.806,1.59,2.862,2.151c1.715,0.911,3.874,0.466,5.663,1.224c1.608,0.681,2.715,2.317,2.946,4.048
						c0.231,1.731-0.35,3.515-1.394,4.914c-0.937,1.255-2.221,2.213-3.615,2.909c-0.473,0.236-0.511,0.194-0.79-0.248
						c-0.227-0.359-0.434-0.729-0.621-1.11c-0.367-0.748-0.655-1.534-0.859-2.342C650.329,295.484,650.055,293.033,650.032,293.026z
						"/>
					<g>
						<path style="fill:#FF8262;" d="M652.049,300.314c0.104,0.315,0.497,0.465,0.819,0.385c0.322-0.08,0.574-0.333,0.757-0.61
							c0.183-0.277,0.313-0.586,0.497-0.863c0.287-0.432,0.7-0.779,0.924-1.246c0.201-0.42,0.228-0.929,0.03-1.351
							c-0.198-0.421-0.63-0.734-1.096-0.748c-0.465-0.014-0.933,0.296-1.064,0.743L652.049,300.314z"/>
					</g>
				</g>
				<path style="fill:none;stroke:#C28332;stroke-width:1.3891;stroke-miterlimit:10;" d="M254.808,195.955c0,0.087,0,0.173,0,0.26"
					/>
				<g>
					<path style="fill:#00C4F0;" d="M449.746,83.349l0.614,2.309c0.253,0.951,0.958,1.717,1.885,2.048l2.251,0.803
						c2.335,0.834,2.7,3.982,0.618,5.329l-2.007,1.298c-0.827,0.535-1.337,1.442-1.366,2.426l-0.069,2.389
						c-0.071,2.478-2.953,3.799-4.877,2.235l-1.854-1.508c-0.764-0.621-1.784-0.826-2.729-0.549l-2.293,0.673
						c-2.379,0.698-4.525-1.635-3.632-3.947l0.861-2.229c0.354-0.919,0.234-1.952-0.321-2.765l-1.349-1.973
						c-1.399-2.047,0.156-4.809,2.632-4.674l2.386,0.13c0.983,0.053,1.929-0.38,2.531-1.16l1.46-1.892
						C446.002,80.327,449.109,80.953,449.746,83.349z"/>
					<path style="fill:#FFFFFF;" d="M199.926,268.865l0.614,2.31c0.253,0.951,0.958,1.717,1.885,2.048l2.251,0.803
						c2.335,0.834,2.7,3.982,0.618,5.329l-2.007,1.298c-0.827,0.535-1.337,1.442-1.366,2.426l-0.069,2.389
						c-0.071,2.478-2.953,3.799-4.877,2.235l-1.854-1.508c-0.764-0.621-1.785-0.826-2.729-0.549l-2.293,0.673
						c-2.379,0.698-4.525-1.635-3.632-3.947l0.861-2.229c0.354-0.918,0.234-1.952-0.321-2.765l-1.348-1.973
						c-1.399-2.047,0.156-4.809,2.632-4.674l2.386,0.13c0.983,0.053,1.929-0.38,2.531-1.16l1.46-1.892
						C196.182,265.844,199.289,266.469,199.926,268.865z"/>
					<path style="fill:#00C4F0;" d="M666.493,148.868l1.704,1.676c0.702,0.69,1.698,0.991,2.665,0.804l2.346-0.453
						c2.434-0.471,4.351,2.054,3.244,4.272l-1.067,2.138c-0.44,0.881-0.418,1.921,0.059,2.783l1.156,2.091
						c1.2,2.17-0.609,4.773-3.061,4.405l-2.363-0.354c-0.974-0.146-1.957,0.197-2.629,0.916l-1.632,1.746
						c-1.693,1.811-4.727,0.896-5.136-1.55l-0.393-2.357c-0.162-0.971-0.792-1.8-1.683-2.217l-2.165-1.012
						c-2.246-1.05-2.313-4.219-0.113-5.363l2.12-1.102c0.873-0.454,1.467-1.309,1.588-2.286l0.294-2.372
						C661.732,148.173,664.726,147.13,666.493,148.868z"/>
					<path style="fill:#00C4F0;" d="M611.87,102.119l0.781,1.119c0.322,0.461,0.85,0.734,1.412,0.731l1.365-0.009
						c1.416-0.009,2.227,1.609,1.373,2.739l-0.823,1.089c-0.339,0.448-0.436,1.035-0.259,1.569l0.43,1.295
						c0.446,1.344-0.842,2.616-2.18,2.153l-1.29-0.447c-0.531-0.184-1.119-0.095-1.572,0.239l-1.099,0.809
						c-1.14,0.84-2.748,0.007-2.721-1.408l0.026-1.365c0.011-0.562-0.256-1.093-0.713-1.421l-1.109-0.795
						c-1.151-0.825-0.856-2.611,0.499-3.023l1.306-0.397c0.538-0.163,0.961-0.581,1.131-1.117l0.413-1.301
						C609.27,101.229,611.06,100.958,611.87,102.119z"/>
					<path style="fill:#00C4F0;" d="M306.63,70.384l0.781,1.119c0.322,0.461,0.85,0.734,1.412,0.731l1.365-0.009
						c1.416-0.009,2.227,1.609,1.373,2.739l-0.823,1.089c-0.339,0.448-0.436,1.035-0.259,1.568l0.43,1.295
						c0.446,1.344-0.842,2.616-2.18,2.152l-1.29-0.447c-0.531-0.184-1.119-0.095-1.572,0.239l-1.099,0.809
						c-1.14,0.84-2.748,0.007-2.721-1.408l0.026-1.365c0.011-0.562-0.256-1.093-0.713-1.421l-1.109-0.795
						c-1.151-0.825-0.856-2.611,0.499-3.023l1.306-0.397c0.538-0.163,0.961-0.581,1.131-1.117l0.413-1.301
						C304.029,69.495,305.819,69.223,306.63,70.384z"/>
					<path style="fill:#00C4F0;" d="M134.519,207.019l0.781,1.119c0.322,0.461,0.85,0.734,1.412,0.731l1.365-0.009
						c1.416-0.009,2.227,1.609,1.373,2.739l-0.823,1.089c-0.339,0.448-0.436,1.035-0.259,1.569l0.43,1.295
						c0.446,1.344-0.842,2.616-2.18,2.152l-1.29-0.447c-0.531-0.184-1.119-0.095-1.572,0.239l-1.099,0.809
						c-1.14,0.84-2.748,0.007-2.721-1.408l0.026-1.365c0.011-0.562-0.256-1.093-0.713-1.421l-1.109-0.795
						c-1.151-0.825-0.856-2.611,0.499-3.023l1.306-0.397c0.538-0.164,0.961-0.581,1.131-1.117l0.414-1.301
						C131.919,206.13,133.709,205.858,134.519,207.019z"/>
					<path style="fill:#00C4F0;" d="M532.255,55.176l0.514,0.737c0.212,0.304,0.56,0.484,0.93,0.482l0.899-0.006
						c0.933-0.006,1.468,1.06,0.905,1.804l-0.542,0.717c-0.223,0.296-0.287,0.682-0.171,1.034l0.283,0.854
						c0.294,0.885-0.555,1.723-1.436,1.418l-0.85-0.294c-0.35-0.121-0.737-0.062-1.036,0.157l-0.724,0.533
						c-0.751,0.553-1.81,0.005-1.793-0.928l0.017-0.899c0.007-0.37-0.168-0.721-0.469-0.936l-0.731-0.524
						c-0.758-0.544-0.564-1.72,0.328-1.992l0.86-0.261c0.354-0.108,0.633-0.383,0.745-0.736l0.272-0.857
						C530.542,54.59,531.721,54.41,532.255,55.176z"/>
					<path style="fill:#00C4F0;" d="M674.263,249.333l0.515,0.738c0.212,0.304,0.56,0.484,0.93,0.481l0.899-0.006
						c0.933-0.006,1.468,1.06,0.905,1.804l-0.542,0.717c-0.224,0.296-0.287,0.682-0.17,1.033l0.283,0.853
						c0.294,0.885-0.555,1.723-1.436,1.418l-0.85-0.294c-0.35-0.121-0.737-0.062-1.036,0.157l-0.724,0.533
						c-0.751,0.553-1.81,0.005-1.793-0.928l0.017-0.899c0.007-0.37-0.169-0.721-0.469-0.936l-0.731-0.524
						c-0.758-0.543-0.564-1.72,0.328-1.992l0.86-0.261c0.354-0.108,0.633-0.383,0.745-0.736l0.272-0.857
						C672.55,248.747,673.729,248.568,674.263,249.333z"/>
					<path style="fill:#FFFFFF;" d="M536.33,114.906l0.514,0.738c0.212,0.304,0.56,0.484,0.93,0.481l0.899-0.006
						c0.933-0.006,1.467,1.06,0.905,1.804l-0.542,0.717c-0.224,0.296-0.287,0.682-0.17,1.034l0.283,0.853
						c0.294,0.885-0.555,1.723-1.436,1.418l-0.85-0.294c-0.35-0.121-0.737-0.062-1.036,0.157l-0.724,0.533
						c-0.751,0.553-1.81,0.005-1.793-0.928l0.017-0.899c0.007-0.37-0.168-0.72-0.47-0.936l-0.731-0.524
						c-0.758-0.543-0.564-1.72,0.328-1.992l0.86-0.261c0.354-0.108,0.633-0.383,0.745-0.736l0.272-0.857
						C534.617,114.32,535.797,114.141,536.33,114.906z"/>
					<path style="fill:#00C4F0;" d="M244.379,135.049l0.514,0.738c0.212,0.304,0.56,0.484,0.93,0.482l0.899-0.006
						c0.933-0.006,1.468,1.06,0.905,1.804l-0.542,0.717c-0.224,0.295-0.287,0.682-0.171,1.033l0.283,0.853
						c0.294,0.885-0.555,1.723-1.436,1.418l-0.85-0.294c-0.35-0.121-0.737-0.062-1.036,0.157l-0.724,0.533
						c-0.751,0.553-1.811,0.005-1.793-0.928l0.017-0.899c0.007-0.37-0.169-0.72-0.469-0.936l-0.731-0.524
						c-0.758-0.544-0.564-1.72,0.328-1.992l0.86-0.261c0.355-0.108,0.633-0.383,0.745-0.736l0.272-0.857
						C242.666,134.463,243.845,134.284,244.379,135.049z"/>
					<path style="fill:#00C4F0;" d="M150.525,123.469l0.514,0.738c0.212,0.304,0.56,0.484,0.93,0.482l0.899-0.006
						c0.933-0.006,1.468,1.06,0.905,1.804l-0.542,0.717c-0.224,0.296-0.287,0.682-0.17,1.033l0.283,0.853
						c0.294,0.885-0.555,1.723-1.436,1.418l-0.85-0.294c-0.35-0.121-0.737-0.062-1.036,0.157l-0.724,0.533
						c-0.751,0.553-1.811,0.005-1.793-0.928l0.017-0.899c0.007-0.37-0.169-0.72-0.469-0.936l-0.731-0.524
						c-0.758-0.544-0.564-1.72,0.328-1.992l0.86-0.261c0.354-0.108,0.633-0.383,0.745-0.736l0.272-0.857
						C148.812,122.883,149.991,122.704,150.525,123.469z"/>
					<path style="fill:#00C4F0;" d="M96.565,307.196l0.515,0.737c0.212,0.304,0.56,0.484,0.93,0.482l0.899-0.006
						c0.933-0.006,1.467,1.06,0.905,1.804l-0.542,0.717c-0.223,0.295-0.287,0.682-0.171,1.034l0.283,0.853
						c0.294,0.885-0.555,1.723-1.436,1.418l-0.85-0.294c-0.35-0.121-0.737-0.063-1.036,0.157l-0.724,0.533
						c-0.751,0.553-1.81,0.005-1.792-0.928l0.017-0.899c0.007-0.37-0.168-0.72-0.47-0.936l-0.731-0.524
						c-0.758-0.543-0.564-1.72,0.328-1.992l0.86-0.261c0.354-0.108,0.633-0.383,0.745-0.736l0.272-0.857
						C94.852,306.61,96.032,306.431,96.565,307.196z"/>
					<path style="fill:#FFFFFF;" d="M379.897,114.906l0.514,0.738c0.212,0.304,0.56,0.484,0.93,0.481l0.899-0.006
						c0.933-0.006,1.468,1.06,0.905,1.804l-0.542,0.717c-0.223,0.296-0.287,0.682-0.17,1.034l0.283,0.853
						c0.294,0.885-0.555,1.723-1.436,1.418l-0.85-0.294c-0.35-0.121-0.737-0.062-1.035,0.157l-0.724,0.533
						c-0.751,0.553-1.81,0.005-1.793-0.928l0.017-0.899c0.007-0.37-0.169-0.72-0.47-0.936l-0.731-0.524
						c-0.758-0.543-0.564-1.72,0.329-1.992l0.86-0.261c0.354-0.108,0.633-0.383,0.745-0.736l0.272-0.857
						C378.184,114.32,379.363,114.141,379.897,114.906z"/>
					
						<text transform="matrix(1 0 0 1 287.7036 431.8208)" style="fill:#101439; font-family:'Montserrat-Medium'; font-size:10.8395px;">CONNECTING...</text>
				</g>
			</g>
		</g>
	</g>
</g>
<g id="DESIGNED_BY_FREEPIK">
	<g>
		<g id="XMLID_319_">
			<g id="XMLID_338_">
				<path id="XMLID_346_" style="fill:#1D262D;" d="M385.104,467.621c-0.432,0.443-0.803,0.931-1.108,1.453l-0.465-0.241
					c-0.067-0.298-0.349-0.503-0.659-0.466c-0.331,0.039-0.568,0.339-0.529,0.67c0.039,0.331,0.339,0.568,0.67,0.529
					c0.066-0.008,0.127-0.026,0.184-0.052l0.451,0.234c-0.251,0.554-0.433,1.139-0.539,1.744l0.746,0.132
					c0.23-1.306,0.85-2.507,1.792-3.472L385.104,467.621z"/>
				<path id="XMLID_345_" style="fill:#1D262D;" d="M390.592,465.319c-0.171,0-0.341,0.006-0.51,0.017l-0.074-0.626
					c0.188-0.149,0.296-0.389,0.266-0.645c-0.046-0.393-0.402-0.674-0.795-0.628c-0.393,0.046-0.674,0.402-0.628,0.795
					c0.03,0.254,0.189,0.461,0.404,0.564l0.074,0.624c-0.714,0.116-1.403,0.332-2.06,0.646l0.327,0.684
					c0.934-0.447,1.942-0.673,2.995-0.673c0.496,0,0.993,0.053,1.475,0.158l0.161-0.741
					C391.692,465.378,391.142,465.319,390.592,465.319z"/>
				<path id="XMLID_344_" style="fill:#1D262D;" d="M397.194,467.866c0.331-0.04,0.566-0.341,0.526-0.672
					c-0.04-0.331-0.341-0.566-0.672-0.526c-0.309,0.038-0.535,0.304-0.53,0.609l-0.416,0.363c-0.418-0.43-0.889-0.813-1.408-1.139
					l-0.404,0.641c1.134,0.715,2.021,1.726,2.563,2.925l0.69-0.313c-0.251-0.554-0.567-1.072-0.942-1.545l0.402-0.351
					C397.065,467.871,397.129,467.875,397.194,467.866z"/>
				<path id="XMLID_343_" style="fill:#1D262D;" d="M390.044,475.528c-0.386,0.023-0.775,0.035-1.157,0.035
					c-0.88,0-1.733-0.061-2.478-0.179c-0.39-0.062-0.846-0.155-1.27-0.292c1.046,1.861,3.069,3.125,5.388,3.125
					c2.855,0,5.262-1.916,5.95-4.504c-0.682,0.449-1.505,0.825-2.459,1.123C392.839,475.203,391.463,475.442,390.044,475.528z"/>
				<path id="XMLID_339_" style="fill:#1D262D;" d="M390.592,466.835c-3.352,0-6.08,2.666-6.08,5.944
					c0,0.426,0.046,0.849,0.137,1.261c0.673,0.483,2.706,0.89,5.348,0.731c2.879-0.173,5.297-0.957,6.672-2.158
					c-0.006-0.195-0.021-0.39-0.045-0.582C396.244,469.069,393.65,466.835,390.592,466.835z M388.432,473.35
					c-1.02,0-1.85-0.83-1.85-1.85c0-1.02,0.83-1.85,1.85-1.85c1.02,0,1.85,0.83,1.85,1.85
					C390.282,472.52,389.452,473.35,388.432,473.35z M393.17,472.442c-0.75,0-1.36-0.61-1.36-1.36s0.61-1.361,1.36-1.361
					c0.75,0,1.361,0.61,1.361,1.361S393.92,472.442,393.17,472.442z"/>
			</g>
			<path id="XMLID_336_" style="fill:#1D262D;" d="M406.595,468.703c-0.295-0.116-0.805-0.309-1.382-0.237
				c-0.551,0.068-0.844,0.34-0.844,1.007v0.866h2.228v1.717h-2.228v5.455h-1.932v-5.455h-1.34v-1.717h1.34v-0.888
				c0-1.68,0.896-2.783,2.568-2.783c0.643,0,1.157,0.122,1.59,0.308L406.595,468.703z"/>
			<path id="XMLID_334_" style="fill:#1D262D;" d="M411.298,472.034c-0.177-0.03-0.358-0.046-0.526-0.046
				c-0.895,0-1.51,0.548-1.51,1.613v3.908h-1.932v-7.172h1.873v0.785c0.451-0.674,1.14-0.977,2.021-0.977
				c0.414,0,0.848,0.128,1.094,0.337L411.298,472.034z"/>
			<path id="XMLID_331_" style="fill:#1D262D;" d="M418.965,473.913c0,0.222-0.015,0.489-0.037,0.651h-5.085
				c0.207,1.036,0.933,1.488,1.843,1.488c0.622,0,1.295-0.252,1.813-0.688l1.133,1.243c-0.814,0.748-1.85,1.088-3.057,1.088
				c-2.198,0-3.723-1.495-3.723-3.753c0-2.257,1.48-3.797,3.627-3.797C417.544,470.145,418.958,471.677,418.965,473.913z
				 M413.851,473.246h3.175c-0.177-0.918-0.733-1.436-1.562-1.436C414.554,471.811,414.021,472.358,413.851,473.246z"/>
			<path id="XMLID_328_" style="fill:#1D262D;" d="M426.618,473.913c0,0.222-0.015,0.489-0.037,0.651h-5.085
				c0.207,1.036,0.932,1.488,1.843,1.488c0.622,0,1.295-0.252,1.814-0.688l1.132,1.243c-0.814,0.748-1.85,1.088-3.057,1.088
				c-2.198,0-3.723-1.495-3.723-3.753c0-2.257,1.48-3.797,3.627-3.797C425.197,470.145,426.611,471.677,426.618,473.913z
				 M421.504,473.246h3.175c-0.178-0.918-0.733-1.436-1.562-1.436C422.207,471.811,421.674,472.358,421.504,473.246z"/>
			<path id="XMLID_325_" style="fill:#1D262D;" d="M434.964,473.92c0,2.154-1.495,3.775-3.471,3.775
				c-0.962,0-1.643-0.378-2.109-0.933v3.708h-1.924v-10.133h1.887v0.792c0.466-0.585,1.155-0.984,2.139-0.984
				C433.469,470.145,434.964,471.766,434.964,473.92z M429.287,473.92c0,1.132,0.747,1.976,1.843,1.976
				c1.14,0,1.85-0.881,1.85-1.976c0-1.095-0.711-1.976-1.85-1.976C430.035,471.944,429.287,472.788,429.287,473.92z"/>
			<path id="XMLID_322_" style="fill:#1D262D;" d="M438.067,467.991c0,0.696-0.54,1.229-1.236,1.229
				c-0.696,0-1.229-0.533-1.229-1.229c0-0.696,0.533-1.243,1.229-1.243C437.527,466.748,438.067,467.296,438.067,467.991z
				 M437.809,477.51h-1.932v-7.172h1.932V477.51z"/>
			<path id="XMLID_320_" style="fill:#1D262D;" d="M441.032,472.891l2.702-2.554h2.368l-3.479,3.375l3.501,3.797h-2.376
				l-2.716-2.901v2.901H439.1v-10.658h1.932V472.891z"/>
		</g>
		<g>
			<path style="fill:#1D262D;" d="M309.412,477.445v-1.055c-0.527,0.718-1.391,1.23-2.387,1.23c-1.846,0-3.149-1.406-3.149-3.706
				c0-2.256,1.289-3.721,3.149-3.721c0.952,0,1.816,0.469,2.387,1.245v-3.765h1.099v9.77H309.412z M309.412,475.526v-3.208
				c-0.395-0.615-1.245-1.143-2.124-1.143c-1.421,0-2.27,1.172-2.27,2.739c0,1.567,0.85,2.724,2.27,2.724
				C308.168,476.639,309.017,476.141,309.412,475.526z"/>
			<path style="fill:#1D262D;" d="M311.932,473.9c0-2.051,1.465-3.706,3.486-3.706c2.139,0,3.398,1.67,3.398,3.794v0.279h-5.727
				c0.088,1.333,1.026,2.446,2.549,2.446c0.806,0,1.626-0.322,2.182-0.893l0.527,0.718c-0.703,0.703-1.655,1.084-2.812,1.084
				C313.44,477.621,311.932,476.112,311.932,473.9z M315.404,471.102c-1.509,0-2.256,1.274-2.315,2.358h4.643
				C317.718,472.406,317.015,471.102,315.404,471.102z"/>
			<path style="fill:#1D262D;" d="M319.607,476.507l0.571-0.791c0.469,0.542,1.362,1.011,2.329,1.011c1.084,0,1.67-0.513,1.67-1.216
				c0-1.714-4.38-0.659-4.38-3.281c0-1.098,0.952-2.036,2.636-2.036c1.201,0,2.051,0.454,2.622,1.026l-0.513,0.762
				c-0.424-0.513-1.201-0.894-2.109-0.894c-0.967,0-1.567,0.483-1.567,1.113c0,1.552,4.38,0.527,4.38,3.281
				c0,1.187-0.952,2.139-2.783,2.139C321.306,477.621,320.325,477.269,319.607,476.507z"/>
			<path style="fill:#1D262D;" d="M326.477,468.627c0-0.41,0.337-0.747,0.732-0.747c0.41,0,0.747,0.337,0.747,0.747
				c0,0.41-0.337,0.732-0.747,0.732C326.814,469.359,326.477,469.037,326.477,468.627z M326.667,477.445v-7.075h1.099v7.075H326.667
				z"/>
			<path style="fill:#1D262D;" d="M329.582,479.261l0.556-0.82c0.586,0.703,1.289,0.967,2.3,0.967c1.172,0,2.27-0.571,2.27-2.124
				v-1.011c-0.513,0.718-1.377,1.26-2.373,1.26c-1.845,0-3.149-1.377-3.149-3.662c0-2.27,1.289-3.677,3.149-3.677
				c0.952,0,1.802,0.469,2.373,1.245v-1.069h1.099v6.87c0,2.344-1.641,3.076-3.369,3.076
				C331.237,480.316,330.417,480.081,329.582,479.261z M334.709,475.409v-3.091c-0.381-0.615-1.23-1.143-2.109-1.143
				c-1.421,0-2.27,1.128-2.27,2.695c0,1.553,0.849,2.695,2.27,2.695C333.478,476.566,334.328,476.024,334.709,475.409z"/>
			<path style="fill:#1D262D;" d="M342.413,477.445v-4.629c0-1.245-0.63-1.64-1.582-1.64c-0.865,0-1.685,0.527-2.095,1.099v5.17
				h-1.099v-7.075h1.099v1.025c0.498-0.586,1.465-1.201,2.519-1.201c1.48,0,2.256,0.747,2.256,2.285v4.966H342.413z"/>
			<path style="fill:#1D262D;" d="M344.932,473.9c0-2.051,1.465-3.706,3.486-3.706c2.138,0,3.398,1.67,3.398,3.794v0.279h-5.727
				c0.088,1.333,1.025,2.446,2.549,2.446c0.806,0,1.626-0.322,2.183-0.893l0.527,0.718c-0.703,0.703-1.655,1.084-2.812,1.084
				C346.441,477.621,344.932,476.112,344.932,473.9z M348.404,471.102c-1.509,0-2.256,1.274-2.314,2.358h4.643
				C350.718,472.406,350.015,471.102,348.404,471.102z"/>
			<path style="fill:#1D262D;" d="M358.35,477.445v-1.055c-0.527,0.718-1.392,1.23-2.388,1.23c-1.846,0-3.149-1.406-3.149-3.706
				c0-2.256,1.289-3.721,3.149-3.721c0.952,0,1.817,0.469,2.388,1.245v-3.765h1.098v9.77H358.35z M358.35,475.526v-3.208
				c-0.396-0.615-1.245-1.143-2.124-1.143c-1.421,0-2.27,1.172-2.27,2.739c0,1.567,0.849,2.724,2.27,2.724
				C357.105,476.639,357.954,476.141,358.35,475.526z"/>
			<path style="fill:#1D262D;" d="M364.692,477.445v-9.77h1.099v3.765c0.572-0.776,1.421-1.245,2.388-1.245
				c1.845,0,3.149,1.465,3.149,3.721c0,2.299-1.304,3.706-3.149,3.706c-0.996,0-1.86-0.513-2.388-1.23v1.055H364.692z
				 M367.9,476.639c1.436,0,2.286-1.157,2.286-2.724c0-1.568-0.85-2.739-2.286-2.739c-0.864,0-1.728,0.527-2.109,1.143v3.208
				C366.171,476.141,367.036,476.639,367.9,476.639z"/>
			<path style="fill:#1D262D;" d="M372.529,479.217c0.161,0.073,0.425,0.117,0.601,0.117c0.483,0,0.806-0.161,1.055-0.747
				l0.469-1.069l-2.959-7.148h1.187l2.358,5.801l2.344-5.801h1.201l-3.545,8.51c-0.425,1.025-1.143,1.421-2.08,1.435
				c-0.234,0-0.601-0.044-0.806-0.103L372.529,479.217z"/>
		</g>
	</g>
</g>
</svg>
