<?xml version="1.0" encoding="utf-8"?>
<!-- Generator: Adobe Illustrator 27.5.0, SVG Export Plug-In . SVG Version: 6.00 Build 0)  -->
<svg version="1.1" xmlns="http://www.w3.org/2000/svg" xmlns:xlink="http://www.w3.org/1999/xlink" x="0px" y="0px"
	 viewBox="0 0 500 500" style="enable-background:new 0 0 500 500;" xml:space="preserve">
<g id="BACKGROUND">
	<rect style="fill:#C8E0F7;" width="500" height="500"/>
</g>
<g id="OBJECTS">
	<g>
		<rect y="394.268" style="fill:#9ECCF7;" width="500" height="105.732"/>
		<path style="fill:#9ECCF7;" d="M43.973,89.973c-11.507,19.533-11.46,44.748-2.131,65.409c8.685,19.236,24.425,34.424,34.54,52.948
			c10.137,18.563,14.281,39.815,23.262,58.963c19.955,42.548,63.862,71.635,110.407,78.116c46.546,6.481,94.749-8.235,132.861-35.73
			c38.112-27.496,66.568-67.006,85.433-110.049c11.209-25.575,19.315-53.306,17.027-81.135
			c-2.287-27.829-16.453-55.784-40.962-69.163c-15.867-8.662-34.519-10.637-52.596-10.572c-46.199,0.166-91.162,12.228-136.352,20.3
			c-22.674,4.05-45.621,7.19-68.697,7.179c-17.023-0.008-33.055-5.718-49.709-6.015C76.023,59.85,54.601,71.934,43.973,89.973z"/>
	</g>
	<g>
		<g>
			
				<line style="fill:none;stroke:#1D224A;stroke-width:0.9409;stroke-linecap:round;stroke-linejoin:round;stroke-miterlimit:10;" x1="490.139" y1="393.612" x2="420.282" y2="401.13"/>
			<g>
				<polygon style="fill:#B3B3B2;" points="420.282,401.13 490.139,393.612 488.424,457.826 420.282,465.59 				"/>
				<g>
					<polygon style="fill:#0F1125;" points="453.965,417.136 443.695,432.675 457.731,438.405 468.769,422.053 					"/>
					<polygon style="fill:#1D224A;" points="451.921,407.324 441.651,422.864 455.687,428.594 466.725,412.242 					"/>
					<path style="fill:#1D224A;" d="M477.541,437.01c0.488,2.314,0.977,4.629,1.465,6.943c-13.454,3.494-27.127,6.142-40.912,7.923
						c-0.98,0.127-1.534-5.79-0.198-6.594c1.08-0.65,3.242-0.534,4.483-0.726c1.596-0.246,3.19-0.505,4.781-0.777
						c6.537-1.114,13.039-2.439,19.491-3.972C470.297,438.941,473.928,438.009,477.541,437.01z"/>
				</g>
			</g>
			<g>
				<polygon style="fill:#FFFFFF;" points="359.081,384.639 420.282,401.13 420.282,465.59 359.081,440.086 				"/>
				
					<polyline style="fill:none;stroke:#1D224A;stroke-width:0.9409;stroke-linecap:round;stroke-linejoin:round;stroke-miterlimit:10;" points="
					420.282,465.59 420.282,401.13 359.081,384.639 				"/>
				<polygon style="fill:#1D224A;" points="361.69,428.709 364.347,439.108 414.21,418.321 410.808,407.324 				"/>
			</g>
			
				<polygon style="fill:#676767;stroke:#1D224A;stroke-width:0.9409;stroke-linecap:round;stroke-linejoin:round;stroke-miterlimit:10;" points="
				359.081,384.639 432.067,379.041 487.353,393.612 420.282,401.13 			"/>
		</g>
		<g>
			<g>
				<polygon style="fill:#B3B3B2;" points="420.282,335.999 490.139,328.481 488.424,392.695 420.282,400.459 				"/>
				<g>
					<polygon style="fill:#0F1125;" points="453.965,355.521 443.695,371.06 457.731,376.79 468.769,360.438 					"/>
					<polygon style="fill:#1D224A;" points="451.921,345.71 441.651,361.249 455.687,366.979 466.725,350.626 					"/>
					<path style="fill:#1D224A;" d="M477.541,375.395c0.488,2.314,0.977,4.629,1.465,6.943c-13.454,3.494-27.127,6.142-40.912,7.923
						c-0.98,0.127-1.534-5.79-0.198-6.594c1.08-0.65,3.242-0.534,4.483-0.725c1.596-0.246,3.19-0.505,4.781-0.776
						c6.537-1.114,13.039-2.439,19.491-3.972C470.297,377.326,473.928,376.393,477.541,375.395z"/>
				</g>
			</g>
			<g>
				<g>
					<polygon style="fill:#FFFFFF;" points="359.081,322.041 420.282,335.999 420.282,400.459 359.081,384.639 					"/>
					<polygon style="fill:#1D224A;" points="364.567,372.541 369.424,382.112 413.567,350.969 407.853,340.977 					"/>
				</g>
				
					<polyline style="fill:none;stroke:#1D224A;stroke-width:0.9409;stroke-linecap:round;stroke-linejoin:round;stroke-miterlimit:10;" points="
					420.282,400.459 420.282,335.999 359.081,322.041 				"/>
			</g>
			
				<line style="fill:none;stroke:#1D224A;stroke-width:0.9409;stroke-linecap:round;stroke-linejoin:round;stroke-miterlimit:10;" x1="490.139" y1="328.481" x2="420.282" y2="335.999"/>
			
				<polygon style="fill:#676767;stroke:#1D224A;stroke-width:0.9409;stroke-linecap:round;stroke-linejoin:round;stroke-miterlimit:10;" points="
				359.081,322.041 432.067,313.909 487.353,328.481 420.282,335.999 			"/>
		</g>
		<g>
			
				<line style="fill:#676767;stroke:#1D224A;stroke-width:0.9409;stroke-linecap:round;stroke-linejoin:round;stroke-miterlimit:10;" x1="432.067" y1="313.909" x2="432.067" y2="334.678"/>
			<g>
				<polygon style="fill:#E6E6E6;" points="372.067,303.869 372.067,324.294 420.282,335.541 420.282,315.858 				"/>
				<polygon style="fill:#FFFDFE;" points="372.067,303.869 420.282,315.858 477.496,309.864 418.77,297.482 				"/>
				<polygon style="fill:#CCCBCB;" points="420.282,315.858 477.496,309.864 477.496,329.112 420.282,335.541 				"/>
			</g>
			<polyline style="fill:none;stroke:#989898;stroke-width:0.5;stroke-miterlimit:10;" points="372.067,306.67 420.282,318.541 
				477.496,312.605 			"/>
			<polyline style="fill:none;stroke:#989898;stroke-width:0.5;stroke-miterlimit:10;" points="372.067,309.145 420.282,322.041 
				477.496,317.452 			"/>
			<polyline style="fill:none;stroke:#989898;stroke-width:0.5;stroke-miterlimit:10;" points="372.067,313.257 420.282,326.153 
				477.496,321.564 			"/>
			<polyline style="fill:none;stroke:#989898;stroke-width:0.5;stroke-miterlimit:10;" points="372.067,317.369 420.282,330.265 
				477.496,325.677 			"/>
			
				<line style="fill:none;stroke:#989898;stroke-width:0.5;stroke-miterlimit:10;" x1="426.817" y1="300.398" x2="395.746" y2="305.433"/>
			
				<line style="fill:none;stroke:#989898;stroke-width:0.5;stroke-miterlimit:10;" x1="410.103" y1="309.864" x2="436.139" y2="305.433"/>
			
				<line style="fill:none;stroke:#989898;stroke-width:0.5;stroke-miterlimit:10;" x1="420.282" y1="311.862" x2="456.496" y2="308.326"/>
		</g>
	</g>
	<g>
		<g>
			<g>
				<g>
					<g>
						<path style="fill:#F8BD96;" d="M376.885,178.739c0.52,2.217,0.907,4.553,0.323,6.754c-0.584,2.201-2.38,4.227-4.651,4.404
							c-1.815,0.141-3.501-0.872-5.006-1.895c-11.737-7.972-21.458-19.085-27.026-32.135c-1.455-3.411-2.644-7.076-2.287-10.767
							c0.357-3.691,2.594-7.407,6.13-8.527c2.322-0.735,4.892-0.276,7.099,0.755c7.395,3.456,11.191,11.067,15.197,17.772
							C371.076,162.488,374.91,170.321,376.885,178.739z"/>
						<path style="fill:#F8657E;" d="M360.248,182.694c-1.966-1.992-3.932-3.984-5.898-5.976
							c-0.425-0.446,15.096-13.206,16.572-14.277c-0.144,3.148-3.056,6.604-4.557,9.294
							C364.326,175.388,362.287,179.041,360.248,182.694z"/>
					</g>
					<g>
						<path style="fill:#F27500;" d="M354.79,134.727c5.799,5.983,10.231,13.129,14.616,20.214c0.54,0.873,1.103,1.883,0.827,2.872
							c-0.184,0.66-0.709,1.161-1.212,1.627c-6.058,5.61-12.116,11.22-18.174,16.829c-7.673-5.263-15.479-10.65-21.157-18.021
							c-5.755-7.472-9.256-17.746-6.093-27.016c2.797-8.197,9.77-9.608,17.207-6.445
							C346.099,127.041,350.802,130.613,354.79,134.727z"/>
						<path style="fill:#1D224A;" d="M370.208,155.136c0.582,2.068,2.595,3.677,2.585,5.825c-0.008,1.572-1.114,2.9-2.188,4.048
							c-4.382,4.685-9.258,8.908-14.521,12.576c-0.492,0.343-0.998,0.686-1.575,0.851c-1.081,0.309-2.266-0.065-3.179-0.721
							c-0.454-0.327-2.029-1.541-2.007-2.162c0.022-0.619,1.001-0.742,1.46-1.02c1.843-1.115,3.524-2.812,5.139-4.23
							c3.365-2.953,6.549-6.113,9.529-9.454c0.851-0.955,1.686-1.924,2.503-2.909C368.253,157.583,370.316,155.522,370.208,155.136z
							"/>
					</g>
				</g>
				<g>
					<g>
						<path style="fill:#F8BD96;" d="M405.702,138.381c6.667,1.443,13.576,1.76,20.347,0.933c1.17-0.143,2.365-0.319,3.519-0.077
							c1.154,0.242,2.281,1.004,2.589,2.142c0.291,1.078-0.226,2.249-1.036,3.018c-0.81,0.769-1.872,1.208-2.921,1.591
							c-8.867,3.236-18.494,3.535-27.93,3.8c-4.649,0.131-10.438-1.16-7.202-6.695c1.182-2.022,2.443-4.219,4.748-5.083
							C400.341,137.062,403.177,137.835,405.702,138.381z"/>
						
							<path style="fill:none;stroke:#1D224A;stroke-width:0.9409;stroke-linecap:round;stroke-linejoin:round;stroke-miterlimit:10;" d="
							M431.762,142.846c-4.922,2.172-10.138,3.676-15.461,4.456"/>
						
							<path style="fill:none;stroke:#1D224A;stroke-width:0.9409;stroke-linecap:round;stroke-linejoin:round;stroke-miterlimit:10;" d="
							M429.297,140.397c-5.022,1.852-10.298,3.017-15.633,3.452"/>
					</g>
					<g>
						<path style="fill:#F8BD96;" d="M392.788,144.62c1.937-1.394,4.053-2.473,6.402-2.625c1.417-0.092,3.077,0.339,3.633,1.646
							c0.402,0.945,0.088,2.028-0.249,2.998c-4.359,12.547-10.344,24.727-18.261,35.432c-1.667,2.254-3.471,4.491-5.864,5.952
							c-2.392,1.461-5.504,2.025-8.019,0.787c-2.499-1.231-3.924-3.948-4.641-6.639c-0.606-2.277-0.743-4.618-0.269-6.929
							c0.471-2.299,2.341-3.867,3.827-5.619c6.677-7.871,12.764-15.808,20.588-22.689
							C390.844,146.135,391.792,145.336,392.788,144.62z"/>
						
							<path style="fill:none;stroke:#1D224A;stroke-width:0.9409;stroke-linecap:round;stroke-linejoin:round;stroke-miterlimit:10;" d="
							M399.729,149.366c-0.444-0.165-0.749-0.564-1.076-0.907c-0.327-0.343-0.759-0.665-1.228-0.6"/>
						
							<path style="fill:none;stroke:#1D224A;stroke-width:0.9409;stroke-linecap:round;stroke-linejoin:round;stroke-miterlimit:10;" d="
							M372.191,166.075c-2.115,2.628-3.847,5.564-5.126,8.686"/>
						
							<path style="fill:none;stroke:#1D224A;stroke-width:0.9409;stroke-linecap:round;stroke-linejoin:round;stroke-miterlimit:10;" d="
							M369.625,185.652c2.596-1.428,5.868-1.553,8.566-0.328"/>
					</g>
				</g>
			</g>
			<g>
				<path style="fill:#F2E500;" d="M287.76,127.279c-0.085,0.044-0.171,0.089-0.256,0.135c-2.334,1.264-4.438,3.116-5.518,5.541
					c-1.486,3.337-1.104,7.816-1.016,11.385c0.105,4.243,1.026,8.421,1.836,12.571c2.417,12.375,4.834,24.749,7.251,37.124
					c0.8,4.095,1.726,8.439,4.641,11.423c2.763,2.829,6.811,3.912,10.666,4.793c5.593,1.278,11.309,2.382,17.031,1.978
					c5.723-0.404,11.525-2.475,15.408-6.698c2.734-2.974,4.351-6.804,5.531-10.667c3.783-12.391,5.727-25.871,7.166-38.734
					c0.546-4.882,0.905-9.883-0.247-14.659c-1.157-4.777-3.909-8.701-6.993-12.43c-2.196-2.655-5.001-4.796-8.12-6.253
					c-3.236-1.512-6.625-1.908-10.091-2.488c-8.103-1.356-16.464-0.22-24.28,2.116c-2.201,0.658-4.236,1.565-6.334,2.418
					C292.22,125.736,289.909,126.177,287.76,127.279z"/>
				
					<path style="fill:none;stroke:#1D224A;stroke-width:0.9409;stroke-linecap:round;stroke-linejoin:round;stroke-miterlimit:10;" d="
					M315.988,123.229c6.975,8.096,10.365,17.243,10.931,27.914c0.566,10.671,0.084,19.096-1.333,29.688
					c-1.418,10.591-2.569,21.368-0.941,31.929"/>
				<path style="fill:#1D224A;" d="M344.038,139.553c0.311,1.666,0.623,3.333,0.934,4.999c-4.312,1.085-8.624,2.17-12.936,3.255
					c0.639-0.161-0.503-4.184-0.609-4.615c-0.392-1.602,1.413-1.586,2.645-1.882C337.355,140.52,340.685,139.934,344.038,139.553z"
					/>
				
					<path style="fill:none;stroke:#1D224A;stroke-width:0.9409;stroke-linecap:round;stroke-linejoin:round;stroke-miterlimit:10;" d="
					M350.565,142.236c1.503,10.734,0.477,21.815-2.972,32.09"/>
				
					<path style="fill:none;stroke:#1D224A;stroke-width:0.9409;stroke-linecap:round;stroke-linejoin:round;stroke-miterlimit:10;" d="
					M339.172,124.395c1.645,2.004,3.291,4.009,4.936,6.013"/>
			</g>
			<g>
				<g>
					<path style="fill:#F8BD96;" d="M327.547,118.167c0.048-2.43-0.855-4.665-1.146-7.07c-0.294-2.432-0.342-4.886-0.579-7.323
						c-0.376-3.872-1.338-7.922-4.073-10.688c-1.608-1.627-3.73-2.688-5.943-3.268c-1.775-0.465-3.656-0.635-5.448-0.243
						c-1.793,0.391-3.492,1.381-4.526,2.897c-1.088,1.594-1.359,3.59-1.6,5.506c-0.573,4.551-1.146,9.101-1.719,13.652
						c-0.286,2.275-0.562,4.552-0.86,6.826c-0.244,1.862-0.523,3.344,0.446,5.111c1.091,1.989,3.265,3.099,5.351,3.989
						c4.973,2.122,10.192,3.667,15.519,4.594C324.309,127.613,327.454,122.91,327.547,118.167z"/>
					<path style="fill:#F8657E;" d="M312.368,113.283c0.08,0.093,0.16,0.185,0.241,0.277c3.305,3.746,7.784,6.533,12.7,7.418
						c0.527,0.095,1.137,0.146,1.533-0.214c0.412-0.375,0.4-1.015,0.356-1.569c-0.159-2.026-0.374-4.058-0.462-6.087
						c-0.083-1.906-0.593-3.897-0.593-5.794c0.003,0.016-6.591-0.884-7.217-1.034c-4.617-1.106-9.091-3.257-12.984-5.978
						C307.101,105.034,309.198,109.586,312.368,113.283z"/>
				</g>
				<path style="fill:#1D224A;" d="M323.535,129.594c0.001,0.639,0.151,1.282,0.398,1.875c0.37,0.888,0.948,1.675,1.574,2.406
					c0.739,0.863,1.553,1.662,2.43,2.385c0.379,0.312,0.822,0.627,1.311,0.582c0.717-0.066,1.122-0.837,1.378-1.51
					c1.227-3.238,2.303-6.828,2.362-10.309c0.025-2.229-0.508-4.538-1.567-6.503c-0.532-0.987-1.195-1.904-1.969-2.715
					c-0.304-0.319-2.372-1.675-2.396-1.941c0.244,2.741,0.376,5.528-0.183,8.222c-0.234,1.125-0.564,2.528-1.15,3.525
					c-0.648,1.102-1.731,1.7-2.073,3.037C323.571,128.957,323.535,129.275,323.535,129.594z"/>
				<path style="fill:#1D224A;" d="M298.054,119.707c-1.152,1.836-2.075,4.09-1.342,6.13c0.487,1.353,1.62,2.358,2.745,3.254
					c5.861,4.674,12.705,8.108,19.954,10.014c0.689,0.181,1.469,0.337,2.074-0.038c0.594-0.367,0.809-1.112,0.976-1.79
					c0.412-1.666,0.823-3.333,1.235-4.999c0.287-1.16,0.563-2.436,0.033-3.508c-0.753-1.524-2.705-1.897-4.368-2.252
					c-4.51-0.963-8.732-3.163-12.167-6.23c-0.868-0.775-1.687-1.605-2.447-2.486c-0.588-0.681-1.338-2.252-2.139-2.64
					C300.574,114.178,298.878,118.394,298.054,119.707z"/>
			</g>
			<g>
				<g>
					<g>
						<path style="fill:#1D224A;" d="M322.194,47.987c7.254-0.711,14.856,0.67,20.903,4.739
							c6.047,4.069,10.319,11.008,10.307,18.296c-0.006,3.801-1.126,7.516-2.535,11.046c-1.243,3.114-2.782,6.219-5.284,8.452
							c-2.974,2.654-7.109,3.813-11.089,3.577c-3.979-0.236-7.804-1.78-11.14-3.962c-8.031-5.253-13.124-13.831-19.192-21.264
							c-1.181-1.446-2.43-2.898-3.061-4.654c-0.987-2.749-0.403-7.64,1.824-9.808c1.204-1.172,3.077-1.793,4.582-2.442
							c2.188-0.943,4.428-1.765,6.718-2.425C316.831,48.791,319.496,48.251,322.194,47.987z"/>
						
							<path style="fill:none;stroke:#FFFFFF;stroke-width:0.5;stroke-linecap:round;stroke-linejoin:round;stroke-miterlimit:10;" d="
							M346.501,55.593c-1.813,3.568-2.199,7.836-1.055,11.671c1.144,3.835,3.805,7.195,7.277,9.186"/>
					</g>
					<g>
						<path style="fill:#1D224A;" d="M293.66,39.323c-2.969-2.44-7.147-3.105-10.904-2.295c-3.68,0.793-7.054,2.935-9.338,5.926
							c-2.65,3.47-3.77,7.877-4.262,12.215c-0.279,2.454-0.379,4.94-0.962,7.34c-0.583,2.4-1.712,4.762-3.657,6.283
							c-2.902,2.268-6.98,2.231-10.598,1.542c0.054,2.002,2.191,3.234,4.1,3.843c4.212,1.345,8.875,1.618,13.019,0.078
							c4.144-1.54,7.659-5.071,8.536-9.404c0.25-1.235,0.29-2.509,0.593-3.733c0.302-1.224,0.926-2.446,2.017-3.076
							c1.616-0.933,3.635-0.304,5.501-0.264C296.858,57.974,300.157,44.661,293.66,39.323z"/>
						
							<path style="fill:none;stroke:#FFFFFF;stroke-width:0.5;stroke-linecap:round;stroke-linejoin:round;stroke-miterlimit:10;" d="
							M255.281,72.76c4.663,0.751,9.959-0.034,13.098-3.562c2.042-2.295,2.884-5.414,3.298-8.458
							c0.415-3.043,0.471-6.149,1.238-9.123c1.342-5.201,5.148-9.924,10.288-11.48c5.14-1.557,11.419,0.674,13.709,5.533"/>
						
							<path style="fill:none;stroke:#FFFFFF;stroke-width:0.5;stroke-linecap:round;stroke-linejoin:round;stroke-miterlimit:10;" d="
							M295.741,52.107c-1.755-2.389-4.612-3.932-7.572-4.091c-2.96-0.159-5.966,1.07-7.966,3.257
							c-2.623,2.866-3.361,6.943-3.854,10.797c-0.493,3.854-0.917,7.905-3.117,11.108"/>
					</g>
					<path style="fill:#F2E500;" d="M290.096,52.742c-0.111,0.711-0.037,1.443,0.146,2.139c0.828,3.149,3.722,5.325,5.06,8.294
						c4.027-3.14,8.054-6.281,12.082-9.421c-0.004,0.003-9.226-6.76-10.412-7.146c-1.558-0.507-2.159,0.964-3.33,1.789
						C292.041,49.525,290.424,50.64,290.096,52.742z"/>
				</g>
				<path style="fill:#F8BD96;" d="M327.15,60.343c-4.479-0.156-8.999,1.282-12.564,3.999c-3.93,2.995-6.597,7.383-8.44,11.968
					c-1.969,4.898-3.101,10.189-2.786,15.458c0.314,5.269,2.138,10.516,5.559,14.536c3.421,4.02,8.5,6.71,13.778,6.798
					c6.501,0.108,12.659-3.72,16.46-8.994c3.801-5.275,5.485-11.823,5.99-18.305c0.371-4.762,0.079-9.696-1.532-14.226
					c-0.728-2.046-1.784-4.625-3.414-6.133c-1.344-1.243-3.478-2.304-5.113-3.102C332.619,61.135,329.897,60.439,327.15,60.343z"/>
				<g>
					
						<path style="fill:none;stroke:#1D224A;stroke-width:1.027;stroke-linecap:round;stroke-linejoin:round;stroke-miterlimit:10;" d="
						M332.178,80.618c-0.455,3.873,0.102,7.86,1.601,11.461c0.111,0.267,0.229,0.54,0.241,0.83c0.028,0.723-0.642,1.321-1.35,1.47
						s-1.439-0.039-2.138-0.226"/>
					
						<path style="fill:none;stroke:#1D224A;stroke-width:1.027;stroke-linecap:round;stroke-linejoin:round;stroke-miterlimit:10;" d="
						M325.548,81.255c-0.235-2.092-1.847-3.961-3.882-4.502c-2.035-0.54-4.361,0.283-5.604,1.983"/>
					
						<path style="fill:none;stroke:#1D224A;stroke-width:1.027;stroke-linecap:round;stroke-linejoin:round;stroke-miterlimit:10;" d="
						M334.177,79.527c-0.012-0.052-0.024-0.105-0.036-0.157c1.084-1.161,2.827-1.659,4.361-1.245
						c1.533,0.414,2.789,1.723,3.14,3.272"/>
					<path style="fill:#1D224A;" d="M318.103,84.179c-0.001,0.351-0.001,0.707,0.097,1.044c0.098,0.337,0.308,0.658,0.626,0.807
						c0.445,0.208,0.984,0.03,1.372-0.27c0.64-0.495,1.004-1.326,0.935-2.132c-0.077-0.908-0.88-1.841-1.875-1.741
						C318.18,81.996,318.105,83.323,318.103,84.179z"/>
					<path style="fill:#1D224A;" d="M335.359,86.565c0.199,0.343,0.551,0.611,0.947,0.644c0.591,0.049,1.123-0.435,1.326-0.993
						c0.326-0.898,0.332-3.352-1.16-2.996C335.197,83.526,334.78,85.57,335.359,86.565z"/>
					<path style="fill:#FFFDFE;" d="M318.089,95.974c-0.307,0.368-0.429,0.927-0.448,1.429c-0.204,5.438,5.987,8.852,10.753,6.936
						c1.139-0.458,6.16-4.083,4.093-5.416c-1.49-0.961-3.919-0.188-5.607-0.553c-2.306-0.499-4.547-1.298-6.646-2.374
						c-0.524-0.269-1.122-0.562-1.675-0.359C318.368,95.707,318.214,95.825,318.089,95.974z"/>
					<path style="fill:#F8657E;" d="M311.583,91.262c-0.25,0.687-0.221,1.471,0.079,2.138c0.417,0.927,1.464,1.61,2.454,1.376
						c0.594-0.14,1.081-0.573,1.447-1.061c0.405-0.54,0.7-1.183,0.727-1.858c0.028-0.675-0.241-1.379-0.782-1.783
						C314.141,89.056,312.143,89.723,311.583,91.262z"/>
					<path style="fill:#F8657E;" d="M336.343,94.49c-0.224,1.06,0.209,2.294,1.176,2.782c0.724,0.365,1.635,0.258,2.316-0.182
						c0.681-0.44,1.14-1.174,1.346-1.958c0.43-1.632-0.415-3.136-2.164-3.275C337.676,91.75,336.592,93.315,336.343,94.49z"/>
				</g>
				<g>
					<path style="fill:#1D224A;" d="M289.387,74.62c-0.192,6.023,2.041,11.997,5.692,16.792c1.578,2.073,3.799,4.101,6.395,3.877
						c1.536-0.133,2.893-1.051,4.026-2.096c3.087-2.848,5.043-6.891,5.359-11.079c0.139-1.843-0.002-3.803,0.891-5.422
						c0.795-1.442,2.3-2.367,3.858-2.9c1.557-0.533,3.206-0.736,4.807-1.116c3.764-0.894,7.426-2.931,9.406-6.255
						c1.98-3.324,1.834-8.042-0.983-10.694c-1.517-1.428-3.573-2.12-5.594-2.629c-4.811-1.212-9.882-1.612-14.747-0.642
						c-8.017,1.598-14.561,7.249-17.582,14.836C289.988,69.62,289.467,72.114,289.387,74.62z"/>
					
						<path style="fill:none;stroke:#FFFFFF;stroke-width:0.5;stroke-linecap:round;stroke-linejoin:round;stroke-miterlimit:10;" d="
						M331.459,60.288c-1.321-4.246-5.316-7.247-9.588-8.484c-4.271-1.238-8.821-0.979-13.246-0.53"/>
					
						<path style="fill:none;stroke:#FFFFFF;stroke-width:0.5;stroke-linecap:round;stroke-linejoin:round;stroke-miterlimit:10;" d="
						M301.98,56.001c0.68,4.528-0.117,9.267-2.242,13.323c-2.124,4.057-5.564,7.411-9.673,9.433"/>
					
						<path style="fill:none;stroke:#FFFFFF;stroke-width:0.5;stroke-linecap:round;stroke-linejoin:round;stroke-miterlimit:10;" d="
						M292.55,87.008c4.835-1.481,10.508-5.424,11.917-10.482c0.493-1.771,0.803-3.635,1.755-5.208
						c1.241-2.051,3.397-3.332,5.302-4.787c1.905-1.455,3.745-3.408,3.83-5.804c0.077-2.17-1.364-4.167-3.183-5.353
						c-1.818-1.186-3.978-1.709-6.092-2.205"/>
				</g>
				<g>
					<path style="fill:#F8BD96;" d="M302.477,83.934c-1.45-1.493-3.673-2.723-5.544-1.812c-1.622,0.79-2.184,2.804-2.374,4.598
						c-0.322,3.036-0.081,6.131,0.706,9.081c0.584,2.188,1.609,4.46,3.606,5.529c1.758,0.941,4.083,0.685,5.594-0.616
						C309.215,96.624,306.018,87.578,302.477,83.934z"/>
					
						<path style="fill:none;stroke:#1D224A;stroke-width:1.027;stroke-linecap:round;stroke-linejoin:round;stroke-miterlimit:10;" d="
						M301.425,88.232c-0.227-0.638-0.466-1.297-0.935-1.785c-0.47-0.488-1.238-0.758-1.842-0.451
						c-0.604,0.306-0.833,1.043-0.946,1.71c-0.361,2.125-0.14,4.347,0.632,6.36c0.361,0.941,0.891,1.89,1.782,2.361
						c0.891,0.472,2.204,0.24,2.601-0.687"/>
				</g>
			</g>
			<g>
				<g>
					<path style="fill:#F8BD96;" d="M322.159,399.423c0.5,5.607,0.93,11.212,0.573,16.839c-0.237,3.735-0.729,7.598,0.499,11.132
						c1.228,3.535,4.869,6.588,8.498,5.674c2.26-0.569,3.958-2.536,4.818-4.702s1.015-4.537,1.161-6.863
						c2.198-35.145,8.701-70.239,12.659-105.324c3.316-29.395,6.167-59.284,1.044-88.418c-0.962-5.473-2.28-11.071-5.557-15.559
						c-3.277-4.488-8.97-7.627-14.386-6.381c-21.077,4.85-13.103,49.552-12.797,63.707c0.602,27.812,1.203,55.625,1.805,83.437
						c0.234,10.813,0.468,21.626,0.702,32.439C321.277,390.087,321.742,394.755,322.159,399.423z"/>
					<path style="fill:#F8657E;" d="M319.158,304.885c-0.022,1.068,0.024,2.294,0.852,2.969c0.85,0.693,2.1,0.461,3.152,0.148
						c6.173-1.838,11.809-5.198,16.882-9.166c5.073-3.969,9.628-8.552,14.167-13.121c-0.483-1.703-0.967-3.407-1.45-5.11
						c0.112,0.395-7.829,3.629-8.596,3.945c-3.029,1.245-6.11,2.364-9.232,3.353c-3.083,0.977-6.207,1.828-9.36,2.548
						c-2.167,0.495-5.919,0.214-6.175,2.961C319.047,297.186,319.236,301.093,319.158,304.885z"/>
					
						<path style="fill:none;stroke:#1D224A;stroke-width:0.9409;stroke-linecap:round;stroke-linejoin:round;stroke-miterlimit:10;" d="
						M336.307,320.097c-1.803,1.65-2.937,4.01-3.099,6.449c-0.161,2.439,0.652,4.928,2.222,6.801"/>
				</g>
				<g>
					<g>
						<path style="fill:#1D224A;" d="M318.621,452.26c2.044,0.609,4.088,1.217,6.133,1.826c0.774-7.674,2.07-15.296,3.876-22.794
							c-3.105-1.998-5.648-4.859-7.268-8.177c0.108,0.22-0.803,2.654-0.85,3.125c-0.087,0.864-0.046,1.739-0.102,2.605
							c-0.154,2.401-0.545,4.794-0.785,7.189C319.085,441.426,318.75,446.841,318.621,452.26z"/>
						<path style="fill:#1D224A;" d="M327.686,426.522c2.941,0.236,5.961-1.167,7.678-3.566c0.682-0.953,1.245-2.113,2.325-2.568
							c1.286-0.541,2.814,0.198,3.661,1.306c0.846,1.109,1.189,2.507,1.598,3.841c2.551,8.337,8.527,15.568,16.233,19.645
							c1.436,0.759,2.955,1.432,4.126,2.557c1.172,1.125,1.94,2.851,1.423,4.391c-0.669,1.995-3.043,2.776-5.119,3.122
							c-5.433,0.906-11.111,0.72-16.32-1.072c-5.209-1.791-9.917-5.261-12.725-10c-0.919-1.552-1.868-3.412-3.635-3.77
							c-0.971-0.197-2.07,0.111-2.911-0.413c-0.75-0.467-1.005-1.422-1.191-2.286c-0.912-4.242-2.461-9.277-2.337-13.633
							c0.07-2.459,1.314-0.409,2.468,0.524C324.301,425.687,325.963,426.38,327.686,426.522z"/>
					</g>
					
						<path style="fill:none;stroke:#FFFFFF;stroke-width:0.5;stroke-linecap:round;stroke-linejoin:round;stroke-miterlimit:10;" d="
						M335.176,429.139c-0.822,0.517-1.334,1.578-1.029,2.5c0.26,0.786,1.049,1.316,1.866,1.451c0.818,0.134,1.656-0.07,2.425-0.378
						c3.139-1.258,5.385-4.162,8.502-5.473c0.957-0.402,2.041-0.644,3.03-0.331c0.989,0.313,1.807,1.325,1.613,2.345
						c-0.242,1.268-1.739,1.817-3.018,1.994c-2.373,0.328-5.418,0.42-7.553-0.814C339.252,429.415,337.307,427.799,335.176,429.139z
						"/>
					
						<path style="fill:none;stroke:#FFFFFF;stroke-width:0.5;stroke-linecap:round;stroke-linejoin:round;stroke-miterlimit:10;" d="
						M337.731,438.035c2.042-0.188,3.902-1.192,5.797-1.977c1.895-0.785,4.041-1.362,5.973-0.673"/>
					
						<path style="fill:none;stroke:#FFFFFF;stroke-width:0.5;stroke-linecap:round;stroke-linejoin:round;stroke-miterlimit:10;" d="
						M342.594,442.551c3.09-2.035,6.821-3.082,10.519-2.953"/>
					
						<path style="fill:none;stroke:#FFFFFF;stroke-width:0.5;stroke-linecap:round;stroke-linejoin:round;stroke-miterlimit:10;" d="
						M349.124,445.958c2.532-1.514,5.364-2.527,8.282-2.961"/>
				</g>
			</g>
			<g>
				<g>
					<path style="fill:#F8BD96;" d="M274.113,398.171c-0.725,6.403-1.754,12.744-3.273,18.964c-1.013,4.147-1.985,9.192,1.11,12.131
						c2.657,2.523,7.23,1.919,10.023-0.454c2.793-2.373,4.152-6.01,5.041-9.565c1.22-4.879,3.137-9.576,4.217-14.448
						c6.447-29.082,12.444-58.263,17.989-87.53c5.507-29.064,10.588-58.656,7.66-88.092c-0.55-5.53-1.445-11.211-4.377-15.932
						c-2.932-4.721-8.374-8.277-13.868-7.44c-21.381,3.259-16.776,48.432-17.53,62.57c-1.482,27.779-2.965,55.559-4.447,83.338
						C275.841,367.021,275.856,382.776,274.113,398.171z"/>
					<path style="fill:#F8657E;" d="M279.409,301.289c-0.027,1.543,0.079,3.29,1.248,4.297c1.307,1.126,3.288,0.783,4.946,0.305
						c3.056-0.883,6.036-2.008,9.013-3.132c4.711-1.779,9.422-3.558,14.133-5.337c1.064-0.402,2.147-0.815,3.036-1.524
						c0.889-0.71,1.567-1.779,1.519-2.915c-10.313,0.546-20.737-1.094-30.384-4.781c-0.681-0.26-1.435-0.533-2.119-0.281
						c-1.171,0.43-0.436,1.198-0.398,1.865c0.067,1.186-0.354,2.571-0.488,3.758C279.623,296.116,279.455,298.702,279.409,301.289z"
						/>
					
						<path style="fill:none;stroke:#1D224A;stroke-width:0.9409;stroke-linecap:round;stroke-linejoin:round;stroke-miterlimit:10;" d="
						M295.476,317.827c-1.949,1.803-3.247,4.294-3.609,6.924c-0.362,2.63,0.216,5.379,1.606,7.641"/>
				</g>
				<g>
					<g>
						<path style="fill:#1D224A;" d="M264.795,450.503c1.993,0.759,3.987,1.517,5.98,2.276c1.342-7.596,3.2-15.1,5.558-22.444
							c-2.948-2.223-5.272-5.265-6.64-8.694c0.091,0.228-0.998,2.587-1.08,3.053c-0.151,0.855-0.175,1.731-0.295,2.59
							c-0.332,2.383-0.899,4.74-1.316,7.111C266.062,439.733,265.325,445.108,264.795,450.503z"/>
						<path style="fill:#1D224A;" d="M275.746,425.509c2.916,0.453,6.031-0.721,7.922-2.986c0.751-0.9,1.398-2.015,2.509-2.388
							c1.322-0.444,2.792,0.406,3.553,1.575c0.762,1.169,1,2.589,1.308,3.949c1.925,8.503,7.347,16.159,14.73,20.796
							c1.375,0.864,2.84,1.648,3.925,2.857c1.085,1.209,1.723,2.987,1.094,4.484c-0.815,1.94-3.241,2.543-5.337,2.734
							c-5.486,0.5-11.134-0.107-16.195-2.28c-5.061-2.173-9.499-5.983-11.948-10.918c-0.802-1.615-1.609-3.541-3.345-4.029
							c-0.954-0.268-2.072-0.043-2.872-0.628c-0.714-0.522-0.897-1.492-1.018-2.368c-0.595-4.298-1.766-9.435-1.319-13.769
							c0.252-2.447,1.341-0.311,2.422,0.706C272.432,424.425,274.038,425.24,275.746,425.509z"/>
					</g>
					<g>
						
							<path style="fill:none;stroke:#FFFFFF;stroke-width:0.5;stroke-linecap:round;stroke-linejoin:round;stroke-miterlimit:10;" d="
							M284.995,426.884c-1.349-0.238-2.859,0.208-3.68,1.305c-0.821,1.097-0.747,2.84,0.311,3.71
							c0.877,0.721,2.174,0.716,3.234,0.309c1.06-0.407,1.947-1.153,2.847-1.844c2.341-1.796,4.909-3.299,7.622-4.46
							c0.952-0.408,1.951-0.779,2.986-0.765c1.035,0.014,2.123,0.49,2.6,1.409c0.597,1.151,0.031,2.648-0.994,3.443
							c-1.025,0.795-2.381,1.019-3.678,1.044c-2.236,0.044-4.699-0.393-6.685-1.466C287.98,428.716,286.852,427.212,284.995,426.884
							z"/>
						
							<path style="fill:none;stroke:#FFFFFF;stroke-width:0.5;stroke-linecap:round;stroke-linejoin:round;stroke-miterlimit:10;" d="
							M286.539,438.547c3.506-1.445,7.256-2.296,11.043-2.504"/>
						
							<path style="fill:none;stroke:#FFFFFF;stroke-width:0.5;stroke-linecap:round;stroke-linejoin:round;stroke-miterlimit:10;" d="
							M290.576,444.154c3.606-2.142,7.796-3.288,11.99-3.28"/>
						
							<path style="fill:none;stroke:#FFFFFF;stroke-width:0.5;stroke-linecap:round;stroke-linejoin:round;stroke-miterlimit:10;" d="
							M296.046,448.195c3.341-2.436,7.098-4.299,11.06-5.483"/>
					</g>
				</g>
			</g>
			<g>
				<path style="fill:#1D224A;" d="M271.213,286.405c-0.146,2.805-0.244,5.805,1.221,8.201c1.722,2.816,5.129,4.044,8.314,4.909
					c22.554,6.132,47.302,3.812,68.324-6.404c3.496-1.699,7.101-3.822,8.772-7.332c1.3-2.73,1.226-5.887,1.123-8.91
					c-0.238-7-0.492-13.999-0.863-20.993c-0.619-11.64-1.562-23.277-3.32-34.806c-0.75-4.919-1.477-9.979-3.042-14.736
					c-0.388-1.18-5.913-13.82-6.764-13.287c-4.563,2.853-10.64,3.309-15.85,4.113c-13.187,2.033-27.388,3.489-39.365-3.688
					c-1.757,4.067-3.608,8.106-5.272,12.204c-1.979,4.873-3.637,9.874-5.032,14.944c-2.759,10.026-4.479,20.311-5.659,30.633
					C272.462,262.93,271.821,274.672,271.213,286.405z"/>
				<path style="fill:none;stroke:#FFFFFF;stroke-width:0.5;stroke-linecap:round;stroke-linejoin:round;stroke-miterlimit:10;" d="
					M298.885,197.255c-9.826,27.745-20.747,71.847-16.479,102.694"/>
				<path style="fill:none;stroke:#FFFFFF;stroke-width:0.5;stroke-linecap:round;stroke-linejoin:round;stroke-miterlimit:10;" d="
					M285.983,202.994c9.455,6.309,20.957,9.495,32.31,8.95c11.353-0.545,22.497-4.818,31.304-12.004"/>
				<path style="fill:#0F1125;" d="M317.37,231.507c-2.28,1.014-4.602,2.056-6.45,3.732c-3.753,3.405-4.898,8.752-5.844,13.73
					c-1.652,8.696-3.305,17.392-4.957,26.088c-0.431,2.267-0.847,4.691,0.046,6.818c1.326,3.157,5.176,4.57,8.59,4.314
					c7.563-0.567,13.248-7.277,16.337-14.203c3.089-6.926,4.55-14.592,8.517-21.055c4.074-6.636,10.633-11.729,13.462-18.984
					c1.163-2.984,1.554-6.595-0.294-9.21c-3.021-4.275-7.682-0.984-11.103,0.626C329.638,226.206,323.467,228.795,317.37,231.507z"
					/>
			</g>
		</g>
		<g>
			<g>
				<g>
					<g>
						<path style="fill:#CCCBCB;" d="M67.251,209.91c-2.386-0.426-4.656-1.486-6.515-3.042c-0.184-0.154-0.37-0.321-0.466-0.541
							c-0.096-0.22-0.077-0.509,0.107-0.663c0.094-0.08,0.218-0.114,0.337-0.146c4.993-1.35,9.963-2.665,15.017-3.771
							c5.776-1.279,11.568-2.482,17.368-3.644c6.548-1.312,13.106-2.571,19.664-3.831c12.232-2.349,24.706-4.709,37.067-3.179
							c15.727,1.947,30.377,10.096,46.215,10.628c-22.865,5.944-46.287,9.746-69.859,11.338c-11.853,0.801-23.741,1.044-35.62,0.854
							c-4.893-0.078-9.822-0.305-14.628-1.287c-3.508-0.717-10.646-2.188-12.421-5.767c-1.253-2.527,1.676-2.683,3.48-3.111
							c0.338-0.08,0.676-0.16,1.014-0.24"/>
						<polygon style="fill:#B3B3B2;" points="150.988,220.357 264.988,213.071 264.988,232.571 150.988,239.857 						"/>
						<path style="fill:#FFFFFF;" d="M59.702,210.714c0-0.539,0.413-5.047,0.341-5.088c3.942,2.22,7.916,4.454,12.218,5.853
							c4.302,1.398,9.008,1.921,13.354,0.663c3.604-1.043,6.769-3.239,10.304-4.496c6.379-2.267,11.325-0.476,17.359,1.475
							c5.833,1.886,11.951,3.355,17.853,5.161c1.322,0.404,19.856,5.092,19.856,6.075c0,0.005,0,19.5,0,19.5L59.702,210.714z"/>
						<polygon style="fill:#CCCBCB;" points="105.345,206.902 150.988,220.357 264.988,213.071 218.472,196.031 						"/>
						<line style="fill:none;stroke:#1D224A;stroke-miterlimit:10;" x1="100.299" y1="206.665" x2="181.975" y2="199.538"/>
					</g>
					<line style="fill:none;stroke:#1D224A;stroke-miterlimit:10;" x1="264.988" y1="232.571" x2="150.988" y2="239.857"/>
				</g>
				<g>
					<polygon style="fill:#1D224A;" points="123.417,475.393 111.559,478.071 102.959,473.286 102.959,451.335 123.417,451.335 
											"/>
					<polygon style="fill:#1D224A;" points="46.731,426.536 34.874,429.214 26.274,424.429 26.274,402.478 46.731,402.478 					"/>
					<polygon style="fill:#1D224A;" points="255.931,464.821 244.074,467.5 235.473,462.714 235.473,440.764 255.931,440.764 					
						"/>
				</g>
				<g>
					<g>
						<polygon style="fill:#1D224A;" points="262.614,305.769 207.584,275.514 144.003,278.857 146.488,322.143 						"/>
						<path style="fill:#0F1125;" d="M212.618,293.853c4.398,0.067,8.807,0.448,13.202,0.101c1.959-0.155,3.806-0.718,5.726-0.904
							c1.076-0.105,2.135-0.281,3.188-0.529c0.398-0.094,2.362-0.908,2.646-0.732c-6.091-3.757-13.478-6.006-18.553-11.191
							c-3.197-3.267-5.515-7.512-9.437-9.858c-2.717-1.625-5.939-2.162-9.09-2.463c-6.314-0.603-12.799-0.366-18.823,1.622
							c-6.024,1.988-11.571,5.854-14.773,11.329c-4.115,7.035-3.939,15.907-1.579,23.708c0.338,1.117,1.067,2.789,2.401,2.959
							c1.659,0.211,2.106-1.538,2.664-2.71c1.233-2.591,3.171-3.315,5.763-4.379c7.42-3.044,15.236-5.119,23.187-6.168
							C203.606,294.049,208.114,293.784,212.618,293.853z"/>
						<path style="fill:none;stroke:#0F1125;stroke-miterlimit:10;" d="M171.954,310.661c2.608-4.583,7.825-7.01,12.91-8.406
							c8.996-2.469,18.439-2.593,27.747-3.209s18.831-1.815,27.08-6.174"/>
						<path style="fill:none;stroke:#1D224A;stroke-miterlimit:10;" d="M205.527,288.524c1.153,0.11,2.323,0.258,3.461,0.045
							c1.138-0.213,2.265-0.86,2.727-1.922c0.531-1.22,0.05-2.682-0.803-3.703c-0.854-1.021-2.026-1.71-3.128-2.456
							c-1.102-0.746-2.193-1.617-2.743-2.829c-0.519-1.143-0.58-2.604-1.595-3.342c-0.691-0.503-1.616-0.496-2.47-0.468
							c-4.514,0.145-9.029,0.29-13.543,0.435c-4.051,0.13-8.249,0.296-11.869,2.118c-3.758,1.892-6.516,5.447-8.002,9.384
							c-1.37,3.631-2.067,8.152-1.533,12.025c0.537,3.894,4.475,0.417,6.013-0.681c6.083-4.34,13.501-7.058,20.85-8.21
							C197.066,288.266,201.321,288.124,205.527,288.524z"/>
					</g>
					<path style="fill:#B3B3B2;" d="M173.426,312.345c-0.24-0.212-0.473-0.439-0.697-0.681c-1.784-1.928-2.879-4.396-3.663-6.902
						c-2.023-6.466-2.058-13.83,1.308-19.709c4.585-8.007,12.133-8.07,20.211-8.455c18.321-0.872,36.638-2.591,54.627-6.168
						c4.899-0.974,9.929-2.155,13.952-5.118c2.168-1.597,3.967-3.846,4.967-6.332l0.857-26.409l-114,7.286L111.56,284v178.657
						h39.428l106.837-9.239l4.789-147.65c-15.854-0.182-31.522,2.653-47.105,5.218c-7.899,1.3-15.814,2.549-23.786,3.319
						C185.946,314.863,178.199,316.556,173.426,312.345z"/>
					<g>
						<path style="fill:#4E4D4D;stroke:#1D224A;stroke-miterlimit:10;" d="M246.789,407.972c-29.193,1.543-58.387,3.085-87.58,4.627
							c0.117-4.569,0.235-9.137,0.352-13.706c29.57-1.617,59.53-5.012,89.024-2.344C248.514,399.972,248.101,404.81,246.789,407.972
							z"/>
						<path style="fill:none;stroke:#1D224A;stroke-miterlimit:10;" d="M159.475,404.236c1.651-2.192,3.701-4.082,6.019-5.552"/>
						<path style="fill:none;stroke:#1D224A;stroke-miterlimit:10;" d="M159.651,410.409c4.449-4.387,9.166-8.502,14.116-12.314"/>
						<path style="fill:none;stroke:#1D224A;stroke-miterlimit:10;" d="M166.213,411.903c6.044-4.37,11.752-9.204,17.057-14.446"/>
						<path style="fill:none;stroke:#1D224A;stroke-miterlimit:10;" d="M178.55,411.88c5.028-4.949,10.055-9.898,15.083-14.847"/>
						<path style="fill:none;stroke:#1D224A;stroke-miterlimit:10;" d="M190.211,410.955c5.421-4.447,10.398-9.435,14.832-14.866"/>
						<path style="fill:none;stroke:#1D224A;stroke-miterlimit:10;" d="M200.118,410.443c5.372-4.07,10.186-8.875,14.267-14.239"/>
						<path style="fill:none;stroke:#1D224A;stroke-miterlimit:10;" d="M212.092,409.764c5.229-3.843,9.702-8.711,13.09-14.245"/>
						<path style="fill:none;stroke:#1D224A;stroke-miterlimit:10;" d="M223.376,408.77c4.46-3.899,8.509-8.268,12.057-13.012"/>
						<path style="fill:none;stroke:#1D224A;stroke-miterlimit:10;" d="M234.688,408.447c3.655-3.787,6.953-7.917,9.838-12.318"/>
						<path style="fill:none;stroke:#1D224A;stroke-miterlimit:10;" d="M159.948,402.435c2.376,2.958,4.545,6.083,6.485,9.344"/>
						<path style="fill:none;stroke:#1D224A;stroke-miterlimit:10;" d="M162.849,398.896c3.471,4.096,6.647,8.442,9.496,12.993"/>
						<path style="fill:none;stroke:#1D224A;stroke-miterlimit:10;" d="M169.591,398.356c3.969,3.797,7.357,8.2,10.01,13.01"/>
						<path style="fill:none;stroke:#1D224A;stroke-miterlimit:10;" d="M179.837,398.034c4.152,3.791,7.839,8.091,10.951,12.774"/>
						<path style="fill:none;stroke:#1D224A;stroke-miterlimit:10;" d="M189.927,397.15c4.438,3.812,8.133,8.484,10.819,13.681"/>
						<path style="fill:none;stroke:#1D224A;stroke-miterlimit:10;" d="M201.523,396.866c3.406,3.877,6.229,8.265,8.345,12.972"/>
						<path style="fill:none;stroke:#1D224A;stroke-miterlimit:10;" d="M211.155,395.798c3.208,4.056,5.778,8.615,7.586,13.46"/>
						<path style="fill:none;stroke:#1D224A;stroke-miterlimit:10;" d="M219.72,395.799c3.718,3.72,6.662,8.21,8.592,13.102"/>
						<path style="fill:none;stroke:#1D224A;stroke-miterlimit:10;" d="M229.267,395.609c3.452,3.588,6.196,7.855,8.029,12.484"/>
						<path style="fill:none;stroke:#1D224A;stroke-miterlimit:10;" d="M238.544,396.405c3.452,3.169,6.031,7.279,7.382,11.766"/>
					</g>
					<g>
						<path style="fill:#4E4D4D;stroke:#1D224A;stroke-miterlimit:10;" d="M246.789,435.77c-29.193,1.543-58.387,3.085-87.58,4.628
							c0.117-4.569,0.235-9.138,0.352-13.706c29.57-1.617,59.53-5.012,89.024-2.344C248.514,427.77,248.101,432.608,246.789,435.77z
							"/>
						<path style="fill:none;stroke:#1D224A;stroke-miterlimit:10;" d="M159.475,432.034c1.651-2.192,3.701-4.083,6.019-5.552"/>
						<path style="fill:none;stroke:#1D224A;stroke-miterlimit:10;" d="M159.651,438.207c4.449-4.387,9.166-8.502,14.116-12.314"/>
						<path style="fill:none;stroke:#1D224A;stroke-miterlimit:10;" d="M166.213,439.701c6.044-4.37,11.752-9.204,17.057-14.446"/>
						<path style="fill:none;stroke:#1D224A;stroke-miterlimit:10;" d="M178.55,439.678c5.028-4.949,10.055-9.898,15.083-14.847"/>
						<path style="fill:none;stroke:#1D224A;stroke-miterlimit:10;" d="M190.211,438.753c5.421-4.447,10.398-9.435,14.832-14.866"/>
						<path style="fill:none;stroke:#1D224A;stroke-miterlimit:10;" d="M200.118,438.241c5.372-4.07,10.186-8.875,14.267-14.239"/>
						<path style="fill:none;stroke:#1D224A;stroke-miterlimit:10;" d="M212.092,437.562c5.229-3.843,9.702-8.71,13.09-14.245"/>
						<path style="fill:none;stroke:#1D224A;stroke-miterlimit:10;" d="M223.376,436.568c4.46-3.899,8.509-8.268,12.057-13.012"/>
						<path style="fill:none;stroke:#1D224A;stroke-miterlimit:10;" d="M234.688,436.245c3.655-3.787,6.953-7.917,9.838-12.318"/>
						<path style="fill:none;stroke:#1D224A;stroke-miterlimit:10;" d="M159.948,430.233c2.376,2.958,4.545,6.083,6.485,9.344"/>
						<path style="fill:none;stroke:#1D224A;stroke-miterlimit:10;" d="M162.849,426.694c3.471,4.096,6.647,8.442,9.496,12.993"/>
						<path style="fill:none;stroke:#1D224A;stroke-miterlimit:10;" d="M169.591,426.154c3.969,3.797,7.357,8.2,10.01,13.01"/>
						<path style="fill:none;stroke:#1D224A;stroke-miterlimit:10;" d="M179.837,425.832c4.152,3.791,7.839,8.091,10.951,12.774"/>
						<path style="fill:none;stroke:#1D224A;stroke-miterlimit:10;" d="M189.927,424.948c4.438,3.812,8.133,8.484,10.819,13.681"/>
						<path style="fill:none;stroke:#1D224A;stroke-miterlimit:10;" d="M201.523,424.664c3.406,3.877,6.229,8.265,8.345,12.972"/>
						<path style="fill:none;stroke:#1D224A;stroke-miterlimit:10;" d="M211.155,423.596c3.208,4.056,5.778,8.615,7.586,13.46"/>
						<path style="fill:none;stroke:#1D224A;stroke-miterlimit:10;" d="M219.72,423.597c3.718,3.72,6.662,8.21,8.592,13.102"/>
						<path style="fill:none;stroke:#1D224A;stroke-miterlimit:10;" d="M229.267,423.408c3.452,3.588,6.196,7.855,8.029,12.484"/>
						<path style="fill:none;stroke:#1D224A;stroke-miterlimit:10;" d="M238.544,424.203c3.452,3.169,6.031,7.279,7.382,11.766"/>
					</g>
					<g>
						<g>
							<polygon style="fill:#FFFFFF;" points="150.988,338.936 202.845,367.571 202.845,379.357 150.988,353.293 							"/>
							<polygon style="fill:#1D224A;" points="202.845,367.571 301.845,357.714 301.845,367.571 202.845,379.357 							"/>
							<polygon style="fill:#E6E6E6;" points="150.988,338.936 245.917,330.929 301.845,357.714 202.845,367.571 							"/>
						</g>
						<g>
							<polygon style="fill:#FFFFFF;" points="166.988,335.429 213.959,362.077 271.387,356.216 224.03,332.334 							"/>
							<polygon style="fill:#FFFFFF;" points="176.315,334.388 213.959,355.647 271.387,349.786 229.001,328.834 							"/>
							<path style="fill:#2BAAE2;" d="M214.189,348.88c2.611,0.405,5.584,0.001,7.591-0.968c2.007-0.969,3.027-2.455,2.799-3.885
								c-0.328-2.058-3.307-3.924-7.097-4.446c-3.789-0.522-10.542,0.561-11.52,2.858
								C204.917,344.892,209.945,348.221,214.189,348.88z"/>
							<path style="fill:#E62379;" d="M222.294,347.437c2.529,1.311,6.532,1.717,9.882,1.103c3.917-0.717,6.855-3.024,5.72-5.126
								c-0.818-1.516-3.409-2.583-6.094-3.278C223.341,337.946,215.589,343.961,222.294,347.437z"/>
							<path style="fill:#F2E500;" d="M214.29,339.205c0.568,1.627,2.947,3.042,5.944,3.535c3.811,0.627,8.349-0.355,10.199-2.22
								c1.85-1.865,0.774-4.4-2.424-5.659C221.966,332.483,212.906,335.238,214.29,339.205z"/>
							<polyline style="fill:none;stroke:#191A1A;stroke-miterlimit:10;" points="177.943,335.308 213.959,355.647 261.632,350.781 
															"/>
						</g>
						<polygon style="fill:#191A1A;" points="245.702,325.889 150.988,334.286 150.988,338.936 245.702,330.539 						"/>
					</g>
					<g>
						<polyline style="fill:none;stroke:#1D224A;stroke-miterlimit:10;" points="150.988,462.657 150.988,220.357 264.988,213.071 
													"/>
						<line style="fill:none;stroke:#1D224A;stroke-miterlimit:10;" x1="150.988" y1="239.857" x2="264.988" y2="232.571"/>
					</g>
				</g>
				<g>
					<g>
						<polygon style="fill:#E6E6E6;" points="59.702,210.714 26.274,246.286 111.559,284 150.988,239.857 						"/>
						<g>
							<polygon style="fill:#1D224A;" points="60.44,216.714 36.158,242.818 79.061,261.571 103.39,231.891 							"/>
							<g>
								<defs>
									<polygon id="SVGID_1_" points="60.44,216.714 36.158,242.818 79.061,261.571 103.39,231.891 									"/>
								</defs>
								<clipPath id="SVGID_00000026848636868414861460000012323744920735063217_">
									<use xlink:href="#SVGID_1_"  style="overflow:visible;"/>
								</clipPath>
								<path style="clip-path:url(#SVGID_00000026848636868414861460000012323744920735063217_);fill:#2BAAE2;" d="M58.048,232.723
									c0.968-0.69,1.916-1.412,2.874-2.111c3.012-2.199,6.422-4.275,10.15-4.192c1.795,0.04,3.536,0.584,5.312,0.85
									c1.775,0.266,3.716,0.217,5.197-0.798c0.781-0.536,1.373-1.301,2.077-1.936c0.704-0.635,1.609-1.161,2.55-1.044
									c1.244,0.155,2.127,1.483,2.035,2.733c-0.108,1.471-1.189,2.133-2.061,3.114c-1.006,1.132-1.732,2.241-3.066,3.068
									c-2.487,1.543-5.684,1.883-8.439,0.898c-1.509-0.539-2.951-1.462-4.552-1.422c-1.554,0.039-2.927,0.982-4.13,1.966
									c-2.974,2.432-5.608,5.377-9.055,7.074c-5.845,2.878-13.138,1.533-18.532-2.122c-0.341-0.231-0.712-0.534-0.717-0.947
									c-0.003-0.316,0.215-0.587,0.421-0.827c0.812-0.943,1.588-1.94,2.446-2.841c0.933-0.98,1.045-0.661,2.183-0.038
									c1.621,0.888,3.415,1.452,5.245,1.698c2.498,0.336,4.402,0.185,6.649-0.983C55.829,234.244,56.952,233.504,58.048,232.723z"
									/>
								<path style="clip-path:url(#SVGID_00000026848636868414861460000012323744920735063217_);fill:#2BAAE2;" d="M64.206,244.654
									c2.743-2.275,5.022-5.391,8.441-6.399c2.62-0.773,5.438-0.141,8.044,0.68c2.606,0.821,5.217,1.843,7.949,1.848
									c4.926,0.009,9.19-3.227,13.034-6.308c0.168,2.355,0.335,4.711,0.503,7.066c-4.244,4.901-11.32,7.153-17.616,5.607
									c-2.59-0.636-5.172-1.868-7.802-1.42c-2.304,0.392-4.179,2.004-5.989,3.483c-2.596,2.122-5.35,4.117-8.463,5.364
									c-3.113,1.247-6.639,1.7-9.839,0.698c-1.831-0.573-7.604-3.772-3.881-5.573c1.541-0.745,3.33-0.49,4.977-0.655
									c1.845-0.185,3.665-0.625,5.39-1.305C60.853,246.993,62.637,245.956,64.206,244.654z"/>
								<path style="clip-path:url(#SVGID_00000026848636868414861460000012323744920735063217_);fill:#2BAAE2;" d="M56.933,223.978
									c1.781-0.766,3.314-2.011,5.044-2.885c3.317-1.676,7.341-1.889,10.815-0.572c-2.74-2.775-6.176-4.858-9.905-6.004
									c-0.57-0.175-1.171-0.33-1.758-0.223c-0.825,0.15-1.465,0.782-2.049,1.383c-2.186,2.248-4.517,4.418-6.587,6.773
									C49.563,225.784,56.933,224.368,56.933,223.978z"/>
								<path style="clip-path:url(#SVGID_00000026848636868414861460000012323744920735063217_);fill:#2BAAE2;" d="M74.146,255.454
									c2.063-0.396,4.187-0.063,6.264,0.251c2.077,0.314,4.214,0.607,6.26,0.135c-0.944,1.54-1.901,3.098-3.188,4.365
									c-1.287,1.268-2.958,2.237-4.762,2.325c-0.855,0.042-1.709-0.114-2.539-0.324c-1.41-0.355-6.272-1.44-6.592-3.086
									C69.211,257.179,72.757,255.72,74.146,255.454z"/>
							</g>
						</g>
						<g>
							<polygon style="fill:#1D224A;" points="119.788,233.143 86.674,268.842 110.419,278.857 144.003,240.702 							"/>
							<line style="fill:none;stroke:#E6E6E6;stroke-miterlimit:10;" x1="102.907" y1="275.689" x2="136.076" y2="238.227"/>
							<line style="fill:none;stroke:#E6E6E6;stroke-miterlimit:10;" x1="114.223" y1="239.143" x2="138.343" y2="247.132"/>
							<line style="fill:none;stroke:#E6E6E6;stroke-miterlimit:10;" x1="106.471" y1="247.5" x2="129.694" y2="256.958"/>
						</g>
					</g>
					<g>
						<polygon style="fill:#FFFFFF;" points="26.274,246.286 26.274,412.714 111.559,462.657 111.559,284 						"/>
						<g>
							<path style="fill:#1D224A;" d="M67.46,324.509c2.508,0.961,5.064,1.949,7.139,3.654c2.075,1.705,3.622,4.283,3.398,6.96
								c-0.088,1.053-0.615,2.236-1.651,2.443c-0.618,0.123-1.239-0.141-1.814-0.398c-7.529-3.377-15.058-6.755-22.587-10.132
								c-1.65-0.74-3.39-1.556-4.372-3.074c-0.981-1.518-0.759-3.952,0.893-4.687c2.282-1.015,6.302,0.376,8.496,1.216
								C60.462,321.829,63.961,323.169,67.46,324.509z"/>
							<path style="fill:#0F1125;" d="M49.42,324.239c0.898,1.011,2.105,1.685,3.294,2.329c6.616,3.579,13.454,6.788,20.597,9.147
								c0.221,0.073,0.476,0.142,0.673,0.02c0.251-0.155,0.249-0.545,0.075-0.782c-0.174-0.237-0.461-0.359-0.734-0.47
								c-5.988-2.437-11.976-4.875-17.964-7.312c-1.187-0.483-2.398-0.981-3.36-1.828c-0.962-0.847-1.643-2.124-1.442-3.389
								c0.076-0.48,0.272-0.985,0.081-1.431c-0.443-1.037-2.065-0.526-2.368,0.353C47.896,321.972,48.724,323.456,49.42,324.239z"/>
						</g>
						<g>
							<path style="fill:#1D224A;" d="M54.383,369.998c-1.527-0.405-3.273-0.738-4.592,0.131c-1.854,1.222-1.656,4.191-0.22,5.884
								c1.436,1.693,3.647,2.465,5.712,3.279c4.215,1.661,8.248,3.786,12,6.325c1.365,0.923,2.965,1.951,4.538,1.46
								c1.163-0.363,1.954-1.526,2.139-2.73c0.185-1.204-0.147-2.435-0.648-3.546C70.228,373.96,60.93,371.736,54.383,369.998z"/>
							<path style="fill:#0F1125;" d="M50.101,375.877c1.113,1.193,2.669,1.849,4.166,2.499c5.166,2.243,10.191,4.811,15.036,7.682
								c0.359,0.213,0.912,0.384,1.117,0.02c0.2-0.355-0.208-0.737-0.561-0.942c-3.075-1.784-6.151-3.569-9.226-5.353
								c-2.367-1.373-4.759-2.758-7.374-3.565c-0.846-0.261-1.758-0.487-2.373-1.125c-0.539-0.56-0.761-1.365-0.765-2.142
								c-0.004-0.79,0.256-1.514,0.36-2.281c-0.946-0.521-1.506,1.307-1.575,1.89C48.764,373.761,49.289,375.006,50.101,375.877z"/>
						</g>
						<g>
							<path style="fill:#1D224A;" d="M62.926,272.569c-1.527-0.405-3.273-0.738-4.592,0.131c-1.854,1.222-1.656,4.191-0.22,5.885
								c1.436,1.693,3.647,2.465,5.712,3.279c4.215,1.661,8.248,3.786,12,6.325c1.365,0.923,2.965,1.951,4.538,1.46
								c1.163-0.363,1.954-1.526,2.139-2.73c0.185-1.204-0.147-2.435-0.648-3.546C78.771,276.532,69.473,274.307,62.926,272.569z"/>
							<path style="fill:#0F1125;" d="M58.644,278.448c1.113,1.193,2.669,1.849,4.166,2.499c5.166,2.243,10.191,4.811,15.036,7.682
								c0.359,0.213,0.912,0.384,1.117,0.02c0.2-0.355-0.208-0.737-0.561-0.942c-3.075-1.784-6.151-3.569-9.226-5.353
								c-2.367-1.373-4.759-2.758-7.374-3.565c-0.846-0.261-1.758-0.487-2.373-1.125c-0.539-0.56-0.761-1.365-0.765-2.142
								c-0.004-0.79,0.256-1.514,0.36-2.281c-0.946-0.521-1.505,1.307-1.575,1.89C57.308,276.333,57.832,277.578,58.644,278.448z"/>
						</g>
						<g>
							<path style="fill:#1D224A;" d="M54.845,411.853c-0.946-0.298-1.922-0.6-2.91-0.516c-0.988,0.083-2.004,0.648-2.315,1.59
								c-0.264,0.802,0.037,1.704,0.565,2.363c0.528,0.659,1.256,1.122,1.97,1.573c2.232,1.411,4.465,2.821,6.697,4.232
								c2.046,1.293,4.092,2.585,6.137,3.878c0.93,0.588,2.089,1.191,3.068,0.689c1.241-0.637,1.118-2.461,0.59-3.752
								C66.353,416.287,60.253,413.558,54.845,411.853z"/>
							<path style="fill:#0F1125;" d="M50.736,412.243c-0.752,0.583-0.971,1.75-0.482,2.567c0.248,0.414,0.638,0.721,1.018,1.018
								c0.998,0.779,2.001,1.561,3.103,2.185c0.702,0.397,1.428,0.66,2.157,0.971c0.386,0.165,0.735,0.521,1.07,0.771
								c0.4,0.299,0.802,0.596,1.205,0.891c1.595,1.167,3.213,2.301,4.854,3.401c0.2,0.134,0.406,0.27,0.641,0.323
								c0.235,0.053,0.508,0.006,0.662-0.178c0.232-0.277,0.103-0.695-0.055-1.02c-0.613-1.264-1.506-2.392-2.596-3.278
								c-0.996-0.81-2.141-1.413-3.278-2.01c-1.143-0.6-2.286-1.2-3.429-1.801c-0.447-0.235-0.897-0.471-1.374-0.637
								c-0.651-0.227-1.354-0.325-1.958-0.658c-0.604-0.333-1.105-1.009-0.938-1.679c0.048-0.193,0.148-0.37,0.191-0.565
								c0.042-0.194,0.01-0.427-0.153-0.541c-0.163-0.114-0.453,0.006-0.425,0.203"/>
						</g>
						<path style="fill:none;stroke:#1D224A;stroke-miterlimit:10;" d="M30.35,288.861l23.341,11.021
							c3.214-6.796,7.161-7.818,8.049-8.008c6.75-1.449,16.476,6.551,20.62,21.478c9.733,4.573,14.106,6.628,23.84,11.201"/>
						<path style="fill:none;stroke:#1D224A;stroke-miterlimit:10;" d="M29.58,344.595l22.36,10.506
							c2.408-5.303,5.302-6.366,6.335-6.645c6.005-1.618,15.068,5.5,20.255,19.138c11.009,5.173,16.3,8.197,27.31,13.37"/>
						<path style="fill:none;stroke:#1D224A;stroke-miterlimit:10;" d="M28.997,386.875l21.441,11.681
							c1.605-3.303,3.392-4.105,4.31-4.355c4.552-1.24,11.411,4.635,16.068,15.458c13.581,7.399,21.14,11.518,34.721,18.917"/>
						<line style="fill:none;stroke:#1D224A;stroke-miterlimit:10;" x1="30.91" y1="248.336" x2="28.621" y2="414.089"/>
						<line style="fill:none;stroke:#1D224A;stroke-miterlimit:10;" x1="106.471" y1="281.75" x2="105.345" y2="459.018"/>
					</g>
					<polyline style="fill:none;stroke:#1D224A;stroke-miterlimit:10;" points="59.702,210.714 150.988,239.857 111.559,284 
						111.559,462.657 					"/>
				</g>
			</g>
			<g>
				
					<path style="fill:none;stroke:#1D224A;stroke-width:2.7226;stroke-linecap:round;stroke-linejoin:round;stroke-miterlimit:10;" d="
					M122.001,171.791c1.317-2.699,4.271-4.513,7.274-4.466c3.003,0.047,5.899,1.952,7.132,4.69"/>
				
					<path style="fill:none;stroke:#1D224A;stroke-width:2.7226;stroke-linecap:round;stroke-linejoin:round;stroke-miterlimit:10;" d="
					M115.56,166.295c2.779-4.462,7.807-7.439,13.055-7.73c5.248-0.291,10.575,2.112,13.83,6.239"/>
				
					<path style="fill:none;stroke:#1D224A;stroke-width:2.7226;stroke-linecap:round;stroke-linejoin:round;stroke-miterlimit:10;" d="
					M107.854,161.62c4.1-6.529,11.375-10.957,19.057-11.6s15.592,2.513,20.721,8.269"/>
				<path style="fill:#1D224A;" d="M132.242,176.707c0,1.831-1.484,3.315-3.315,3.315c-1.831,0-3.315-1.484-3.315-3.315
					c0-1.831,1.484-3.315,3.315-3.315C130.758,173.392,132.242,174.876,132.242,176.707z"/>
			</g>
		</g>
		<g>
			<g>
				<g>
					<g>
						<polygon style="fill:#FFFFFF;" points="417.545,145.137 362.731,140.68 362.731,134.468 417.545,138.924 						"/>
						<polygon style="fill:#B3B3B2;" points="417.545,138.924 466.659,130.568 466.659,136.882 417.545,145.137 						"/>
						<polygon style="fill:#CCCBCB;" points="362.731,134.468 411.802,126.668 466.659,130.568 417.545,138.924 						"/>
					</g>
					<g>
						<polygon style="fill:#0F1125;" points="373.231,133.861 412.731,136.932 412.731,134.757 374.017,132.003 						"/>
						<polygon style="fill:#1D224A;" points="374.017,132.003 412.731,125.5 430.445,127.214 412.731,134.757 						"/>
						<polygon style="fill:#1D224A;" points="412.731,136.932 433.874,131 430.393,127.989 412.731,134.757 						"/>
					</g>
					
						<line style="fill:none;stroke:#FFFFFF;stroke-width:0.5;stroke-miterlimit:10;" x1="384.173" y1="130.297" x2="416.926" y2="133.149"/>
					
						<line style="fill:none;stroke:#FFFFFF;stroke-width:0.5;stroke-miterlimit:10;" x1="397.03" y1="128.137" x2="423.302" y2="130.706"/>
					
						<line style="fill:none;stroke:#FFFFFF;stroke-width:0.5;stroke-miterlimit:10;" x1="409.11" y1="126.108" x2="427.481" y2="128.643"/>
					
						<line style="fill:none;stroke:#FFFFFF;stroke-width:0.5;stroke-miterlimit:10;" x1="383.164" y1="132.654" x2="416.926" y2="125.906"/>
					
						<line style="fill:none;stroke:#FFFFFF;stroke-width:0.5;stroke-miterlimit:10;" x1="399.733" y1="133.832" x2="424.017" y2="126.5"/>
				</g>
				<g>
					<polygon style="fill:#CCCBCB;" points="417.545,138.924 430.945,84.668 480.231,80.239 466.659,130.568 					"/>
					<polygon style="fill:#FFFFFF;" points="417.545,138.924 413.802,135.668 426.945,81.928 430.945,84.668 					"/>
					<path style="fill:#1D224A;" d="M448.043,98.996c-1.94,1.19-3.206,3.236-4.053,5.348c-1.517,3.783-1.897,8.014-1.077,12.007
						c0.545,2.656,1.959,5.522,4.587,6.189c2.036,0.517,4.222-0.518,5.615-2.091c1.393-1.573,2.141-3.603,2.783-5.603
						c0.844-2.63,1.567-5.354,1.451-8.114C457.15,101.976,453.468,95.67,448.043,98.996z"/>
					<polygon style="fill:#B3B3B2;" points="426.945,81.928 477.481,77.418 480.231,80.239 430.945,84.668 					"/>
				</g>
			</g>
			<g>
				<path style="fill:#1D224A;" d="M407.453,109.909c0,1.968-1.595,3.563-3.563,3.563c-1.968,0-3.564-1.595-3.564-3.563
					c0-1.968,1.595-3.564,3.564-3.564C405.858,106.345,407.453,107.941,407.453,109.909z"/>
				<path style="fill:none;stroke:#1D224A;stroke-width:2;stroke-linecap:round;stroke-linejoin:round;stroke-miterlimit:10;" d="
					M395.094,110.406c-0.765-2.703,0.109-5.802,2.173-7.707c2.064-1.905,5.223-2.529,7.856-1.55"/>
				<path style="fill:none;stroke:#1D224A;stroke-width:2;stroke-linecap:round;stroke-linejoin:round;stroke-miterlimit:10;" d="
					M386.159,109.702c-0.271-4.437,1.603-8.957,4.933-11.901c3.331-2.944,8.046-4.25,12.416-3.437"/>
				<path style="fill:none;stroke:#1D224A;stroke-width:2;stroke-linecap:round;stroke-linejoin:round;stroke-miterlimit:10;" d="
					M377.937,109.134c0.47-6.675,3.863-13.092,9.115-17.238c5.252-4.146,12.281-5.958,18.883-4.866"/>
			</g>
		</g>
		<g>
			<g>
				<path style="fill:#F8BD96;" d="M209.407,210.624c-0.688-1.924-2.429-3.372-4.386-3.959c-2.397-0.719-5.088-0.043-7.512,0.232
					c-2.692,0.306-5.384,0.612-8.076,0.918c-2.083,0.237-4.234,0.495-6.048,1.548c-1.604,0.93-2.876,2.658-2.872,4.468
					c-0.148,0.633-0.138,1.288,0.103,1.907c0.395,1.016,1.317,1.757,2.328,2.165c1.011,0.407,2.113,0.521,3.2,0.6
					c5.805,0.418,11.639-0.07,17.408-0.838c1.567-0.209,3.214-0.473,4.443-1.467C209.584,214.912,210.095,212.549,209.407,210.624z"
					/>
				
					<path style="fill:none;stroke:#1D224A;stroke-width:0.9409;stroke-linecap:round;stroke-linejoin:round;stroke-miterlimit:10;" d="
					M185.259,218.676c-0.126-0.54,0.097-1.115,0.458-1.535c0.361-0.42,0.847-0.712,1.331-0.982c2.967-1.653,7.49-2.232,10.849-2.731
					"/>
				
					<path style="fill:none;stroke:#1D224A;stroke-width:0.9409;stroke-linecap:round;stroke-linejoin:round;stroke-miterlimit:10;" d="
					M180.946,216.368c0.544-1.184,1.603-2.069,2.768-2.652c1.165-0.583,2.443-0.895,3.709-1.203c1.888-0.459,6.942-0.918,8.83-1.377
					"/>
				
					<path style="fill:none;stroke:#1D224A;stroke-width:0.9409;stroke-linecap:round;stroke-linejoin:round;stroke-miterlimit:10;" d="
					M181.213,211.788c0.331-0.668,0.945-1.163,1.62-1.482s1.411-0.478,2.143-0.619c3.602-0.697,7.274-1.032,10.943-0.999"/>
				<path style="fill:#F8BD96;" d="M205.249,213.514c-2.033,0.519-3.049,0.999-4.053,2.947c-1.165,2.26-2.85,4.324-4.331,6.416
					c-0.362,0.512-0.744,1.113-0.592,1.722c0.201,0.809,1.189,1.106,2.02,1.162c3.375,0.228,6.698-1.189,9.378-3.254
					c2.679-2.064,4.808-4.746,6.881-7.419C213.441,212.188,207.506,212.937,205.249,213.514z"/>
			</g>
			<g>
				<path style="fill:#F8BD96;" d="M250.143,168.747c-3.335,3.585-6.768,7.077-10.327,10.439
					c-10.733,10.14-22.679,19.129-36.051,25.494c-1.987,0.946-4.058,1.872-5.559,3.481c-1.501,1.609-2.288,4.116-1.244,6.053
					c0.993,1.841,3.245,2.586,5.32,2.848c6.526,0.822,13.014-1.501,19.045-4.127c10.519-4.579,20.579-10.211,29.992-16.77
					c9.284-6.469,18.907-13.917,26.745-22.07c5.466-5.684,9.584-12.803,11.016-20.558c0.592-3.205,0.71-6.592-0.412-9.653
					c-2.365-6.453-10.822-8.705-15.94-3.895c-2.007,1.886-3.169,4.718-4.547,7.051c-3.479,5.893-8.501,11.049-13.043,16.19
					C253.497,165.091,251.833,166.931,250.143,168.747z"/>
				<path style="fill:#F8657E;" d="M259.864,189.801c3.321-3.008,6.79-5.851,10.391-8.517c-0.412,0.305-5.915-4.293-6.559-4.799
					c-2.264-1.78-4.428-3.664-6.581-5.575c-1.793-1.591-3.703-1.168-2.707,1.43c1.016,2.649,2.093,5.254,2.959,7.96
					C258.368,183.42,259.202,186.593,259.864,189.801z"/>
				
					<path style="fill:none;stroke:#1D224A;stroke-width:0.9409;stroke-linecap:round;stroke-linejoin:round;stroke-miterlimit:10;" d="
					M238.081,182.214c1.48,1.281,2.961,2.562,4.441,3.843"/>
			</g>
			<g>
				<path style="fill:#F27500;" d="M276.887,133.921c-9.862,7.436-18.234,17.337-23.662,28.433c-0.394,0.806-0.784,1.687-0.624,2.57
					c0.154,0.852,0.788,1.526,1.397,2.143c4.495,4.553,9.17,8.928,14.011,13.111c1.291,1.115,2.713,2.269,4.414,2.412
					c1.658,0.139,3.224-0.717,4.628-1.61c7.621-4.852,14.22-11.652,17.58-20.147c3.438-8.691-0.406-20.254-5.097-27.845
					c-0.89-1.44-1.955-2.901-3.529-3.525C283.183,128.343,278.962,132.356,276.887,133.921z"/>
				
					<path style="fill:none;stroke:#1D224A;stroke-width:0.9409;stroke-linecap:round;stroke-linejoin:round;stroke-miterlimit:10;" d="
					M285.73,174.369c2.54-2.517,4.78-5.336,6.657-8.38"/>
				
					<path style="fill:none;stroke:#1D224A;stroke-width:0.9409;stroke-linecap:round;stroke-linejoin:round;stroke-miterlimit:10;" d="
					M285.945,129.167c2.75,1.947,4.726,4.957,5.419,8.253"/>
				<path style="fill:#1D224A;" d="M251.83,168.703c0.201,0.223,0.409,0.44,0.615,0.653c2.373,2.453,4.746,4.906,7.119,7.36
					c2.125,2.197,4.753,3.775,6.895,5.916c0.945,0.75,1.867,1.273,2.947,1.781c0.888,0.419,1.565,0.855,2.616,0.62
					c0.87-0.195,1.636-0.695,2.38-1.186c1.835-1.211,3.67-2.422,5.506-3.632c-3.541-0.653-6.128-2.858-9.003-4.84
					c-2.26-1.558-4.4-3.29-6.397-5.173c-1.997-1.883-3.85-3.919-5.538-6.084c-1.512-1.94-3.47-3.715-3.858-6.26
					c-0.661,1.482-1.939,2.577-3.018,3.789c-1.079,1.212-2.025,2.758-1.772,4.36C250.485,167.043,251.117,167.913,251.83,168.703z"
					/>
			</g>
		</g>
	</g>
	<g>
		<g>
			<g>
				<polygon style="fill:#0F1125;" points="201.24,108.03 170.544,127.959 170.544,119.673 194.797,106.45 				"/>
				<polygon style="fill:#1D224A;" points="170.544,127.959 178.472,128.298 209.025,107.87 201.24,108.03 				"/>
			</g>
			<g>
				<polygon style="fill:#333C82;" points="68.024,95.126 98.256,102.727 209.126,100.113 168.383,92.119 				"/>
				<polygon style="fill:#1D224A;" points="98.256,102.727 98.256,110.602 209.126,108.316 209.126,100.113 				"/>
				<polygon style="fill:#0F1125;" points="98.256,110.602 68.024,104.459 68.024,95.126 98.256,102.727 				"/>
			</g>
			<g>
				<polygon style="fill:#0F1125;" points="98.256,110.602 67.559,130.53 67.559,122.244 91.813,109.021 				"/>
				<polygon style="fill:#1D224A;" points="67.559,130.53 75.488,130.87 106.04,110.441 98.256,110.602 				"/>
			</g>
			<line style="fill:none;stroke:#1D224A;stroke-miterlimit:10;" x1="200.527" y1="108.493" x2="209.126" y2="108.316"/>
			<line style="fill:none;stroke:#1D224A;stroke-miterlimit:10;" x1="98.256" y1="110.602" x2="106.04" y2="110.441"/>
		</g>
		<g>
			<g>
				<path style="fill:none;stroke:#1D224A;stroke-width:2;stroke-linecap:round;stroke-linejoin:round;stroke-miterlimit:10;" d="
					M157.149,24.84c-3.114,0.401-5.836,2.935-6.457,6.012c-0.621,3.077,0.904,6.47,3.618,8.047"/>
				<path style="fill:none;stroke:#1D224A;stroke-width:2;stroke-linecap:round;stroke-linejoin:round;stroke-miterlimit:10;" d="
					M150.162,20.409c-3.565,2.35-6.569,5.862-7.375,10.055c-0.807,4.193,1.042,9.016,4.901,10.843"/>
				<path style="fill:none;stroke:#1D224A;stroke-width:2;stroke-linecap:round;stroke-linejoin:round;stroke-miterlimit:10;" d="
					M170.662,25.16c2.514,1.686,4.216,4.531,4.511,7.544c0.296,3.013-0.82,6.134-2.958,8.277"/>
				<path style="fill:none;stroke:#1D224A;stroke-width:2;stroke-linecap:round;stroke-linejoin:round;stroke-miterlimit:10;" d="
					M175.067,19.49c4.571,2.358,7.752,7.21,8.092,12.343c0.339,5.132-2.175,10.361-6.396,13.301"/>
				<g>
					<rect x="160.432" y="34.08" style="fill:#1D224A;" width="4.857" height="29.429"/>
					<path style="fill:#1D224A;" d="M168.218,32.797c0,2.959-2.398,5.357-5.357,5.357c-2.959,0-5.357-2.398-5.357-5.357
						c0-2.959,2.398-5.357,5.357-5.357C165.819,27.44,168.218,29.838,168.218,32.797z"/>
					<path style="fill:#333C82;" d="M166.885,32.951c-0.11,1.246-0.823,2.426-1.876,3.102c-0.229,0.147-0.482,0.274-0.753,0.289
						c-0.272,0.015-0.565-0.106-0.688-0.349c-0.205-0.404,0.128-0.86,0.416-1.21c0.375-0.457,0.711-0.956,0.9-1.515
						s0.223-1.187,0.004-1.735c-0.14-0.351-0.377-0.657-0.514-1.009c-0.429-1.107,0.664-1.53,1.386-0.844
						C166.581,30.46,166.981,31.855,166.885,32.951z"/>
				</g>
			</g>
			<g>
				<path style="fill:#B3B3B2;" d="M119.888,97.991h-12.483c-5.592,0-10.124-4.533-10.124-10.125V63.338
					c0-5.592,4.533-10.124,10.124-10.124h12.483V97.991z"/>
				<path style="fill:#FFFFFF;" d="M162.298,97.991h-48.155c-5.786,0-10.477-4.691-10.477-10.477V63.691
					c0-5.786,4.691-10.477,10.477-10.477h48.155c5.786,0,10.477,4.691,10.477,10.477v23.823
					C172.775,93.3,168.085,97.991,162.298,97.991z"/>
				<rect x="107.458" y="66.185" style="fill:#2BAAE2;" width="61.071" height="9.417"/>
				<rect x="107.458" y="79.28" style="fill:#2BAAE2;" width="61.071" height="4.143"/>
				<path style="fill:#F2E500;" d="M124.44,59.768c0,1.11-0.899,2.009-2.009,2.009c-1.109,0-2.009-0.899-2.009-2.009
					s0.899-2.009,2.009-2.009C123.54,57.759,124.44,58.658,124.44,59.768z"/>
				<circle style="fill:#F2E500;" cx="129.824" cy="59.768" r="2.009"/>
				<path style="fill:#F2E500;" d="M139.225,59.768c0,1.11-0.899,2.009-2.009,2.009s-2.009-0.899-2.009-2.009s0.9-2.009,2.009-2.009
					S139.225,58.658,139.225,59.768z"/>
				<path style="fill:#B3B3B2;" d="M146.618,59.768c0,1.11-0.899,2.009-2.009,2.009c-1.109,0-2.009-0.899-2.009-2.009
					s0.899-2.009,2.009-2.009C145.719,57.759,146.618,58.658,146.618,59.768z"/>
				<circle style="fill:#F2E500;" cx="152.002" cy="59.768" r="2.009"/>
			</g>
		</g>
	</g>
</g>
</svg>
