<?xml version="1.0" encoding="utf-8"?>
<!-- Generator: Adobe Illustrator 27.5.0, SVG Export Plug-In . SVG Version: 6.00 Build 0)  -->
<svg version="1.1" xmlns="http://www.w3.org/2000/svg" xmlns:xlink="http://www.w3.org/1999/xlink" x="0px" y="0px"
	 viewBox="0 0 500 500" style="enable-background:new 0 0 500 500;" xml:space="preserve">
<g id="BACKGROUND">
	<rect style="fill:#FFFFFF;" width="500" height="500"/>
</g>
<g id="OBJECTS">
	<path style="opacity:0.23;fill:#FFA9A9;" d="M401.069,461.64H240.337V162.718h144.106c9.182,0,16.626,7.444,16.626,16.626V461.64z"
		/>
	<path style="fill:#7BD1CC;" d="M88.68,364.917c-2.479-3.679-8.958-6.975-16.937-10.115c-4.702-1.557-9.418-2.947-13.923-4.37
		c-8.29-2.619-16.385-5.68-24.307-9.125c0.803,1.251,1.563,2.52,2.303,3.797c4.488,7.752,7.956,16.781,11.306,25.358
		c3.336,8.541,5.778,19.37,13.695,24.995c4.79,3.402,10.71,4.706,15.054,8.831c2.427,2.305,3.595,5.507,4.545,8.842
		c0.213,0.526,0.369,1.08,0.458,1.659c1.243,4.607,2.396,9.227,6.141,11.884c4.857,3.448,11.771,1.786,17.179,4.285
		c6.237,2.883,8.709,10.223,11.571,16.47c2.862,6.246,8.422,12.853,15.171,11.563l9.535-9.535l1.011-1.011l9.535-9.535
		c1.29-6.749-5.317-12.308-11.563-15.171c-6.247-2.862-13.587-5.334-16.47-11.571c-2.499-5.407-0.837-12.321-4.285-17.179
		c-4.915-6.924-16.539-4.987-22.386-11.144C91.583,378.864,92.519,370.614,88.68,364.917z"/>
	<path style="fill:#40B5AC;" d="M56.9,442.775c-3.514-0.321-8.291-3.578-13.533-7.94c-2.885-2.683-5.658-5.44-8.374-8.037
		c-4.998-4.778-10.23-9.252-15.662-13.457c1.18,0.081,2.355,0.126,3.529,0.153c7.122,0.164,14.745-0.873,22.007-1.818
		c7.232-0.941,15.717-3.382,22.668-0.013c4.205,2.038,7.379,5.667,11.917,7.118c2.535,0.811,5.216,0.4,7.905-0.214
		c0.449-0.053,0.894-0.156,1.332-0.315c3.688-0.896,7.35-1.859,10.636-0.265c4.263,2.068,5.749,7.525,9.56,10.339
		c4.396,3.246,10.46,2.161,15.911,1.767c5.451-0.394,12.184,0.955,13.867,6.154l-3.001,10.297l-0.318,1.092l-3.001,10.297
		c-4.212,3.481-10.617,1.002-15.002-2.258c-4.386-3.26-8.917-7.433-14.369-7.057c-4.726,0.326-8.912,4.13-13.618,3.585
		c-6.708-0.778-9.805-9.624-16.335-11.345C67.736,439.463,62.341,443.272,56.9,442.775z"/>
	<path style="fill:#7BD1CC;" d="M329.02,354.968c2.873-4.264,10.384-8.085,19.634-11.725c5.45-1.805,10.918-3.416,16.14-5.065
		c9.609-3.036,18.993-6.585,28.176-10.578c-0.931,1.45-1.812,2.921-2.669,4.402c-5.203,8.986-9.222,19.452-13.106,29.395
		c-3.867,9.9-6.698,22.454-15.875,28.973c-5.552,3.944-12.415,5.455-17.45,10.236c-2.813,2.671-4.168,6.384-5.269,10.25
		c-0.247,0.61-0.427,1.252-0.531,1.923c-1.441,5.34-2.778,10.696-7.118,13.776c-5.631,3.997-13.645,2.07-19.913,4.967
		c-7.23,3.341-10.095,11.85-13.413,19.091c-3.318,7.241-9.762,14.899-17.586,13.404l-11.053-11.053l-1.172-1.172L256.76,440.74
		c-1.495-7.823,6.163-14.268,13.404-17.586c7.241-3.318,15.75-6.183,19.091-13.413c2.897-6.268,0.97-14.283,4.967-19.913
		c5.697-8.026,19.171-5.781,25.949-12.918C325.655,371.135,324.57,361.572,329.02,354.968z"/>
	<path style="fill:#40B5AC;" d="M352.471,446.199c3.514-0.321,8.291-3.578,13.533-7.94c2.885-2.683,5.658-5.44,8.374-8.037
		c4.998-4.778,10.23-9.252,15.662-13.457c-1.18,0.081-2.355,0.126-3.529,0.153c-7.122,0.164-14.745-0.873-22.007-1.818
		c-7.232-0.941-15.717-3.382-22.668-0.013c-4.205,2.038-7.379,5.668-11.917,7.118c-2.535,0.811-5.216,0.4-7.905-0.214
		c-0.449-0.053-0.894-0.156-1.332-0.315c-3.688-0.896-7.35-1.859-10.636-0.265c-4.263,2.068-5.749,7.525-9.56,10.339
		c-4.396,3.246-10.46,2.161-15.911,1.767c-5.451-0.394-12.184,0.955-13.867,6.154l3.001,10.297l0.318,1.092l3.001,10.297
		c4.212,3.481,10.617,1.002,15.002-2.259c4.386-3.26,8.917-7.433,14.369-7.057c4.726,0.326,8.912,4.13,13.618,3.585
		c6.708-0.778,9.805-9.624,16.335-11.345C341.635,442.886,347.03,446.696,352.471,446.199z"/>
	<g>
		<path style="fill:#230B19;" d="M307.686,85.656h107.809c13.701,0,24.91,11.21,24.91,24.91v0c0,13.701-11.21,24.91-24.91,24.91
			H307.686c-13.701,0-24.91-11.21-24.91-24.91v0C282.776,96.866,293.985,85.656,307.686,85.656z"/>
		<path style="fill:#8EDDDF;" d="M318.304,76.671h107.809c13.701,0,24.91,11.21,24.91,24.91v0c0,13.701-11.21,24.91-24.91,24.91
			H318.304c-13.701,0-24.91-11.21-24.91-24.91v0C293.393,87.88,304.603,76.671,318.304,76.671z"/>
		<polygon style="fill:#8EDDDF;" points="365.266,120.774 326.879,150.993 335.047,120.774 		"/>
	</g>
	
		<circle style="fill:none;stroke:#230B19;stroke-width:0.9801;stroke-linecap:round;stroke-linejoin:round;stroke-miterlimit:10;" cx="60.248" cy="120.238" r="5.881"/>
	
		<circle style="fill:none;stroke:#230B19;stroke-width:0.9801;stroke-linecap:round;stroke-linejoin:round;stroke-miterlimit:10;" cx="67.599" cy="237.858" r="5.881"/>
	
		<circle style="fill:none;stroke:#230B19;stroke-width:0.9801;stroke-linecap:round;stroke-linejoin:round;stroke-miterlimit:10;" cx="249.911" cy="76.13" r="5.881"/>
	
		<circle style="fill:none;stroke:#230B19;stroke-width:0.9801;stroke-linecap:round;stroke-linejoin:round;stroke-miterlimit:10;" cx="454.277" cy="173.167" r="5.881"/>
	
		<circle style="fill:none;stroke:#230B19;stroke-width:0.9801;stroke-linecap:round;stroke-linejoin:round;stroke-miterlimit:10;" cx="449.866" cy="51.136" r="5.881"/>
	
		<circle style="fill:none;stroke:#230B19;stroke-width:0.9801;stroke-linecap:round;stroke-linejoin:round;stroke-miterlimit:10;" cx="88.183" cy="49.666" r="2.941"/>
	
		<circle style="fill:none;stroke:#230B19;stroke-width:0.9801;stroke-linecap:round;stroke-linejoin:round;stroke-miterlimit:10;" cx="477.801" cy="277.555" r="2.941"/>
	
		<circle style="fill:none;stroke:#230B19;stroke-width:0.9801;stroke-linecap:round;stroke-linejoin:round;stroke-miterlimit:10;" cx="36.724" cy="389.295" r="2.941"/>
	
		<circle style="fill:none;stroke:#230B19;stroke-width:0.9801;stroke-linecap:round;stroke-linejoin:round;stroke-miterlimit:10;" cx="41.134" cy="305.49" r="2.941"/>
	<circle style="fill:#230B19;" cx="44.075" cy="83.113" r="4.043"/>
	<circle style="fill:#230B19;" cx="57.307" cy="276.453" r="4.043"/>
	<circle style="fill:#230B19;" cx="244.398" cy="108.476" r="4.043"/>
	<circle style="fill:#230B19;" cx="463.098" cy="220.215" r="4.043"/>
	<g>
		<rect x="128.933" y="249.029" style="fill:#2D1A14;" width="149.317" height="70.729"/>
		
			<line style="fill:none;stroke:#FFF8F3;stroke-width:1.684;stroke-linecap:round;stroke-linejoin:round;stroke-miterlimit:10;" x1="170.472" y1="318.636" x2="170.472" y2="249.597"/>
		<g>
			
				<line style="fill:none;stroke:#FFF8F3;stroke-width:1.684;stroke-linecap:round;stroke-linejoin:round;stroke-miterlimit:10;" x1="171.595" y1="274.29" x2="277.689" y2="274.29"/>
			
				<polyline style="fill:none;stroke:#FFF8F3;stroke-width:1.684;stroke-linecap:round;stroke-linejoin:round;stroke-miterlimit:10;" points="
				205.837,275.412 210.889,280.464 249.621,280.464 254.112,275.412 			"/>
		</g>
		<g>
			
				<line style="fill:none;stroke:#FFF8F3;stroke-width:1.684;stroke-linecap:round;stroke-linejoin:round;stroke-miterlimit:10;" x1="171.314" y1="293.375" x2="277.408" y2="293.375"/>
			
				<polyline style="fill:none;stroke:#FFF8F3;stroke-width:1.684;stroke-linecap:round;stroke-linejoin:round;stroke-miterlimit:10;" points="
				205.556,294.498 210.608,299.55 249.341,299.55 253.832,294.498 			"/>
		</g>
		<g>
			<g>
				
					<ellipse transform="matrix(0.2298 -0.9732 0.9732 0.2298 -107.2234 388.3978)" style="fill:#F3725F;" cx="191.769" cy="261.94" rx="4.441" ry="4.441"/>
				<path style="fill:#FFBD51;" d="M205.611,261.94c0,1.35-1.094,2.444-2.444,2.444s-2.444-1.094-2.444-2.444
					s1.094-2.444,2.444-2.444S205.611,260.59,205.611,261.94z"/>
				<path style="fill:#FFBD51;" d="M215.133,261.94c0,1.35-1.094,2.444-2.444,2.444c-1.35,0-2.444-1.094-2.444-2.444
					s1.094-2.444,2.444-2.444C214.038,259.496,215.133,260.59,215.133,261.94z"/>
				<path style="fill:#FFBD51;" d="M224.767,261.94c0,1.35-1.094,2.444-2.444,2.444c-1.35,0-2.444-1.094-2.444-2.444
					s1.094-2.444,2.444-2.444C223.672,259.496,224.767,260.59,224.767,261.94z"/>
				<path style="fill:#FFBD51;" d="M233.904,261.94c0,1.35-1.094,2.444-2.444,2.444s-2.444-1.094-2.444-2.444
					s1.094-2.444,2.444-2.444S233.904,260.59,233.904,261.94z"/>
			</g>
			<path style="fill:#8DDAE2;" d="M267.613,258.457h-26.708c-0.766,0-1.393-0.627-1.393-1.393l0,0c0-0.766,0.627-1.393,1.393-1.393
				h26.708c0.766,0,1.393,0.627,1.393,1.393l0,0C269.007,257.829,268.38,258.457,267.613,258.457z"/>
			<path style="fill:#8DDAE2;" d="M267.613,265.192h-26.708c-0.766,0-1.393-0.627-1.393-1.393l0,0c0-0.766,0.627-1.393,1.393-1.393
				h26.708c0.766,0,1.393,0.627,1.393,1.393l0,0C269.007,264.564,268.38,265.192,267.613,265.192z"/>
		</g>
		<g>
			<g>
				
					<ellipse transform="matrix(0.2298 -0.9732 0.9732 0.2298 -155.4049 426.3139)" style="fill:#F3725F;" cx="191.633" cy="311.338" rx="4.441" ry="4.441"/>
				<path style="fill:#FFBD51;" d="M205.475,311.338c0,1.35-1.094,2.444-2.444,2.444s-2.444-1.094-2.444-2.444
					c0-1.35,1.094-2.444,2.444-2.444S205.475,309.988,205.475,311.338z"/>
				<path style="fill:#FFBD51;" d="M214.997,311.338c0,1.35-1.094,2.444-2.444,2.444c-1.35,0-2.444-1.094-2.444-2.444
					c0-1.35,1.094-2.444,2.444-2.444C213.902,308.894,214.997,309.988,214.997,311.338z"/>
				<path style="fill:#FFBD51;" d="M224.63,311.338c0,1.35-1.094,2.444-2.444,2.444c-1.35,0-2.444-1.094-2.444-2.444
					c0-1.35,1.094-2.444,2.444-2.444C223.536,308.894,224.63,309.988,224.63,311.338z"/>
				<path style="fill:#FFBD51;" d="M233.768,311.338c0,1.35-1.094,2.444-2.444,2.444c-1.35,0-2.444-1.094-2.444-2.444
					c0-1.35,1.094-2.444,2.444-2.444C232.673,308.894,233.768,309.988,233.768,311.338z"/>
			</g>
			<path style="fill:#8DDAE2;" d="M267.477,307.855h-26.708c-0.766,0-1.393-0.627-1.393-1.393l0,0c0-0.766,0.627-1.393,1.393-1.393
				h26.708c0.766,0,1.393,0.627,1.393,1.393l0,0C268.87,307.227,268.243,307.855,267.477,307.855z"/>
			<path style="fill:#8DDAE2;" d="M267.477,314.59h-26.708c-0.766,0-1.393-0.627-1.393-1.393l0,0c0-0.766,0.627-1.393,1.393-1.393
				h26.708c0.766,0,1.393,0.627,1.393,1.393l0,0C268.87,313.962,268.243,314.59,267.477,314.59z"/>
		</g>
	</g>
	<g>
		<rect x="128.933" y="319.38" style="fill:#2D1A14;" width="149.317" height="70.729"/>
		
			<line style="fill:none;stroke:#FFF8F3;stroke-width:1.684;stroke-linecap:round;stroke-linejoin:round;stroke-miterlimit:10;" x1="170.472" y1="388.986" x2="170.472" y2="319.948"/>
		<g>
			
				<line style="fill:none;stroke:#FFF8F3;stroke-width:1.684;stroke-linecap:round;stroke-linejoin:round;stroke-miterlimit:10;" x1="171.595" y1="344.64" x2="277.689" y2="344.64"/>
			
				<polyline style="fill:none;stroke:#FFF8F3;stroke-width:1.684;stroke-linecap:round;stroke-linejoin:round;stroke-miterlimit:10;" points="
				205.837,345.763 210.889,350.815 249.621,350.815 254.112,345.763 			"/>
		</g>
		<g>
			
				<line style="fill:none;stroke:#FFF8F3;stroke-width:1.684;stroke-linecap:round;stroke-linejoin:round;stroke-miterlimit:10;" x1="171.314" y1="363.725" x2="277.408" y2="363.725"/>
			
				<polyline style="fill:none;stroke:#FFF8F3;stroke-width:1.684;stroke-linecap:round;stroke-linejoin:round;stroke-miterlimit:10;" points="
				205.556,364.848 210.608,369.9 249.341,369.9 253.832,364.848 			"/>
		</g>
		<g>
			<g>
				
					<ellipse transform="matrix(0.2298 -0.9732 0.9732 0.2298 -175.6917 442.5849)" style="fill:#F3725F;" cx="191.769" cy="332.29" rx="4.441" ry="4.441"/>
				<path style="fill:#FFBD51;" d="M205.611,332.29c0,1.35-1.094,2.444-2.444,2.444s-2.444-1.094-2.444-2.444
					c0-1.35,1.094-2.444,2.444-2.444S205.611,330.94,205.611,332.29z"/>
				<path style="fill:#FFBD51;" d="M215.133,332.29c0,1.35-1.094,2.444-2.444,2.444c-1.35,0-2.444-1.094-2.444-2.444
					c0-1.35,1.094-2.444,2.444-2.444C214.038,329.846,215.133,330.94,215.133,332.29z"/>
				<path style="fill:#FFBD51;" d="M224.767,332.29c0,1.35-1.094,2.444-2.444,2.444c-1.35,0-2.444-1.094-2.444-2.444
					c0-1.35,1.094-2.444,2.444-2.444C223.672,329.846,224.767,330.94,224.767,332.29z"/>
				<path style="fill:#FFBD51;" d="M233.904,332.29c0,1.35-1.094,2.444-2.444,2.444s-2.444-1.094-2.444-2.444
					c0-1.35,1.094-2.444,2.444-2.444S233.904,330.94,233.904,332.29z"/>
			</g>
			<path style="fill:#8DDAE2;" d="M267.613,328.807h-26.708c-0.766,0-1.393-0.627-1.393-1.393l0,0c0-0.766,0.627-1.393,1.393-1.393
				h26.708c0.766,0,1.393,0.627,1.393,1.393l0,0C269.007,328.18,268.38,328.807,267.613,328.807z"/>
			<path style="fill:#8DDAE2;" d="M267.613,335.542h-26.708c-0.766,0-1.393-0.627-1.393-1.393l0,0c0-0.766,0.627-1.393,1.393-1.393
				h26.708c0.766,0,1.393,0.627,1.393,1.393l0,0C269.007,334.915,268.38,335.542,267.613,335.542z"/>
		</g>
		<g>
			<g>
				
					<ellipse transform="matrix(0.2298 -0.9732 0.9732 0.2298 -223.8732 480.501)" style="fill:#F3725F;" cx="191.633" cy="381.688" rx="4.441" ry="4.441"/>
				<path style="fill:#FFBD51;" d="M205.475,381.688c0,1.35-1.094,2.444-2.444,2.444s-2.444-1.094-2.444-2.444
					c0-1.35,1.094-2.444,2.444-2.444S205.475,380.338,205.475,381.688z"/>
				<path style="fill:#FFBD51;" d="M214.997,381.688c0,1.35-1.094,2.444-2.444,2.444c-1.35,0-2.444-1.094-2.444-2.444
					c0-1.35,1.094-2.444,2.444-2.444C213.902,379.244,214.997,380.338,214.997,381.688z"/>
				<path style="fill:#FFBD51;" d="M224.63,381.688c0,1.35-1.094,2.444-2.444,2.444c-1.35,0-2.444-1.094-2.444-2.444
					c0-1.35,1.094-2.444,2.444-2.444C223.536,379.244,224.63,380.338,224.63,381.688z"/>
				<path style="fill:#FFBD51;" d="M233.768,381.688c0,1.35-1.094,2.444-2.444,2.444c-1.35,0-2.444-1.094-2.444-2.444
					c0-1.35,1.094-2.444,2.444-2.444C232.673,379.244,233.768,380.338,233.768,381.688z"/>
			</g>
			<path style="fill:#8DDAE2;" d="M267.477,378.205h-26.708c-0.766,0-1.393-0.627-1.393-1.393l0,0c0-0.766,0.627-1.393,1.393-1.393
				h26.708c0.766,0,1.393,0.627,1.393,1.393l0,0C268.87,377.578,268.243,378.205,267.477,378.205z"/>
			<path style="fill:#8DDAE2;" d="M267.477,384.94h-26.708c-0.766,0-1.393-0.627-1.393-1.393l0,0c0-0.766,0.627-1.393,1.393-1.393
				h26.708c0.766,0,1.393,0.627,1.393,1.393l0,0C268.87,384.313,268.243,384.94,267.477,384.94z"/>
		</g>
	</g>
	<g>
		<rect x="128.933" y="389.28" style="fill:#2D1A14;" width="149.317" height="70.729"/>
		
			<line style="fill:none;stroke:#FFF8F3;stroke-width:1.684;stroke-linecap:round;stroke-linejoin:round;stroke-miterlimit:10;" x1="170.472" y1="458.887" x2="170.472" y2="389.848"/>
		<g>
			
				<line style="fill:none;stroke:#FFF8F3;stroke-width:1.684;stroke-linecap:round;stroke-linejoin:round;stroke-miterlimit:10;" x1="171.595" y1="414.541" x2="277.689" y2="414.541"/>
			
				<polyline style="fill:none;stroke:#FFF8F3;stroke-width:1.684;stroke-linecap:round;stroke-linejoin:round;stroke-miterlimit:10;" points="
				205.837,415.663 210.889,420.715 249.621,420.715 254.112,415.663 			"/>
		</g>
		<g>
			
				<line style="fill:none;stroke:#FFF8F3;stroke-width:1.684;stroke-linecap:round;stroke-linejoin:round;stroke-miterlimit:10;" x1="171.314" y1="433.626" x2="277.408" y2="433.626"/>
			
				<polyline style="fill:none;stroke:#FFF8F3;stroke-width:1.684;stroke-linecap:round;stroke-linejoin:round;stroke-miterlimit:10;" points="
				205.556,434.749 210.608,439.801 249.341,439.801 253.832,434.749 			"/>
		</g>
		<g>
			<g>
				
					<ellipse transform="matrix(0.2298 -0.9732 0.9732 0.2298 -243.7225 496.4258)" style="fill:#F3725F;" cx="191.769" cy="402.191" rx="4.441" ry="4.441"/>
				<path style="fill:#FFBD51;" d="M205.611,402.191c0,1.35-1.094,2.444-2.444,2.444s-2.444-1.094-2.444-2.444
					c0-1.35,1.094-2.444,2.444-2.444S205.611,400.841,205.611,402.191z"/>
				<path style="fill:#FFBD51;" d="M215.133,402.191c0,1.35-1.094,2.444-2.444,2.444c-1.35,0-2.444-1.094-2.444-2.444
					c0-1.35,1.094-2.444,2.444-2.444C214.038,399.747,215.133,400.841,215.133,402.191z"/>
				<path style="fill:#FFBD51;" d="M224.767,402.191c0,1.35-1.094,2.444-2.444,2.444c-1.35,0-2.444-1.094-2.444-2.444
					c0-1.35,1.094-2.444,2.444-2.444C223.672,399.747,224.767,400.841,224.767,402.191z"/>
				<path style="fill:#FFBD51;" d="M233.904,402.191c0,1.35-1.094,2.444-2.444,2.444s-2.444-1.094-2.444-2.444
					c0-1.35,1.094-2.444,2.444-2.444S233.904,400.841,233.904,402.191z"/>
			</g>
			<path style="fill:#8DDAE2;" d="M267.613,398.708h-26.708c-0.766,0-1.393-0.627-1.393-1.393l0,0c0-0.766,0.627-1.393,1.393-1.393
				h26.708c0.766,0,1.393,0.627,1.393,1.393l0,0C269.007,398.08,268.38,398.708,267.613,398.708z"/>
			<path style="fill:#8DDAE2;" d="M267.613,405.443h-26.708c-0.766,0-1.393-0.627-1.393-1.393l0,0c0-0.766,0.627-1.393,1.393-1.393
				h26.708c0.766,0,1.393,0.627,1.393,1.393l0,0C269.007,404.815,268.38,405.443,267.613,405.443z"/>
		</g>
		<g>
			<g>
				
					<ellipse transform="matrix(0.2298 -0.9732 0.9732 0.2298 -291.9041 534.342)" style="fill:#F3725F;" cx="191.633" cy="451.589" rx="4.441" ry="4.441"/>
				<path style="fill:#FFBD51;" d="M205.475,451.589c0,1.35-1.094,2.444-2.444,2.444s-2.444-1.094-2.444-2.444
					c0-1.35,1.094-2.444,2.444-2.444S205.475,450.239,205.475,451.589z"/>
				<path style="fill:#FFBD51;" d="M214.997,451.589c0,1.35-1.094,2.444-2.444,2.444c-1.35,0-2.444-1.094-2.444-2.444
					c0-1.35,1.094-2.444,2.444-2.444C213.902,449.145,214.997,450.239,214.997,451.589z"/>
				<path style="fill:#FFBD51;" d="M224.63,451.589c0,1.35-1.094,2.444-2.444,2.444c-1.35,0-2.444-1.094-2.444-2.444
					c0-1.35,1.094-2.444,2.444-2.444C223.536,449.145,224.63,450.239,224.63,451.589z"/>
				<path style="fill:#FFBD51;" d="M233.768,451.589c0,1.35-1.094,2.444-2.444,2.444c-1.35,0-2.444-1.094-2.444-2.444
					c0-1.35,1.094-2.444,2.444-2.444C232.673,449.145,233.768,450.239,233.768,451.589z"/>
			</g>
			<path style="fill:#8DDAE2;" d="M267.477,448.105h-26.708c-0.766,0-1.393-0.627-1.393-1.393l0,0c0-0.766,0.627-1.393,1.393-1.393
				h26.708c0.766,0,1.393,0.627,1.393,1.393l0,0C268.87,447.478,268.243,448.105,267.477,448.105z"/>
			<path style="fill:#8DDAE2;" d="M267.477,454.841h-26.708c-0.766,0-1.393-0.627-1.393-1.393l0,0c0-0.766,0.627-1.393,1.393-1.393
				h26.708c0.766,0,1.393,0.627,1.393,1.393l0,0C268.87,454.213,268.243,454.841,267.477,454.841z"/>
		</g>
	</g>
	<path style="fill:none;stroke:#FFF8F3;stroke-width:1.684;stroke-linecap:round;stroke-linejoin:round;stroke-miterlimit:10;" d="
		M130.818,339.965h0.315c9.6,0,17.382,7.782,17.382,17.382v46.325h0c5.864,0,10.618,4.754,10.618,10.618v47.78"/>
	<path style="fill:none;stroke:#2D1A14;stroke-width:1.3272;stroke-linecap:round;stroke-linejoin:round;stroke-miterlimit:10;" d="
		M132.919,264.46h-14.734c-7.255,0-13.137,5.882-13.137,13.137v185.274"/>
	<path style="fill:none;stroke:#2D1A14;stroke-width:1.3272;stroke-linecap:round;stroke-linejoin:round;stroke-miterlimit:10;" d="
		M135.573,286.358h-35.251c-7.285,0-13.19,5.905-13.19,13.19v129.22c0,7.474,6.059,13.532,13.532,13.532h35.573"/>
	<path style="fill:none;stroke:#2D1A14;stroke-width:1.3272;stroke-linecap:round;stroke-linejoin:round;stroke-miterlimit:10;" d="
		M134.909,298.302h-5.644c-6.045,0-10.945,4.9-10.945,10.945v106.844c0,6.045,4.9,10.945,10.945,10.945h10.289"/>
	
		<line style="fill:none;stroke:#2D1A14;stroke-width:0.7912;stroke-linecap:round;stroke-linejoin:round;stroke-miterlimit:10;" x1="286.401" y1="164.678" x2="286.401" y2="409.741"/>
	<g>
		
			<path style="fill:none;stroke:#2D1A14;stroke-width:0.7912;stroke-linecap:round;stroke-linejoin:round;stroke-miterlimit:10;" d="
			M382.448,188.503v20.582c0,2.842-2.628,5.145-5.87,5.145h-3.354c-3.242,0-5.87-2.304-5.87-5.145l0,0
			c0-2.842-2.628-5.145-5.87-5.145h-31.022c-3.242,0-5.87,2.304-5.87,5.145l0,0c0,2.842-2.628,5.145-5.87,5.145h-5.87
			c-3.242,0-5.87-2.304-5.87-5.145v-20.582c0-2.842,2.628-5.145,5.87-5.145h63.726C379.82,183.358,382.448,185.661,382.448,188.503z
			"/>
		<g>
			<ellipse style="fill:#FFBD51;" cx="323.579" cy="193.669" rx="4.656" ry="4.525"/>
			<ellipse style="fill:#FFBD51;" cx="343.895" cy="194.08" rx="4.656" ry="4.525"/>
			<ellipse style="fill:#FFBD51;" cx="364.634" cy="193.669" rx="4.656" ry="4.525"/>
		</g>
	</g>
	<g>
		
			<path style="fill:none;stroke:#2D1A14;stroke-width:0.7912;stroke-linecap:round;stroke-linejoin:round;stroke-miterlimit:10;" d="
			M382.448,233.643v20.582c0,2.842-2.628,5.145-5.87,5.145h-3.354c-3.242,0-5.87-2.304-5.87-5.145l0,0
			c0-2.842-2.628-5.145-5.87-5.145h-31.022c-3.242,0-5.87,2.304-5.87,5.145l0,0c0,2.842-2.628,5.145-5.87,5.145h-5.87
			c-3.242,0-5.87-2.304-5.87-5.145v-20.582c0-2.842,2.628-5.145,5.87-5.145h63.726C379.82,228.498,382.448,230.801,382.448,233.643z
			"/>
		<g>
			<ellipse style="fill:#FFBD51;" cx="323.579" cy="238.809" rx="4.656" ry="4.525"/>
			<ellipse style="fill:#FFBD51;" cx="343.895" cy="239.22" rx="4.656" ry="4.525"/>
			<ellipse style="fill:#FFBD51;" cx="364.634" cy="238.809" rx="4.656" ry="4.525"/>
		</g>
	</g>
	<g>
		
			<path style="fill:none;stroke:#2D1A14;stroke-width:0.7912;stroke-linecap:round;stroke-linejoin:round;stroke-miterlimit:10;" d="
			M382.448,277.744v20.582c0,2.842-2.628,5.145-5.87,5.145h-3.354c-3.242,0-5.87-2.304-5.87-5.145l0,0
			c0-2.842-2.628-5.145-5.87-5.145h-31.022c-3.242,0-5.87,2.304-5.87,5.145l0,0c0,2.842-2.628,5.145-5.87,5.145h-5.87
			c-3.242,0-5.87-2.304-5.87-5.145v-20.582c0-2.842,2.628-5.145,5.87-5.145h63.726C379.82,272.599,382.448,274.902,382.448,277.744z
			"/>
		<g>
			<ellipse style="fill:#FFBD51;" cx="323.579" cy="282.91" rx="4.656" ry="4.525"/>
			<ellipse style="fill:#FFBD51;" cx="343.895" cy="283.322" rx="4.656" ry="4.525"/>
			<ellipse style="fill:#FFBD51;" cx="364.634" cy="282.91" rx="4.656" ry="4.525"/>
		</g>
	</g>
	<path style="fill:none;stroke:#2D1A14;stroke-width:0.7912;stroke-linecap:round;stroke-linejoin:round;stroke-miterlimit:10;" d="
		M240.337,180.359L240.337,180.359c8.66,0,15.681,7.021,15.681,15.681v16.206c0,9.995,8.102,18.097,18.097,18.097h12.285"/>
	<g>
		
			<line style="fill:none;stroke:#2D1A14;stroke-width:1.267;stroke-linecap:round;stroke-linejoin:round;stroke-miterlimit:10;" x1="311.855" y1="464.202" x2="311.855" y2="423.026"/>
		<path style="fill:#BFB8FF;" d="M312.946,377.768L312.946,377.768c-1.219,0-2.217-0.998-2.217-2.217v-17.737
			c0-1.219,0.998-2.217,2.217-2.217l0,0c1.219,0,2.217,0.998,2.217,2.217v17.737C315.163,376.77,314.165,377.768,312.946,377.768z"
			/>
		<path style="fill:#F3725F;" d="M312.277,428.727L312.277,428.727c-4.529,0-8.235-3.706-8.235-8.235v-30.407
			c0-4.529,3.706-8.235,8.235-8.235h0c4.529,0,8.235,3.706,8.235,8.235v30.407C320.512,425.021,316.807,428.727,312.277,428.727z"/>
		<path style="fill:#F3725F;" d="M312.911,395.786L312.911,395.786c-1.742,0-3.167-1.425-3.167-3.167v-17.737
			c0-1.742,1.425-3.167,3.167-3.167l0,0c1.742,0,3.167,1.425,3.167,3.167v17.737C316.078,394.361,314.653,395.786,312.911,395.786z"
			/>
		<rect x="307.843" y="418.591" style="fill:#F3725F;" width="7.602" height="20.905"/>
		
			<line style="fill:none;stroke:#2D1A14;stroke-width:1.267;stroke-linecap:round;stroke-linejoin:round;stroke-miterlimit:10;" x1="304.227" y1="398.256" x2="320.276" y2="398.256"/>
		
			<line style="fill:none;stroke:#2D1A14;stroke-width:1.267;stroke-linecap:round;stroke-linejoin:round;stroke-miterlimit:10;" x1="304.227" y1="406.421" x2="320.276" y2="406.421"/>
		
			<line style="fill:none;stroke:#2D1A14;stroke-width:1.267;stroke-linecap:round;stroke-linejoin:round;stroke-miterlimit:10;" x1="304.227" y1="414.587" x2="320.276" y2="414.587"/>
		
			<line style="fill:none;stroke:#2D1A14;stroke-width:1.267;stroke-linecap:round;stroke-linejoin:round;stroke-miterlimit:10;" x1="337.943" y1="464.278" x2="337.943" y2="386.781"/>
		<path style="fill:#BFB8FF;" d="M339.034,341.523L339.034,341.523c-1.219,0-2.217-0.998-2.217-2.217v-17.737
			c0-1.219,0.998-2.217,2.217-2.217l0,0c1.219,0,2.217,0.998,2.217,2.217v17.737C341.252,340.525,340.254,341.523,339.034,341.523z"
			/>
		<path style="fill:#2D1A14;" d="M338.366,392.483L338.366,392.483c-4.529,0-8.235-3.706-8.235-8.235v-30.407
			c0-4.529,3.706-8.235,8.235-8.235h0c4.529,0,8.235,3.706,8.235,8.235v30.407C346.601,388.777,342.895,392.483,338.366,392.483z"/>
		<path style="fill:#2D1A14;" d="M338.999,359.542L338.999,359.542c-1.742,0-3.167-1.425-3.167-3.167v-17.737
			c0-1.742,1.425-3.167,3.167-3.167l0,0c1.742,0,3.167,1.425,3.167,3.167v17.737C342.167,358.117,340.741,359.542,338.999,359.542z"
			/>
		<rect x="333.931" y="382.347" style="fill:#2D1A14;" width="7.602" height="20.905"/>
		
			<line style="fill:none;stroke:#FFF8F3;stroke-width:1.6076;stroke-linecap:round;stroke-linejoin:round;stroke-miterlimit:10;" x1="330.315" y1="362.012" x2="346.364" y2="362.012"/>
		
			<line style="fill:none;stroke:#FFF8F3;stroke-width:1.6076;stroke-linecap:round;stroke-linejoin:round;stroke-miterlimit:10;" x1="330.315" y1="370.177" x2="346.364" y2="370.177"/>
		
			<line style="fill:none;stroke:#FFF8F3;stroke-width:1.6076;stroke-linecap:round;stroke-linejoin:round;stroke-miterlimit:10;" x1="330.315" y1="378.342" x2="346.364" y2="378.342"/>
		
			<line style="fill:none;stroke:#2D1A14;stroke-width:1.267;stroke-linecap:round;stroke-linejoin:round;stroke-miterlimit:10;" x1="363.495" y1="461.744" x2="363.495" y2="363.553"/>
		<path style="fill:#BFB8FF;" d="M364.586,318.295L364.586,318.295c-1.219,0-2.217-0.998-2.217-2.217V298.34
			c0-1.219,0.998-2.217,2.217-2.217l0,0c1.219,0,2.217,0.998,2.217,2.217v17.737C366.803,317.297,365.805,318.295,364.586,318.295z"
			/>
		<path style="fill:#FFBD51;" d="M363.917,369.254L363.917,369.254c-4.529,0-8.235-3.706-8.235-8.235v-30.407
			c0-4.529,3.706-8.235,8.235-8.235h0c4.529,0,8.235,3.706,8.235,8.235v30.407C372.152,365.548,368.446,369.254,363.917,369.254z"/>
		<path style="fill:#FFBD51;" d="M364.551,336.313L364.551,336.313c-1.742,0-3.167-1.425-3.167-3.167v-17.737
			c0-1.742,1.425-3.167,3.167-3.167l0,0c1.742,0,3.167,1.425,3.167,3.167v17.737C367.718,334.888,366.293,336.313,364.551,336.313z"
			/>
		<rect x="359.483" y="359.118" style="fill:#FFBD51;" width="7.602" height="20.905"/>
		
			<line style="fill:none;stroke:#2D1A14;stroke-width:1.267;stroke-linecap:round;stroke-linejoin:round;stroke-miterlimit:10;" x1="355.867" y1="338.783" x2="371.916" y2="338.783"/>
		
			<line style="fill:none;stroke:#2D1A14;stroke-width:1.267;stroke-linecap:round;stroke-linejoin:round;stroke-miterlimit:10;" x1="355.867" y1="346.948" x2="371.916" y2="346.948"/>
		
			<line style="fill:none;stroke:#2D1A14;stroke-width:1.267;stroke-linecap:round;stroke-linejoin:round;stroke-miterlimit:10;" x1="355.867" y1="355.114" x2="371.916" y2="355.114"/>
	</g>
	<g>
		<path style="fill:#8DDAE2;" d="M201.641,204.308H78.259c-14.982,0-27.24-12.258-27.24-27.24l0,0
			c0-14.982,12.258-27.24,27.24-27.24h123.382c14.982,0,27.24,12.258,27.24,27.24v0C228.881,192.05,216.623,204.308,201.641,204.308
			z"/>
		<circle style="fill:#8DDAE2;" cx="167.991" cy="148.226" r="46.468"/>
		
			<ellipse transform="matrix(0.1387 -0.9903 0.9903 0.1387 -57.617 235.01)" style="fill:#8DDAE2;" cx="106.301" cy="150.629" rx="26.439" ry="26.439"/>
	</g>
	<g>
		<path style="fill:#CAC5FF;" d="M189.071,178.339V97.77c-7.4-4.415-14.723-16.239-22.16-20.59H93.628v101.158H189.071z"/>
		<polygon style="fill:#A595FA;" points="167.402,76.69 167.875,97.845 189.561,97.845 		"/>
		<g>
			
				<line style="fill:none;stroke:#2D1A14;stroke-width:1.4701;stroke-linecap:round;stroke-linejoin:round;stroke-miterlimit:10;" x1="103.617" y1="129.069" x2="177.449" y2="129.069"/>
			
				<line style="fill:none;stroke:#2D1A14;stroke-width:1.4701;stroke-linecap:round;stroke-linejoin:round;stroke-miterlimit:10;" x1="103.617" y1="139.523" x2="177.449" y2="139.523"/>
			
				<line style="fill:none;stroke:#2D1A14;stroke-width:1.4701;stroke-linecap:round;stroke-linejoin:round;stroke-miterlimit:10;" x1="103.617" y1="149.977" x2="177.449" y2="149.977"/>
			
				<line style="fill:none;stroke:#2D1A14;stroke-width:1.4701;stroke-linecap:round;stroke-linejoin:round;stroke-miterlimit:10;" x1="103.617" y1="160.431" x2="177.449" y2="160.431"/>
			
				<line style="fill:none;stroke:#2D1A14;stroke-width:1.4701;stroke-linecap:round;stroke-linejoin:round;stroke-miterlimit:10;" x1="103.617" y1="170.885" x2="177.449" y2="170.885"/>
		</g>
		
			<line style="fill:none;stroke:#2D1A14;stroke-width:1.4701;stroke-linecap:round;stroke-linejoin:round;stroke-miterlimit:10;" x1="105.251" y1="91.173" x2="139.553" y2="91.173"/>
		
			<line style="fill:none;stroke:#2D1A14;stroke-width:1.4701;stroke-linecap:round;stroke-linejoin:round;stroke-miterlimit:10;" x1="104.924" y1="99.013" x2="139.226" y2="99.013"/>
	</g>
	<rect x="86.367" y="176.378" style="fill:#40B5AC;" width="109.768" height="4.9"/>
	<g>
		<g>
			
				<line style="fill:none;stroke:#2D1A14;stroke-width:0.9801;stroke-linecap:round;stroke-linejoin:round;" x1="108.027" y1="203.881" x2="108.027" y2="206.821"/>
			
				<line style="fill:none;stroke:#2D1A14;stroke-width:0.9801;stroke-linecap:round;stroke-linejoin:round;stroke-dasharray:5.5864,5.5864;" x1="108.027" y1="212.408" x2="108.027" y2="231.96"/>
			<polyline style="fill:none;stroke:#2D1A14;stroke-width:0.9801;stroke-linecap:round;stroke-linejoin:round;" points="
				108.027,234.753 108.027,237.694 110.968,237.694 			"/>
			
				<line style="fill:none;stroke:#2D1A14;stroke-width:0.9801;stroke-linecap:round;stroke-linejoin:round;stroke-dasharray:5.9695,5.9695;" x1="116.937" y1="237.694" x2="173.648" y2="237.694"/>
			<polyline style="fill:none;stroke:#2D1A14;stroke-width:0.9801;stroke-linecap:round;stroke-linejoin:round;" points="
				176.633,237.694 179.573,237.694 179.573,240.634 			"/>
			
				<line style="fill:none;stroke:#2D1A14;stroke-width:0.9801;stroke-linecap:round;stroke-linejoin:round;" x1="179.573" y1="247.984" x2="179.573" y2="250.924"/>
		</g>
	</g>
	<g>
		<g>
			
				<line style="fill:none;stroke:#2D1A14;stroke-width:0.9801;stroke-linecap:round;stroke-linejoin:round;" x1="148.21" y1="203.881" x2="148.21" y2="206.821"/>
			
				<line style="fill:none;stroke:#2D1A14;stroke-width:0.9801;stroke-linecap:round;stroke-linejoin:round;stroke-dasharray:5.7171,5.7171;" x1="148.21" y1="212.538" x2="148.21" y2="221.114"/>
			<polyline style="fill:none;stroke:#2D1A14;stroke-width:0.9801;stroke-linecap:round;stroke-linejoin:round;" points="
				148.21,223.973 148.21,226.913 151.151,226.913 			"/>
			
				<line style="fill:none;stroke:#2D1A14;stroke-width:0.9801;stroke-linecap:round;stroke-linejoin:round;stroke-dasharray:5.9504,5.9504;" x1="157.101" y1="226.913" x2="189.828" y2="226.913"/>
			<polyline style="fill:none;stroke:#2D1A14;stroke-width:0.9801;stroke-linecap:round;stroke-linejoin:round;" points="
				192.804,226.913 195.744,226.913 195.744,229.853 			"/>
			
				<line style="fill:none;stroke:#2D1A14;stroke-width:0.9801;stroke-linecap:round;stroke-linejoin:round;stroke-dasharray:6.0438,6.0438;" x1="195.744" y1="235.897" x2="195.744" y2="244.962"/>
			
				<line style="fill:none;stroke:#2D1A14;stroke-width:0.9801;stroke-linecap:round;stroke-linejoin:round;" x1="195.744" y1="247.984" x2="195.744" y2="250.924"/>
		</g>
	</g>
	<g>
		<g>
			
				<line style="fill:none;stroke:#2D1A14;stroke-width:0.9801;stroke-linecap:round;stroke-linejoin:round;" x1="185.453" y1="201.921" x2="185.453" y2="204.861"/>
			
				<line style="fill:none;stroke:#2D1A14;stroke-width:0.9801;stroke-linecap:round;stroke-linejoin:round;stroke-dasharray:2.9402,2.9402;" x1="185.453" y1="207.801" x2="185.453" y2="212.212"/>
			<polyline style="fill:none;stroke:#2D1A14;stroke-width:0.9801;stroke-linecap:round;stroke-linejoin:round;" points="
				185.453,213.682 185.453,216.622 188.393,216.622 			"/>
			
				<line style="fill:none;stroke:#2D1A14;stroke-width:0.9801;stroke-linecap:round;stroke-linejoin:round;stroke-dasharray:6.207,6.207;" x1="194.6" y1="216.622" x2="203.911" y2="216.622"/>
			<polyline style="fill:none;stroke:#2D1A14;stroke-width:0.9801;stroke-linecap:round;stroke-linejoin:round;" points="
				207.014,216.622 209.955,216.622 209.955,219.562 			"/>
			
				<line style="fill:none;stroke:#2D1A14;stroke-width:0.9801;stroke-linecap:round;stroke-linejoin:round;stroke-dasharray:5.2924,5.2924;" x1="209.955" y1="224.855" x2="209.955" y2="243.378"/>
			
				<line style="fill:none;stroke:#2D1A14;stroke-width:0.9801;stroke-linecap:round;stroke-linejoin:round;" x1="209.955" y1="246.024" x2="209.955" y2="248.964"/>
		</g>
	</g>
	<circle style="fill:#230B19;" cx="108.027" cy="203.881" r="4.043"/>
	<circle style="fill:#230B19;" cx="148.21" cy="201.921" r="4.043"/>
	<circle style="fill:#230B19;" cx="185.453" cy="202.779" r="4.043"/>
	
		<text transform="matrix(0.9999 0.0095 -0.0095 0.9999 317.5769 110.0606)" style="fill:#FFFFFF; font-family:'Montserrat-ExtraBold'; font-size:19.4143px; letter-spacing:2;">HOSTING</text>
	<g>
		<defs>
			<rect id="SVGID_1_" x="406.915" y="184.927" width="58.513" height="278.094"/>
		</defs>
		<clipPath id="SVGID_00000177473919818390116950000008566886385372292533_">
			<use xlink:href="#SVGID_1_"  style="overflow:visible;"/>
		</clipPath>
		<g style="clip-path:url(#SVGID_00000177473919818390116950000008566886385372292533_);">
			<g>
				
					<line style="fill:none;stroke:#8DDAE2;stroke-width:1.9601;stroke-linecap:round;stroke-linejoin:round;" x1="417.207" y1="224.624" x2="417.207" y2="228.054"/>
				
					<line style="fill:none;stroke:#8DDAE2;stroke-width:1.9601;stroke-linecap:round;stroke-linejoin:round;stroke-dasharray:6.9744,6.9744;" x1="417.207" y1="235.029" x2="417.207" y2="454.723"/>
				
					<line style="fill:none;stroke:#8DDAE2;stroke-width:1.9601;stroke-linecap:round;stroke-linejoin:round;" x1="417.207" y1="458.21" x2="417.207" y2="461.64"/>
			</g>
		</g>
		<g style="clip-path:url(#SVGID_00000177473919818390116950000008566886385372292533_);">
			<g>
				
					<line style="fill:none;stroke:#8DDAE2;stroke-width:1.9601;stroke-linecap:round;stroke-linejoin:round;" x1="433.379" y1="249.619" x2="433.379" y2="253.049"/>
				
					<line style="fill:none;stroke:#8DDAE2;stroke-width:1.9601;stroke-linecap:round;stroke-linejoin:round;stroke-dasharray:6.9744,6.9744;" x1="433.379" y1="260.023" x2="433.379" y2="479.717"/>
				
					<line style="fill:none;stroke:#8DDAE2;stroke-width:1.9601;stroke-linecap:round;stroke-linejoin:round;" x1="433.379" y1="483.204" x2="433.379" y2="486.635"/>
			</g>
		</g>
		<g style="clip-path:url(#SVGID_00000177473919818390116950000008566886385372292533_);">
			<g>
				
					<line style="fill:none;stroke:#8DDAE2;stroke-width:1.9601;stroke-linecap:round;stroke-linejoin:round;" x1="448.082" y1="277.553" x2="448.082" y2="280.984"/>
				
					<line style="fill:none;stroke:#8DDAE2;stroke-width:1.9601;stroke-linecap:round;stroke-linejoin:round;stroke-dasharray:6.9744,6.9744;" x1="448.082" y1="287.958" x2="448.082" y2="507.652"/>
				
					<line style="fill:none;stroke:#8DDAE2;stroke-width:1.9601;stroke-linecap:round;stroke-linejoin:round;" x1="448.082" y1="511.139" x2="448.082" y2="514.569"/>
			</g>
		</g>
	</g>
	<path style="fill:#BFB8FF;" d="M462.835,466.059H88.599c-1.426,0-2.592-1.367-2.592-3.037l0,0c0-1.671,1.167-3.037,2.592-3.037
		h374.237c1.426,0,2.592,1.367,2.592,3.037l0,0C465.427,464.692,464.261,466.059,462.835,466.059z"/>
	<circle style="fill:#8EDDDF;" cx="417.486" cy="218.582" r="5.635"/>
	<circle style="fill:#8EDDDF;" cx="433.408" cy="248.516" r="5.635"/>
	<circle style="fill:#8EDDDF;" cx="448.746" cy="274.408" r="5.635"/>
	<g>
		<g>
			<path style="fill:#8DDAE2;" d="M396.388,49.387c-1.147,0-2.294-0.362-3.169-1.087c-7.667-6.35-16.261-8.302-25.546-5.802
				c-7.122,1.918-12.132,5.811-12.18,5.85c-1.782,1.422-4.62,1.379-6.337-0.097c-1.718-1.476-1.665-3.826,0.117-5.249
				c0.259-0.207,6.451-5.092,15.629-7.564c8.766-2.36,21.894-2.957,34.656,7.612c1.75,1.45,1.75,3.8,0,5.25
				C398.682,49.024,397.535,49.387,396.388,49.387z"/>
		</g>
		<g>
			<path style="fill:#8DDAE2;" d="M389.844,61.084c-0.817,0-1.633-0.307-2.256-0.92c-5.458-5.372-11.575-7.024-18.184-4.908
				c-5.069,1.622-8.636,4.916-8.67,4.949c-1.269,1.203-3.288,1.167-4.511-0.082c-1.223-1.249-1.185-3.237,0.084-4.441
				c0.184-0.175,4.592-4.308,11.125-6.4c6.24-1.997,15.585-2.501,24.669,6.44c1.246,1.226,1.246,3.215,0,4.441
				C391.477,60.777,390.661,61.084,389.844,61.084z"/>
		</g>
		<path style="fill:#8DDAE2;" d="M384.682,66.198c-3.064-3.394-6.527-5.115-10.296-5.115c-1.486,0-3.001,0.274-4.502,0.815
			c-3.859,1.39-6.465,4.144-6.574,4.261c-1.07,1.143-1.102,2.966-0.071,4.15c0.527,0.606,1.274,0.954,2.051,0.954
			c0.748,0,1.45-0.311,1.978-0.874c0.012-0.013,1.851-1.905,4.408-2.825c0.914-0.329,1.815-0.496,2.679-0.496
			c2.213,0,4.331,1.104,6.297,3.282c0.532,0.589,1.248,0.914,2.015,0.914c0.768,0,1.484-0.324,2.015-0.914
			C385.732,69.186,385.732,67.362,384.682,66.198z"/>
	</g>
</g>
</svg>
